<?xml version="1.0" encoding="utf-8"?>
<!-- Generator: Adobe Illustrator 23.1.1, SVG Export Plug-In . SVG Version: 6.00 Build 0)  -->
<svg version="1.1" id="Camada_1" xmlns="http://www.w3.org/2000/svg" xmlns:xlink="http://www.w3.org/1999/xlink" x="0px" y="0px"
	 viewBox="0 0 640 480" style="enable-background:new 0 0 640 480;" xml:space="preserve">
<g>
	<path d="M442.3,390.3V85.7c0-14.2-11.5-25.7-25.7-25.7H176.8v0c0,0-0.1,0-0.1,0c-14.2,0-25.8,11.6-25.8,25.8v3.9h46.7l0.1,13.5
		v291.1c0,14.2,11.5,25.7,25.7,25.7h0.1h216.3h21.9c25.5,0,27.2-26.8,27.2-27.1l0.1-2.6H442.3z M155.9,84.7
		c0.6-11,9.7-19.7,20.8-19.7s20.2,8.7,20.8,19.7H155.9z M223.4,415c-11.4,0-20.7-9.3-20.7-20.7V103.2l-0.1-13.5h0v-3.9
		c0-8.5-4.2-16.1-10.6-20.8h224.6c11.4,0,20.7,9.3,20.7,20.7v304.6h-193v3.9c0,11.5-9.3,20.8-20.8,20.8H223.4z M461.8,415h-21.9
		h-201c6.1-4.5,10.2-11.6,10.5-19.7h234.3C482.6,401.2,478.4,415,461.8,415z"/>
	<rect x="242.6" y="112.4" width="42.8" height="8"/>
	<rect x="353.9" y="339.8" width="42.8" height="8"/>
	<rect x="242.6" y="154.2" width="154.1" height="8"/>
	<rect x="242.6" y="182" width="154.1" height="8"/>
	<rect x="242.6" y="209.8" width="154.1" height="8"/>
	<rect x="242.6" y="237.6" width="154.1" height="8"/>
	<rect x="242.6" y="265.5" width="154.1" height="8"/>
</g>
</svg>
