<?xml version="1.0" encoding="utf-8"?>
<!-- Generator: Adobe Illustrator 23.1.1, SVG Export Plug-In . SVG Version: 6.00 Build 0)  -->
<svg version="1.1" id="Camada_1" xmlns="http://www.w3.org/2000/svg" xmlns:xlink="http://www.w3.org/1999/xlink" x="0px" y="0px"
	 viewBox="0 0 640 480" style="enable-background:new 0 0 640 480;" xml:space="preserve">
<g fill="#7944BE">
	<rect x="264.1" y="93" width="230.5" height="8"/>
	<rect x="264.1" y="236" width="230.5" height="8"/>
	<rect x="264.1" y="379" width="230.5" height="8"/>
	<path d="M182.3,346c-20.4,0-37,16.6-37,37s16.6,37,37,37s37-16.6,37-37S202.7,346,182.3,346z M182.3,415c-17.6,0-32-14.3-32-32
		s14.3-32,32-32s32,14.3,32,32S200,415,182.3,415z"/>
	<path d="M182.3,203c-20.4,0-37,16.6-37,37s16.6,37,37,37s37-16.6,37-37S202.7,203,182.3,203z M182.3,272c-17.6,0-32-14.3-32-32
		c0-17.6,14.3-32,32-32s32,14.3,32,32C214.3,257.6,200,272,182.3,272z"/>
	<circle cx="182.3" cy="240" r="19.6"/>
	<path d="M182.3,60c-20.4,0-37,16.6-37,37c0,20.4,16.6,37,37,37s37-16.6,37-37C219.3,76.6,202.7,60,182.3,60z M182.3,129
		c-17.6,0-32-14.3-32-32s14.3-32,32-32s32,14.3,32,32S200,129,182.3,129z"/>
</g>
</svg>
