<?xml version="1.0" encoding="utf-8"?>
<!-- Generator: Adobe Illustrator 23.1.1, SVG Export Plug-In . SVG Version: 6.00 Build 0)  -->
<svg version="1.1" id="Camada_1" xmlns="http://www.w3.org/2000/svg" xmlns:xlink="http://www.w3.org/1999/xlink" x="0px" y="0px"
	 viewBox="0 0 640 480" style="enable-background:new 0 0 640 480;" xml:space="preserve">
<path fill="#7944BE" d="M498,413.3v-103l-47.3-14.8l-31.2,14v-47.7l-67.4-21.1l-47.7,21.4V89.8l-90.6-31.9l-72.3,41.3v314.1h-66v8h66h154.9h8h107.1
	h8H498h66v-8H498z M296.4,300.9l-78.2-27.6v-47.8l78.2,27.6v12.5V300.9z M149.5,155.2l60.7-34.7v47.3l-60.7,34.7V155.2z
	 M218.2,172.5l78.2,27.6v47.8l-78.2-27.6V172.5z M296.4,194.8l-78.2-27.6v-47.8l78.2,27.6V194.8z M149.5,208.3l60.7-34.7v47.3
	l-60.7,34.7V208.3z M149.5,261.3l60.7-34.7V274l-60.7,34.7V261.3z M296.4,141.7l-78.2-27.6V67.9l78.2,27.6V141.7z M210.2,69.2v45.6
	l-60.7,34.7v-45.6L210.2,69.2z M149.5,314.4l60.7-34.7v133.5h-60.7V314.4z M218.2,413.3V278.7l78.2,27.6v107H218.2z M304.4,270.8
	l43.9-19.7v162.2h-43.9V270.8z M356.3,413.3V250.4l55.1,17.3V313v100.2H356.3z M419.5,318.2l27.4-12.3v107.4h-27.4V318.2z
	 M454.9,413.3V305.2l35.1,11v97.1H454.9z"/>
</svg>
