<?xml version="1.0" encoding="utf-8"?>
<!-- Generator: Adobe Illustrator 23.1.1, SVG Export Plug-In . SVG Version: 6.00 Build 0)  -->
<svg version="1.1" id="Camada_1" xmlns="http://www.w3.org/2000/svg" xmlns:xlink="http://www.w3.org/1999/xlink" x="0px" y="0px"
	 viewBox="0 0 640 480" style="enable-background:new 0 0 640 480;" xml:space="preserve">
<g fill="#0271CE">
	<path d="M244.2,125.8l82.4,82.4l2.7-2.7l1.7-1.4c5.1-3.7,12.2-3.3,16.8,1.3c4.6,4.6,5,11.7,1.3,16.8l-1.4,1.7l-2.7,2.7l82.4,82.4
		l67-250.2L244.2,125.8z M472.7,72.9L326.8,197.2L259.6,130L472.7,72.9z M353.4,199.8c-3-3-6.7-4.9-10.6-5.7L453.2,100l-94.1,110.4
		C358.3,206.5,356.4,202.8,353.4,199.8z M423.2,293.6L356,226.4L480.3,80.5L423.2,293.6z"/>
	<rect x="237" y="362.1" transform="matrix(0.7071 -0.7071 0.7071 0.7071 -165.704 329.2081)" width="155.1" height="5"/>
	<rect x="247.2" y="323.7" transform="matrix(0.7071 -0.7071 0.7071 0.7071 -141.4186 310.9163)" width="114.7" height="5"/>
	<rect x="127.5" y="229.3" transform="matrix(0.7071 -0.7071 0.7071 0.7071 -106.7107 206.053)" width="135.8" height="5"/>
	<rect x="186.1" y="239.3" transform="matrix(0.7071 -0.7071 0.7071 0.7071 -102.4728 236.1588)" width="95.4" height="5"/>
</g>
</svg>
