<?xml version="1.0" encoding="UTF-8"?>
<svg width="224px" height="52px" viewBox="0 0 224 52" version="1.1" xmlns="http://www.w3.org/2000/svg" xmlns:xlink="http://www.w3.org/1999/xlink">
    <!-- Generator: Sketch 59.1 (86144) - https://sketch.com -->
    <title>img-logo</title>
    <desc>Created with Sketch.</desc>
    <g id="Page-1" stroke="none" stroke-width="1" fill="none" fill-rule="evenodd">
        <g id="img-logo" fill="#FFFFFF" fill-rule="nonzero">
            <g id="Grupo_3" transform="translate(31.160745, 37.628070)">
                <polygon id="Caminho_59" points="2.1812522 11.7587719 2.1812522 8.09003508 9.90676535 8.09003508 9.90676535 6.10868202 2.1812522 6.10868202 2.1812522 2.85738158 10.3065636 2.85738158 10.3065636 0.881907895 0 0.881907895 0 13.7166074 10.3300811 13.7166074 10.7181206 11.7587719"></polygon>
                <polygon id="Caminho_60" points="24.952114 0.881907895 24.952114 10.4006338 17.1442895 0.993616228 17.0502193 0.881907895 15.0629868 0.881907895 15.0629868 13.7166074 17.2207215 13.7166074 17.2207215 4.19788158 25.028546 13.6048991 25.0990987 13.6872105 27.1039693 13.6872105 27.1039693 0.881907895"></polygon>
                <polygon id="Caminho_61" points="34.1945088 11.7587719 34.1945088 8.09003508 41.920022 8.09003508 41.920022 6.10868202 34.1945088 6.10868202 34.1945088 2.85738158 42.331579 2.85738158 42.331579 0.881907895 32.0073772 0.881907895 32.0073772 13.7166074 42.331579 13.7166074 42.7196185 11.7411338"></polygon>
                <path d="M56.0834627,8.26053728 C57.5646905,7.79080672 58.534939,6.37181828 58.4352172,4.82109648 C58.4352172,2.20476973 56.7478333,0.881907895 53.4201008,0.881907895 L47.3937303,0.881907895 L47.3937303,13.7166074 L49.5455855,13.7166074 L49.5455855,8.73088815 L53.1908048,8.73088815 L53.8728137,8.73088815 L56.6596425,13.6107785 L56.7243158,13.7283662 L59.2465723,13.7283662 L56.0834627,8.26053728 Z M49.5455855,2.85738158 L53.2731162,2.85738158 C54.050358,2.800735 54.8280253,2.96156147 55.5190417,3.32185307 C55.9716508,3.66561308 56.212309,4.22046372 56.1540153,4.78582018 C56.1540153,6.12632018 55.2309518,6.74953508 53.2143223,6.74953508 L49.522068,6.74953508 L49.5455855,2.85738158 Z" id="Caminho_62"></path>
                <path d="M69.2003728,6.85536403 L69.2003728,8.81907895 L73.0984057,8.81907895 L73.0984057,11.2296272 C71.9413577,11.7954524 70.6642197,12.071863 69.3767543,12.0351031 C68.0917245,12.1133082 66.8297773,11.6679151 65.8785197,10.800432 C65.0105437,9.86093052 64.5626238,8.60845313 64.6379693,7.3315943 C64.5541208,6.04726663 64.976171,4.78111572 65.8138465,3.80396272 C66.6949572,2.94047067 67.8978755,2.48617703 69.1298202,2.55165352 C69.9485375,2.51255137 70.7622088,2.69969575 71.4815745,3.09255702 C72.0880727,3.47098478 72.54664,4.04575003 72.7809188,4.72114693 L72.8514715,4.9034079 L74.9327742,4.5271272 L74.8445833,4.26843422 C74.5075387,3.13435023 73.7808475,2.15571165 72.7926777,1.50512281 C71.7002713,0.848636682 70.4382487,0.52955153 69.1650965,0.587938597 C67.9162462,0.559390905 66.6810942,0.852992613 65.578671,1.44044956 C64.5781418,1.9943094 63.7608573,2.82793943 63.2269167,3.83923903 C62.6746233,4.93178385 62.3980883,6.14288667 62.4214408,7.36687062 C62.391561,8.61586137 62.685242,9.85134708 63.2739518,10.9532961 C63.8299913,11.9465459 64.6719425,12.7495748 65.6903793,13.2580154 C66.8157073,13.8048522 68.0553835,14.0749605 69.3062018,14.0458531 C70.3725985,14.051162 71.4334758,13.8925262 72.4516732,13.5755022 C73.3765737,13.3101131 74.2425263,12.8711509 75.0033268,12.2820373 L75.097397,12.2114847 L75.097397,6.85536403 L69.2003728,6.85536403 Z" id="Caminho_63"></path>
                <polygon id="Caminho_64" points="88.2554627 0.881907895 84.222204 6.41441008 80.1830658 0.881907895 77.5314627 0.881907895 83.081603 8.36636623 83.081603 13.7166074 85.2510965 13.7166074 85.2510965 8.36636623 90.8012368 0.881907895"></polygon>
                <path d="M127.224033,0.881907895 L127.224033,8.56038597 C127.299765,9.51770572 126.973887,10.4633903 126.324487,11.1708333 C124.58056,12.2929651 122.341891,12.2929651 120.597965,11.1708333 C119.943879,10.4590934 119.617657,9.50601257 119.698419,8.5427478 L119.698419,0.881907895 L117.511287,0.881907895 L117.511287,8.52510965 C117.511287,12.1820877 119.510279,14.0399737 123.461226,14.0399737 C127.412173,14.0399737 129.411165,12.1820877 129.411165,8.52510965 L129.411165,0.881907895 L127.224033,0.881907895 Z" id="Caminho_65"></path>
                <path d="M159.484224,0.881907895 L159.484224,8.56038597 C159.562862,9.51807303 159.236594,10.4648916 158.584678,11.1708333 C156.844778,12.2993945 154.603935,12.2993945 152.864035,11.1708333 C152.205909,10.461212 151.877216,9.507148 151.95861,8.5427478 L151.95861,0.881907895 L149.771478,0.881907895 L149.771478,8.52510965 C149.771478,12.1820877 151.776349,14.0399737 155.721417,14.0399737 C159.666485,14.0399737 161.683114,12.1703289 161.683114,8.51335088 L161.683114,0.870149123 L159.484224,0.881907895 Z" id="Caminho_66"></path>
                <path d="M174.617763,8.26053728 C176.098992,7.79080672 177.06924,6.37181828 176.969518,4.82109648 C176.969518,2.20476973 175.282133,0.881907895 171.954402,0.881907895 L165.951548,0.881907895 L165.951548,13.7166074 L168.103403,13.7166074 L168.103403,8.73088815 L172.424752,8.73088815 L175.211582,13.6107785 L175.282133,13.7283662 L177.798512,13.7283662 L174.617763,8.26053728 Z M174.688315,4.79169957 C174.688315,6.13219957 173.765252,6.75541447 171.748623,6.75541447 L168.056368,6.75541447 L168.056368,2.86326097 L171.783898,2.86326097 C172.55875,2.80403263 173.334708,2.96289035 174.023945,3.32185307 C174.47507,3.66719267 174.717107,4.22010237 174.664798,4.78582018 L174.688315,4.79169957 Z" id="Caminho_67"></path>
                <polygon id="Caminho_68" points="183.719053 11.7587719 183.719053 8.09003508 191.438687 8.09003508 191.438687 6.10868202 183.719053 6.10868202 183.719053 2.85738158 191.838485 2.85738158 191.838485 0.881907895 181.531922 0.881907895 181.531922 13.7166074 191.867882 13.7166074 192.255922 11.7587719"></polygon>
                <polygon id="Caminho_69" points="112.684311 2.85738158 112.684311 0.881907895 102.377748 0.881907895 102.377748 13.7166074 104.559 13.7166074 104.559 8.27817543 112.296272 8.27817543 112.296272 6.30270175 104.559 6.30270175 104.559 2.85738158"></polygon>
                <polygon id="Caminho_70" points="133.744272 0.881907895 133.744272 2.85738158 138.635921 2.85738158 138.635921 13.7166074 140.823053 13.7166074 140.823053 2.85738158 145.714702 2.85738158 145.714702 0.881907895"></polygon>
            </g>
            <g id="Grupo_4">
                <path d="M18.3436842,14.6984649 L4.92104605,21.3774473 C1.90459045,22.8869872 -0.0003976553,25.9709285 -1.24468717e-07,29.3440153 L13.4226382,22.635636 C16.4296437,21.1308467 18.3329747,18.0609578 18.3436842,14.6984649" id="Caminho_71"></path>
                <path d="M18.3436842,25.6752785 L4.92104605,32.3836578 C1.90551958,33.8911945 0.000453068767,36.9729868 0,40.3443465 L13.4226381,33.6359672 C16.4372004,32.1273753 18.3418563,29.0462473 18.3436842,25.6752785" id="Caminho_72"></path>
                <path d="M18.3436842,36.6756097 L4.92104605,43.383989 C1.90551958,44.8915257 0.000453068767,47.9733178 0,51.3446777 L13.4226381,44.6362982 C16.4381646,43.1287615 18.3432312,40.0469693 18.3436842,36.6756097" id="Caminho_73"></path>
                <path d="M37.6280702,-1.37137263e-15 L24.1995527,6.70837938 C21.1755067,8.2217017 19.2691862,11.3169103 19.2784387,14.6984649 L32.6952653,7.9606886 C35.7163268,6.45749818 37.6267715,3.37437287 37.6280702,-1.37137263e-15" id="Caminho_74"></path>
                <path d="M37.6280702,11.0062105 L24.1995527,17.7145898 C21.1840262,19.2221265 19.2789597,22.3039188 19.2785065,25.6752785 L32.6952653,18.9668992 C35.7153608,17.4626485 37.6253922,14.3801902 37.6280702,11.0062105" id="Caminho_75"></path>
            </g>
        </g>
    </g>
</svg>