<?xml version="1.0" encoding="UTF-8"?>
<svg width="115px" height="73px" viewBox="0 0 115 73" version="1.1" xmlns="http://www.w3.org/2000/svg" xmlns:xlink="http://www.w3.org/1999/xlink">
    <!-- Generator: Sketch 59.1 (86144) - https://sketch.com -->
    <title>Marca Vertical</title>
    <desc>Created with Sketch.</desc>
    <g id="Page-1" stroke="none" stroke-width="1" fill="none" fill-rule="evenodd">
        <g id="Marca-Vertical" fill="#262730" fill-rule="nonzero">
            <path d="M0,31.5076051 L2.59352518,31.5076051 L2.59352518,33.8740023 C3.20066632,32.9998438 3.99247026,32.2678901 4.91366906,31.7292315 C5.69982218,31.2713872 6.59244934,31.0249864 7.50359712,31.0143078 C8.49872383,30.967973 9.48387877,31.2289542 10.323741,31.761403 C11.0616488,32.2966413 11.6145725,33.0459112 11.9064748,33.9061739 C12.5359149,33.0115064 13.3595457,32.2687681 14.3165468,31.7328061 C15.1978794,31.2503733 16.1880513,30.9982291 17.1942446,31 C18.7242206,31 19.9052758,31.4146651 20.7374101,32.2439765 C21.5695444,33.0732879 21.9904077,34.4173443 22,36.2761457 L22,47 L19.3776978,47 L19.3776978,36.8695323 C19.3909302,36.2805308 19.330516,35.6921756 19.1978417,35.1179694 C19.111245,34.712571 18.9301318,34.3330211 18.6690647,34.0098378 C18.4443453,33.742041 18.1473205,33.5436097 17.8129496,33.4378989 C17.4316024,33.3237694 17.0349229,33.2683165 16.6366906,33.2734665 C16.1475839,33.2798453 15.6623441,33.3606145 15.1978417,33.5129659 C14.6549826,33.6952796 14.1528927,33.9805667 13.7194245,34.3530011 C13.313521,34.6957069 12.9766433,35.1117438 12.7266187,35.5790952 C12.4582893,36.0867912 12.3234185,36.6536392 12.3345324,37.2269941 L12.3345324,47 L9.71223022,47 L9.71223022,36.8981292 C9.71223022,35.5397744 9.47242206,34.5960752 8.99280576,34.0670317 C8.46646973,33.5150941 7.72042155,33.2243052 6.95683453,33.2734665 C5.86988433,33.3069901 4.83835513,33.7580234 4.07913669,34.531732 C3.70048563,34.8975159 3.37156146,35.3109058 3.10071942,35.7614007 C2.76018685,36.373622 2.5982436,37.0680973 2.63309353,37.7667614 L2.63309353,47 L0,47 L0,31.5076051 Z" id="Path"></path>
            <path d="M34.5118045,44.5756 C33.9177438,45.2727094 33.1990909,45.855026 32.3919679,46.2932803 C31.4121573,46.7990634 30.3157065,47.0408163 29.2122132,46.9943743 C28.4959124,47.0027355 27.7820836,46.909482 27.0923766,46.7174421 C26.4865103,46.5505089 25.9222369,46.2604287 25.4353711,45.8656129 C24.9674915,45.4804809 24.597199,44.9918138 24.3542545,44.4388866 C24.1005795,43.8147775 23.9814317,43.1448796 24.0044815,42.472318 C23.9642407,41.5826866 24.1957549,40.7017386 24.6686969,39.9448741 C25.1173925,39.2950294 25.7252891,38.7690832 26.4352273,38.4164892 C27.2244309,38.0298389 28.0676079,37.7627911 28.9366344,37.624253 C29.8868519,37.465911 30.8462394,37.3675601 31.8090129,37.3297935 L34.4411433,37.2421567 L34.4411433,36.6567433 C34.4411433,35.3643933 34.1655645,34.4296013 33.614407,33.8523673 C33.0632495,33.2751332 32.1682074,32.9935271 30.9292808,33.007549 C29.7068417,33.007549 28.8094442,33.2073608 28.2370884,33.6069844 C27.669407,34.0049395 27.2694228,34.5964863 27.113575,35.2685771 L24.7746887,35.0021614 C24.9575162,33.7490994 25.6810568,32.6370734 26.7567359,31.955908 C27.8025219,31.3202494 29.22399,31.0024202 31.0211403,31.0024202 C31.9683732,30.9799707 32.9127832,31.1138328 33.8157915,31.3985383 C34.5149522,31.6243382 35.1496617,32.0125255 35.6671154,32.5308051 C36.1545466,33.0436482 36.5054733,33.6689376 36.68817,34.350144 C36.9063945,35.1497454 37.011041,35.9756599 36.9990793,36.803973 L36.9990793,46.678882 L34.5259367,46.678882 L34.5118045,44.5756 Z M34.4517424,39.0544847 L31.9785998,39.1421215 C31.1033612,39.1605626 30.2317072,39.259134 29.374734,39.436581 C28.7932967,39.5470863 28.2367452,39.7608432 27.7318607,40.0675656 C27.3522161,40.3010587 27.052865,40.6432964 26.8733269,41.0490972 C26.6967363,41.4782954 26.6101806,41.9387061 26.6189465,42.4022086 C26.590147,43.0837726 26.8457595,43.7469792 27.3255587,44.2355694 C27.7919227,44.6982914 28.5550638,44.9366634 29.6220482,44.9366634 C31.1412644,44.9366634 32.3189514,44.5650836 33.1551091,43.8219239 C34.0192906,43.0450464 34.4862017,41.924203 34.427011,40.7686596 L34.4517424,39.0544847 Z" id="Shape"></path>
            <polygon id="Path" points="40 25 42.6591149 25 42.6591149 37.2280702 50.1348788 30.7894737 53.3804004 30.7894737 47.6638567 35.8736842 54 46 50.938883 46 45.6575342 37.3789474 42.6591149 39.9368421 42.6591149 46 40 46"></polygon>
            <path d="M68.7621556,42.3139638 C68.5693393,43.6609942 67.865043,44.886829 66.7903045,45.7459903 C65.7329864,46.5819968 64.2154518,47 62.2377006,47 C59.9059366,47 58.1169921,46.3052578 56.8708672,44.9157734 C55.6247424,43.5262889 55.0016799,41.590274 55.0016799,39.1077285 C54.9804178,37.9286249 55.1611174,36.75439 55.5362392,35.6340174 C55.8488664,34.6961907 56.3590739,33.8333934 57.0337131,33.1016821 C57.6742184,32.4241525 58.4585365,31.8929009 59.3312559,31.5454595 C61.2493355,30.8181802 63.374751,30.8181802 65.2928306,31.5454595 C66.103448,31.8856831 66.8204207,32.4094555 67.385046,33.0738924 C67.9499588,33.7677366 68.3632884,34.5682449 68.5993097,35.4255948 C68.8759118,36.3812228 69.0106428,37.3709929 68.9993441,38.3643543 L68.9993441,39.6461537 L57.6107539,39.6461537 C57.6038321,40.3605155 57.7089037,41.0716738 57.9222851,41.7546963 C58.1083835,42.3669686 58.4097767,42.9395943 58.8108571,43.4429199 C59.1977887,43.9197086 59.6905999,44.3034719 60.251689,44.5649286 C60.8738422,44.8460595 61.5528894,44.985022 62.2377006,44.9713527 C63.5227668,44.9713527 64.4644408,44.7351404 65.0698026,44.2766105 C65.6778098,43.7774408 66.1049992,43.0987188 66.2876064,42.3417535 L68.7621556,42.3139638 Z M66.4221313,37.74256 C66.4282462,37.0857003 66.3485339,36.4307802 66.1849427,35.7938081 C66.0448245,35.249851 65.7917297,34.7401496 65.4415159,34.2966387 C65.0943387,33.870983 64.6457001,33.5357464 64.1352089,33.3205259 C63.5251378,33.0736874 62.8690299,32.9553421 62.2093795,32.9731548 C60.8428903,32.9731548 59.7808521,33.3807369 59.0232648,34.1959011 C58.2656775,35.0110652 57.8113611,36.1932849 57.6603157,37.74256 L66.4221313,37.74256 Z" id="Shape"></path>
            <path d="M87.5206493,44.5754927 C86.9313511,45.2709523 86.2182336,45.8531958 85.4167838,46.293249 C84.4361834,46.7990545 83.3388489,47.0408181 82.2344662,46.994374 C81.5175882,47.0027356 80.803184,46.909478 80.1129212,46.7174296 C79.5059187,46.5494237 78.9402454,46.2594634 78.4510442,45.8655627 C77.9910752,45.4775527 77.6279976,44.989196 77.3902717,44.4387733 C77.1203695,43.8085569 76.9889821,43.128565 77.0048577,42.4440727 C76.9627996,41.5542161 77.1946362,40.6727131 77.6696085,39.916517 C78.1177252,39.2658145 78.7263518,38.7396375 79.4375627,38.3880645 C80.2272012,38.0009037 81.0711344,37.7338198 81.9409858,37.5957932 C82.8919448,37.4372662 83.852117,37.3389098 84.8156793,37.3013207 L87.4499311,37.2136801 L87.4499311,36.6282407 C87.4499311,35.3358336 87.1741302,34.4010002 86.6225285,33.8237406 C86.0709268,33.246481 85.1728061,32.9742108 83.9281663,33.00693 C82.704742,33.00693 81.8066213,33.2067506 81.2338041,33.6063919 C80.6589186,34.0036062 80.253198,34.5982303 80.0952416,35.2750694 L77.7544703,35.0086419 C77.9381395,33.7530117 78.663406,32.6386044 79.7416508,31.9552425 C80.7882797,31.3195558 82.2097149,31.0017125 84.0059563,31.0017125 C84.958284,30.9827509 85.9071345,31.1213714 86.8134676,31.4118706 C87.5131918,31.6376805 88.1484129,32.025885 88.6662836,32.5441875 C89.1541077,33.0570533 89.5053172,33.6823703 89.6881611,34.3636069 C89.9048177,35.1635838 90.0095178,35.9892931 89.999321,36.8175444 L89.999321,46.6788677 L87.5241852,46.6788677 L87.5206493,44.5754927 Z M87.4605388,39.0541332 L85.0030825,39.1417739 C84.1271384,39.1602157 83.2547819,39.2587915 82.397118,39.4362464 C81.8152121,39.5467566 81.258212,39.7605229 80.7529206,40.0672589 C80.3728096,40.3015642 80.0722843,40.6434758 79.8901589,41.0488339 C79.7164137,41.4788134 79.6310603,41.9388731 79.6391095,42.4020052 C79.6102868,43.0835994 79.8661053,43.7468353 80.3462911,44.2354471 C80.8094951,44.6981896 81.5767873,44.9365721 82.6446316,44.9365721 C84.1650722,44.9365721 85.3496015,44.5649758 86.1982195,43.8217833 C87.0630975,43.0448715 87.5303849,41.9239785 87.4711465,40.7683839 L87.4605388,39.0541332 Z" id="Shape"></path>
            <path d="M0,51 L2.53738753,51 L2.53738753,59.1076095 C3.11460425,58.3039198 3.85009782,57.6357862 4.69538516,57.1472514 C5.58504945,56.6677685 6.57772637,56.4289377 7.58083683,56.4530328 C8.55166462,56.4310025 9.51460651,56.6376549 10.3966757,57.0573267 C11.1874237,57.4465321 11.8770667,58.0248265 12.4084864,58.7443137 C12.9651969,59.5145797 13.37184,60.3892564 13.605827,61.3197567 C13.8773823,62.3976708 14.0096358,63.5079976 13.9991394,64.6217911 C14.0131535,65.7999997 13.8559328,66.9737069 13.5327335,68.1036748 C13.2553573,69.0660316 12.7963715,69.9621208 12.1822447,70.7402665 C11.6163331,71.4526279 10.9025793,72.0242773 10.0938599,72.4128656 C9.21776655,72.8145129 8.26766355,73.0145672 7.3093468,72.9991746 C6.43070887,72.9980877 5.56188662,72.8082255 4.7580367,72.4416415 C3.86530032,72.0162261 3.09604561,71.3564396 2.52694561,70.5280443 L2.52694561,72.5171783 L0,72.5171783 L0,51 Z M2.5095424,65.1649361 C2.49610065,66.0368457 2.61351586,66.9056401 2.85760654,67.7403791 C3.04479636,68.3863241 3.35746048,68.9860459 3.77649585,69.5029029 C4.15112629,69.9552512 4.62992621,70.3028514 5.16875238,70.5136563 C5.73855843,70.7281433 6.34095206,70.8353499 6.9473601,70.8301912 C7.54257107,70.8354831 8.13327564,70.7231604 8.68768077,70.4992684 C9.23354212,70.2687411 9.71294823,69.8971679 10.0799373,69.4201722 C10.5041632,68.8504044 10.8163321,68.2003093 10.9988266,67.5065749 C11.245931,66.5692123 11.3631197,65.6003646 11.3468908,64.628985 C11.3753962,63.6569669 11.2579818,62.6862538 10.9988266,61.7513952 C10.8067501,61.0745075 10.4847755,60.4445088 10.0520922,59.8989467 C9.6952046,59.4601295 9.23995902,59.1180869 8.72596783,58.9025812 C8.23780189,58.7057941 7.71847632,58.6045558 7.19448564,58.6040133 C6.5653543,58.6023083 5.94165763,58.7243811 5.35670701,58.96373 C4.7784491,59.1841335 4.25603506,59.5370824 3.82870547,59.9960653 C3.38726053,60.4887808 3.05367734,61.0739694 2.85064525,61.7118283 C2.60623714,62.4847309 2.48859397,63.2944242 2.50258112,64.1074219 L2.5095424,65.1649361 Z" id="Shape"></path>
            <path d="M17.0288117,57 L19.6532902,57 L19.6532902,66.7875406 C19.6532902,68.2205627 19.8932974,69.2403967 20.3733118,69.8470427 C20.8533262,70.4536887 21.6225492,70.7546233 22.6809809,70.7498466 C23.8594143,70.7440433 24.9917055,70.293335 25.8490757,69.4887872 C26.3115099,69.0948631 26.6992515,68.6216495 26.99391,68.0915907 C27.2738643,67.4988005 27.4048275,66.8471771 27.3755214,66.1928365 L27.3755214,57 L30,57 L30,72.5196288 L27.4043223,72.5196288 L27.4043223,70.1336471 C26.7467591,71.0325362 25.8971599,71.7752168 24.9166478,72.3082581 C24.0288556,72.7722151 23.0392792,73.0097864 22.0365616,72.9996912 C20.2701087,72.9996912 18.9884703,72.5220172 18.1916465,71.5666691 C17.3948226,70.6113211 16.9976107,69.1854642 17,67.2890983 L17.0288117,57 Z" id="Path"></path>
            <path d="M35.4875763,67.134978 C35.6642508,68.1819813 36.1130039,68.913957 36.8338357,69.3309052 C37.7420885,69.7936937 38.7591303,70.0107381 39.7807656,69.959802 C41.0834452,69.959802 42.0056859,69.7409042 42.5474876,69.3031086 C43.0841695,68.8839275 43.3869953,68.2393904 43.3637235,67.5658245 C43.3653082,67.2856595 43.3296719,67.0064909 43.2577189,66.7354027 C43.1897078,66.4730222 43.0518948,66.2331726 42.8584346,66.040489 C42.6216555,65.8090869 42.3406449,65.6260513 42.0315981,65.5019309 C41.5847151,65.3210816 41.1172713,65.1939198 40.6394034,65.123203 L38.685384,64.8313392 C37.9122382,64.7187178 37.1499245,64.5432296 36.4062835,64.3066794 C35.8107725,64.1223939 35.2506871,63.8417366 34.7490771,63.4762576 C34.3056649,63.1518768 33.9541072,62.7212526 33.7278988,62.225413 C33.4809406,61.6607762 33.3604302,61.0504966 33.3745498,60.4360103 C33.3614914,59.7866249 33.5197509,59.1449897 33.8339034,58.5736417 C34.1443307,58.0208582 34.5794942,57.5454059 35.1059595,57.1838144 C35.6923424,56.7859974 36.3436718,56.4898541 37.0317111,56.3082232 C37.8183911,56.0993823 38.6302619,55.9965224 39.4450841,56.0024612 C40.3779554,55.981966 41.3091728,56.0895566 42.2118061,56.3221215 C42.8704701,56.4978169 43.4891976,56.7949475 44.0350865,57.1977127 C44.4938684,57.5496915 44.8679082,57.996987 45.1304681,58.5076249 C45.3877134,59.0180657 45.5856592,59.5553794 45.7205608,60.1094009 L43.381391,60.4881289 C43.2590393,60.1149956 43.1004804,59.7542967 42.9079034,59.4110127 C42.7365565,59.1033447 42.4945777,58.8392271 42.2012056,58.6396585 C41.8724268,58.420605 41.5061394,58.2617023 41.119958,58.1705918 C40.6007371,58.0549688 40.0692365,58.0013051 39.5369548,58.0107617 C38.9421603,58.0000788 38.3484213,58.064301 37.7702103,58.2018629 C37.3616203,58.2983493 36.9754717,58.4705157 36.6324268,58.7091499 C36.3708575,58.8926314 36.1615874,59.1390895 36.0246667,59.424911 C35.9060694,59.6848867 35.8458114,59.966932 35.8479922,60.2518582 C35.843615,60.5328902 35.8829372,60.8129296 35.9645974,61.08228 C36.0489922,61.3332508 36.2032322,61.555938 36.409817,61.7250752 C36.6739678,61.9356929 36.9743453,62.0980869 37.2967227,62.2045656 C37.768629,62.365011 38.2548689,62.4813448 38.7489868,62.5520224 L40.9680179,62.8994793 C42.7630304,63.191343 44.0515761,63.6963136 44.833655,64.414391 C45.6157339,65.1324685 46.0044177,66.1806299 45.9997064,67.5588753 C46.0070463,68.1655331 45.876675,68.7661615 45.6180896,69.3170069 C45.3472565,69.8618079 44.9517701,70.3375164 44.4626386,70.7068342 C43.8864808,71.1395845 43.2316936,71.4603396 42.5333536,71.6519168 C41.6571424,71.8926919 40.7505555,72.0096826 39.8408349,71.9993736 C38.97042,72.0053304 38.1019391,71.9179498 37.2507874,71.738781 C36.5008297,71.583769 35.7836406,71.3028525 35.1306939,70.9083592 C34.5207721,70.5333949 34.0126767,70.0182706 33.650162,69.4073457 C33.2517182,68.7119313 33.0287579,67.9326675 33,67.134978 L35.4875763,67.134978 Z" id="Path"></path>
            <path d="M48,51 L51,51 L51,53.9699097 L48,53.9699097 L48,51 Z M48.0962773,56.7923771 L50.9037227,56.7923771 L50.9037227,72 L48.0962773,72 L48.0962773,56.7923771 Z" id="Shape"></path>
            <path d="M55,56.4659601 L57.5449362,56.4659601 L57.5449362,58.8530553 C58.1795485,57.928664 59.0279952,57.1766575 60.015748,56.6630925 C60.9094921,56.2249284 61.8894335,55.9982189 62.8818898,56 C64.6185175,56 65.9056928,56.4779075 66.7434157,57.4337013 C67.579962,58.3978584 68,59.8064596 68,61.6702577 L68,72 L65.426826,72 L65.426826,62.1792179 C65.426826,60.7455271 65.1703322,59.7299961 64.6573446,59.132625 C64.1455335,58.5412275 63.3548737,58.2473209 62.2924247,58.2473209 C61.712922,58.2491812 61.1378319,58.3497402 60.5910942,58.5448117 C60.0214541,58.7510414 59.5024834,59.0799473 59.0697801,59.5089688 C58.6137222,59.8999718 58.2320907,60.3725318 57.9437958,60.9032331 C57.6661582,61.4980861 57.5341666,62.1522482 57.5590551,62.8100419 L57.5590551,72 L55,72 L55,56.4659601 Z" id="Path"></path>
            <path d="M84.7623718,67.3085512 C84.5668504,68.6580067 83.8618565,69.8858089 82.7874577,70.7480196 C81.7327544,71.5826732 80.2155861,72 78.2359529,72 C75.904752,72 74.1162395,71.3044553 72.8704155,69.913366 C71.6245915,68.5222767 71.0016795,66.5840255 71.0016795,64.0986126 C70.9804226,62.9181471 71.1610785,61.7425558 71.5361097,60.6208892 C71.847845,59.6826569 72.3580523,58.8198399 73.0332221,58.0891066 C73.673366,57.4097086 74.4574803,56.8766658 75.33021,56.5276088 C76.2544972,56.1674459 77.2417351,55.9890287 78.2359529,56.0024726 C79.2821559,55.975868 80.3224861,56.1642062 81.2903453,56.5554306 C82.1000966,56.8971911 82.8166435,57.4213836 83.3820555,58.0856289 C83.9425787,58.7691831 84.3567075,59.5570124 84.5995653,60.4017926 C84.8746177,61.360014 85.0092843,62.3518636 84.9995031,63.3474243 L84.9995031,64.6272265 L73.6101235,64.6272265 C73.6049406,65.3434381 73.709945,66.0563064 73.9215795,66.7416823 C74.110395,67.3542439 74.4127694,67.9272532 74.8134762,68.4318558 C75.1990736,68.9081269 75.6906425,69.291212 76.2504209,69.5516828 C76.8715845,69.8359725 77.5508699,69.9763677 78.2359529,69.9620541 C79.5207089,69.9620541 80.4621555,69.7220912 81.0673711,69.2456431 C81.6760119,68.7465612 82.1032717,68.0667789 82.2848809,67.3085512 L84.7623718,67.3085512 Z M82.4193733,62.735345 C82.4257116,62.0765681 82.3460174,61.4197136 82.182242,60.7808645 C82.0414893,60.2365193 81.7885196,59.7263579 81.4389947,59.2819657 C81.0924896,58.8566802 80.6453337,58.5211756 80.1365424,58.3047255 C79.5252549,58.058017 78.8682428,57.9395608 78.2076388,57.9569531 C76.843839,57.9569531 75.7820572,58.3638468 75.0222933,59.177634 C74.2625294,59.9914213 73.8130418,61.177325 73.6738304,62.735345 L82.4193733,62.735345 Z" id="Shape"></path>
            <path d="M89.4877225,67.1307028 C89.6641567,68.1786214 90.1122996,68.911237 90.8321512,69.3285497 C91.739169,69.7917428 92.7548279,70.0089769 93.775074,69.9579963 C95.0736298,69.9579963 95.9946164,69.7389072 96.5380338,69.3007288 C97.073986,68.8811812 97.3764,68.2360807 97.3531599,67.5619259 C97.3547425,67.281516 97.3191546,67.0021034 97.2472994,66.7307782 C97.1779815,66.4687243 97.0405498,66.2290033 96.8485581,66.035257 C96.611361,65.8029079 96.3294219,65.61964 96.0193172,65.4962281 C95.5744864,65.3145792 95.1087651,65.1872795 94.6325443,65.1171691 L92.6811818,64.8250502 C91.9090873,64.7123303 91.1478103,64.5366886 90.4051804,64.2999317 C89.8095176,64.1151797 89.249082,63.8343175 88.7466988,63.4687839 C88.3047601,63.1432303 87.953879,62.7124735 87.726909,62.2168458 C87.4819595,61.6512085 87.3616838,61.0407554 87.3740405,60.4258789 C87.3609999,59.7759257 87.5190441,59.1337296 87.8327695,58.5618822 C88.1405746,58.0070752 88.5755613,57.5307529 89.1030959,57.1708398 C89.6882985,56.7720141 90.3388622,56.4755573 91.0262289,56.2944832 C91.8181953,56.0885859 92.6349953,55.9903039 93.4539637,56.0023643 C94.3855447,55.9823037 95.3154324,56.089981 96.2169236,56.322304 C96.8736362,56.4980857 97.490378,56.7955016 98.034196,57.1986607 C98.4933443,57.5499448 98.8670746,57.9978699 99.1280882,58.5097181 C99.3876395,59.0198453 99.5865628,59.557799 99.7209071,60.1128943 L97.3849181,60.4919534 C97.2627328,60.1184939 97.1043894,59.7574797 96.9120744,59.4138956 C96.7409604,59.1059586 96.4993107,58.8416101 96.2063375,58.6418671 C95.8780057,58.4226221 95.5122165,58.2635804 95.1265601,58.1723903 C94.608012,58.0568661 94.0772587,58.003158 93.5457095,58.0124204 C92.9517238,58.0017282 92.3587921,58.0660066 91.7813673,58.2036888 C91.3722397,58.300247 90.9854572,58.4725468 90.6416023,58.7114192 C90.3813568,58.8951592 90.1735411,59.1418863 90.0381972,59.427806 C89.9186527,59.6877768 89.8572756,59.970057 89.8582343,60.2554762 C89.8548961,60.5369397 89.8953578,60.8172443 89.9782096,61.086624 C90.0612708,61.3384053 90.2155153,61.5615972 90.4228238,61.729981 C90.6866154,61.9407829 90.9865845,62.1033189 91.3085236,62.2098906 C91.778692,62.3701073 92.2630643,62.4865368 92.7552842,62.5576512 L94.9748267,62.9054118 C96.7673983,63.1975307 98.0530157,63.7029427 98.8316787,64.4216479 C99.6103417,65.1403531 99.9996732,66.1894309 99.9996732,67.5688811 C100.007461,68.1764886 99.8759846,68.7779917 99.6150466,69.3285497 C99.3469066,69.8752919 98.9515522,70.3519054 98.4611668,70.719592 C97.8821513,71.1499996 97.2244145,71.4664329 96.5239191,71.6515903 C95.6477339,71.8927641 94.7411883,72.0098575 93.8315329,71.9993509 C92.9623163,72.0050097 92.0950496,71.9175561 91.2450073,71.7385305 C90.4963129,71.5825886 89.7802329,71.301479 89.1277967,70.9073827 C88.5195028,70.5311176 88.012311,70.015759 87.6492779,69.405057 C87.2534341,68.7094506 87.0309007,67.9311307 87,67.1341804 L89.4877225,67.1307028 Z" id="Path"></path>
            <path d="M104.494637,67.1307153 C104.671311,68.1786311 105.120063,68.9112449 105.840893,69.3285565 C106.749143,69.7917485 107.766182,70.008982 108.787815,69.9580015 C110.088136,69.9580015 111.010374,69.7389129 111.55453,69.3007357 C112.090344,68.8808266 112.391918,68.2355993 112.36723,67.5619373 C112.369969,67.2816805 112.335521,67.0022711 112.264759,66.7307916 C112.195347,66.4687385 112.057729,66.2290181 111.865476,66.0352723 C111.627957,65.8029238 111.345634,65.6196563 111.035108,65.4962447 C110.589513,65.315055 110.123216,65.1877713 109.646451,65.1171867 L107.692436,64.8250685 C106.918205,64.7119909 106.154749,64.5363584 105.409808,64.2999514 C104.814573,64.1148465 104.254595,63.833998 103.752606,63.4688057 C103.310067,63.143253 102.958709,62.7124972 102.73143,62.2168709 C102.486148,61.651235 102.365709,61.0407834 102.378082,60.4259085 C102.365024,59.775957 102.523283,59.1337625 102.837435,58.5619165 C103.145658,58.007111 103.581236,57.5307899 104.109488,57.1708778 C104.694199,56.7720502 105.344488,56.4755773 106.031701,56.2945234 C106.819124,56.090656 107.630917,55.992395 108.445067,56.0024052 C109.379088,55.982157 110.311432,56.0898344 111.215316,56.3223441 C111.872921,56.4981253 112.490501,56.7955405 113.035058,57.1986986 C113.493839,57.5509842 113.867877,57.9986695 114.130437,58.5097526 C114.388815,59.020525 114.587944,59.5583024 114.724061,60.1129247 L112.384898,60.4919828 C112.262546,60.1185243 112.103988,59.757511 111.911411,59.4139278 C111.737899,59.10751 111.496327,58.8436056 111.204715,58.6419013 C110.875937,58.4226568 110.509651,58.2636156 110.12347,58.1724257 C109.60305,58.0567242 109.070385,58.0030157 108.536938,58.0124562 C107.942129,58.0014188 107.348347,58.0657019 106.770198,58.2037241 C106.360514,58.300282 105.973206,58.4725814 105.628884,58.7114532 C105.368274,58.8961105 105.159232,59.1425146 105.021125,59.4278382 C104.904174,59.6885644 104.843991,59.9705037 104.844451,60.2555062 C104.839369,60.5370775 104.879924,60.8176461 104.96459,61.0866519 C105.046788,61.3380164 105.199985,61.5611621 105.406275,61.7300073 C105.672241,61.9400631 105.973634,62.1025013 106.296712,62.2099157 C106.767519,62.370132 107.25255,62.4865611 107.745438,62.5576754 L109.967997,62.9054351 C111.763005,63.1975532 113.05037,63.7029639 113.830091,64.4216673 C114.609812,65.1403707 114.999673,66.1894457 114.999673,67.5688925 C115.007471,68.1764984 114.875816,68.778 114.614523,69.3285565 C114.343691,69.8738324 113.948206,70.3499555 113.459075,70.7195953 C112.884564,71.1480186 112.232109,71.464365 111.536862,71.6515912 C110.659486,71.8927643 109.751709,72.0098575 108.840817,71.9993509 C107.970419,72.0050096 107.101974,71.9175563 106.250776,71.7385312 C105.501064,71.5825897 104.784011,71.3014808 104.130688,70.9073855 C103.521568,70.5311214 103.013687,70.015764 102.65016,69.4050636 C102.253779,68.709459 102.030943,67.9311411 102,67.1341929 L104.494637,67.1307153 Z" id="Path"></path>
            <polygon id="Rectangle" transform="translate(32.720819, 5.166456) rotate(135.000000) translate(-32.720819, -5.166456) " points="32.0738999 -0.681268363 33.3506002 -0.679397283 33.3677379 11.0141794 32.0910375 11.0123083"></polygon>
            <polygon id="Rectangle" transform="translate(30.646865, 7.231996) rotate(135.000000) translate(-30.646865, -7.231996) " points="29.9999459 1.38427207 31.2766463 1.38614316 31.2937839 13.0797198 30.0170836 13.0778487"></polygon>
            <polygon id="Rectangle" transform="translate(28.577962, 9.297536) rotate(135.000000) translate(-28.577962, -9.297536) " points="27.9310427 3.44981251 29.2077431 3.45168359 29.2248807 15.1452602 27.9481804 15.1433892"></polygon>
            <polygon id="Rectangle" transform="translate(26.502962, 11.369156) rotate(135.000000) translate(-26.502962, -11.369156) " points="25.8560427 5.52143192 27.1327431 5.523303 27.1498807 17.2168797 25.8731804 17.2150086"></polygon>
            <polygon id="Rectangle" transform="translate(24.431533, 13.432178) rotate(135.000000) translate(-24.431533, -13.432178) " points="23.7846142 7.58445436 25.0613145 7.58632544 25.0784521 19.2799021 23.8017518 19.278031"></polygon>
            <polygon id="Rectangle" transform="translate(22.356533, 15.500237) rotate(135.000000) translate(-22.356533, -15.500237) " points="21.7096142 9.65251279 22.9863145 9.65438387 23.0034521 21.3479605 21.7267518 21.3460894"></polygon>
            <polygon id="Path" points="9.13846154 0 0 9.07563025 0.930769231 10 11 0"></polygon>
            <polygon id="Path" points="13.1542985 0 2 11.0847151 2.92467096 12 15 0"></polygon>
            <polygon id="Path" points="17.1679113 0 4 13.0877373 4.91423753 14 19 0"></polygon>
            <polygon id="Path" points="21.1817798 0 6 15.096025 6.91270345 16 23 0"></polygon>
            <polygon id="Path" points="25.1897948 0 8 17.0996441 8.90510262 18 27 0"></polygon>
            <polygon id="Rectangle" transform="translate(20.144282, 10.326189) rotate(-45.000000) translate(-20.144282, -10.326189) " points="6.96979614 9.66853261 33.3168972 9.70714585 33.3187683 10.9838462 6.97166722 10.945233"></polygon>
        </g>
    </g>
</svg>