<?xml version="1.0" encoding="UTF-8"?>
<svg width="225px" height="52px" viewBox="0 0 135 31" version="1.1" xmlns="http://www.w3.org/2000/svg" xmlns:xlink="http://www.w3.org/1999/xlink">
    <!-- Generator: Sketch 59.1 (86144) - https://sketch.com -->
    <title>img-logo</title>
    <desc>Created with Sketch.</desc>
    <defs>
        <linearGradient x1="-8.58974322%" y1="72.0814934%" x2="91.4102564%" y2="72.0814934%" id="linearGradient-1">
            <stop stop-color="#5BBBA4" offset="50%"></stop>
            <stop stop-color="#5BBBA4" stop-opacity="0.5" offset="100%"></stop>
        </linearGradient>
        <linearGradient x1="-8.46153846%" y1="27.2240481%" x2="91.5384615%" y2="27.2240481%" id="linearGradient-2">
            <stop stop-color="#5BBBA4" offset="50%"></stop>
            <stop stop-color="#5BBBA4" stop-opacity="0.5" offset="100%"></stop>
        </linearGradient>
        <linearGradient x1="-8.58974359%" y1="66.5551102%" x2="91.4102564%" y2="66.5551102%" id="linearGradient-3">
            <stop stop-color="#5BBBA4" offset="50%"></stop>
            <stop stop-color="#5BBBA4" stop-opacity="0.5" offset="100%"></stop>
        </linearGradient>
        <linearGradient x1="7.91910697%" y1="33.608%" x2="107.85484%" y2="33.608%" id="linearGradient-4">
            <stop stop-color="#5BBBA4" offset="50%"></stop>
            <stop stop-color="#5BBBA4" stop-opacity="0.5" offset="100%"></stop>
        </linearGradient>
        <linearGradient x1="5.83627043%" y1="72.1262525%" x2="105.772188%" y2="72.1262525%" id="linearGradient-5">
            <stop stop-color="#5BBBA4" offset="50%"></stop>
            <stop stop-color="#5BBBA4" stop-opacity="0.5" offset="100%"></stop>
        </linearGradient>
    </defs>
    <g id="Page-1" stroke="none" stroke-width="1" fill="none" fill-rule="evenodd">
        <g id="img-logo" fill-rule="nonzero">
            <g id="Grupo_3" transform="translate(18.696447, 22.576842)" fill="#293750">
                <polygon id="Caminho_59" points="1.30875132 7.05526316 1.30875132 4.85402105 5.94405921 4.85402105 5.94405921 3.66520921 1.30875132 3.66520921 1.30875132 1.71442895 6.18393816 1.71442895 6.18393816 0.529144737 0 0.529144737 0 8.22996447 6.19804868 8.22996447 6.43087237 7.05526316"></polygon>
                <polygon id="Caminho_60" points="14.9712684 0.529144737 14.9712684 6.24038026 10.2865737 0.596169737 10.2301316 0.529144737 9.03779211 0.529144737 9.03779211 8.22996447 10.3324329 8.22996447 10.3324329 2.51872895 15.0171276 8.16293947 15.0594592 8.21232632 16.2623816 8.21232632 16.2623816 0.529144737"></polygon>
                <polygon id="Caminho_61" points="20.5167053 7.05526316 20.5167053 4.85402105 25.1520132 4.85402105 25.1520132 3.66520921 20.5167053 3.66520921 20.5167053 1.71442895 25.3989474 1.71442895 25.3989474 0.529144737 19.2044263 0.529144737 19.2044263 8.22996447 25.3989474 8.22996447 25.6317711 7.04468026"></polygon>
                <path d="M33.6500776,4.95632237 C34.5388143,4.67448403 35.1209634,3.82309097 35.0611303,2.89265789 C35.0611303,1.32286184 34.0487,0.529144737 32.0520605,0.529144737 L28.4362382,0.529144737 L28.4362382,8.22996447 L29.7273513,8.22996447 L29.7273513,5.23853289 L31.9144829,5.23853289 L32.3236882,5.23853289 L33.9957855,8.16646711 L34.0345895,8.23701974 L35.5479434,8.23701974 L33.6500776,4.95632237 Z M29.7273513,1.71442895 L31.9638697,1.71442895 C32.4302148,1.680441 32.8968152,1.77693688 33.311425,1.99311184 C33.5829905,2.19936785 33.7273854,2.53227823 33.6924092,2.87149211 C33.6924092,3.67579211 33.1385711,4.04972105 31.9285934,4.04972105 L29.7132408,4.04972105 L29.7273513,1.71442895 Z" id="Caminho_62"></path>
                <path d="M41.5202237,4.11321842 L41.5202237,5.29144737 L43.8590434,5.29144737 L43.8590434,6.73777632 C43.1648146,7.07727145 42.3985318,7.24311779 41.6260526,7.22106184 C40.8550347,7.26798491 40.0978664,7.00074903 39.5271118,6.48025921 C39.0063262,5.91655831 38.7375743,5.16507188 38.7827816,4.39895658 C38.7324725,3.62835998 38.9857026,2.86866943 39.4883079,2.28237763 C40.0169743,1.7642824 40.7387253,1.49170622 41.4778921,1.53099211 C41.9691225,1.50753082 42.4573253,1.61981745 42.8889447,1.85553421 C43.2528436,2.08259087 43.527984,2.42745002 43.6685513,2.83268816 L43.7108829,2.94204474 L44.9596645,2.71627632 L44.90675,2.56106053 C44.7045232,1.88061014 44.2685085,1.29342699 43.6756066,0.903073684 C43.0201628,0.509182009 42.2629492,0.317730918 41.4990579,0.352763158 C40.7497477,0.335634543 40.0086565,0.511795568 39.3472026,0.864269737 C38.7468851,1.19658564 38.2565144,1.69676366 37.93615,2.30354342 C37.604774,2.95907031 37.438853,3.685732 37.4528645,4.42012237 C37.4349366,5.16951682 37.6111452,5.91080825 37.9643711,6.57197763 C38.2979948,7.16792755 38.8031655,7.6497449 39.4142276,7.95480921 C40.0894244,8.28291129 40.8332301,8.44497628 41.5837211,8.42751184 C42.2235591,8.43069722 42.8600855,8.33551572 43.4710039,8.14530132 C44.0259442,7.98606783 44.5455158,7.72269055 45.0019961,7.36922237 L45.0584382,7.32689079 L45.0584382,4.11321842 L41.5202237,4.11321842 Z" id="Caminho_63"></path>
                <polygon id="Caminho_64" points="52.9532776 0.529144737 50.5333224 3.84864605 48.1098395 0.529144737 46.5188776 0.529144737 49.8489618 5.01981974 49.8489618 8.22996447 51.1506579 8.22996447 51.1506579 5.01981974 54.4807421 0.529144737"></polygon>
                <path d="M76.3344197,0.529144737 L76.3344197,5.13623158 C76.379859,5.71062343 76.1843323,6.2780342 75.7946921,6.7025 C74.7483362,7.37577907 73.4051348,7.37577907 72.3587789,6.7025 C71.9663277,6.27545604 71.7705943,5.70360754 71.8190513,5.12564868 L71.8190513,0.529144737 L70.5067724,0.529144737 L70.5067724,5.11506579 C70.5067724,7.30925263 71.7061671,8.42398421 74.0767355,8.42398421 C76.4473039,8.42398421 77.6466987,7.30925263 77.6466987,5.11506579 L77.6466987,0.529144737 L76.3344197,0.529144737 Z" id="Caminho_65"></path>
                <path d="M95.6905342,0.529144737 L95.6905342,5.13623158 C95.7377175,5.71084382 95.5419564,6.27893496 95.1508066,6.7025 C94.1068666,7.37963672 92.762361,7.37963672 91.7184211,6.7025 C91.3235452,6.27672721 91.1263293,5.7042888 91.1751658,5.12564868 L91.1751658,0.529144737 L89.8628868,0.529144737 L89.8628868,5.11506579 C89.8628868,7.30925263 91.0658092,8.42398421 93.43285,8.42398421 C95.7998908,8.42398421 97.0098684,7.30219737 97.0098684,5.10801053 L97.0098684,0.522089474 L95.6905342,0.529144737 Z" id="Caminho_66"></path>
                <path d="M104.770658,4.95632237 C105.659395,4.67448403 106.241544,3.82309097 106.181711,2.89265789 C106.181711,1.32286184 105.16928,0.529144737 103.172641,0.529144737 L99.5709289,0.529144737 L99.5709289,8.22996447 L100.862042,8.22996447 L100.862042,5.23853289 L103.454851,5.23853289 L105.126949,8.16646711 L105.16928,8.23701974 L106.679107,8.23701974 L104.770658,4.95632237 Z M104.812989,2.87501974 C104.812989,3.67931974 104.259151,4.05324868 103.049174,4.05324868 L100.833821,4.05324868 L100.833821,1.71795658 L103.070339,1.71795658 C103.53525,1.68241958 104.000825,1.77773421 104.414367,1.99311184 C104.685042,2.2003156 104.830264,2.53206142 104.798879,2.87149211 L104.812989,2.87501974 Z" id="Caminho_67"></path>
                <polygon id="Caminho_68" points="110.231432 7.05526316 110.231432 4.85402105 114.863212 4.85402105 114.863212 3.66520921 110.231432 3.66520921 110.231432 1.71442895 115.103091 1.71442895 115.103091 0.529144737 108.919153 0.529144737 108.919153 8.22996447 115.120729 8.22996447 115.353553 7.05526316"></polygon>
                <polygon id="Caminho_69" points="67.6105868 1.71442895 67.6105868 0.529144737 61.4266487 0.529144737 61.4266487 8.22996447 62.7354 8.22996447 62.7354 4.96690526 67.3777632 4.96690526 67.3777632 3.78162105 62.7354 3.78162105 62.7354 1.71442895"></polygon>
                <polygon id="Caminho_70" points="80.2465632 0.529144737 80.2465632 1.71442895 83.1815526 1.71442895 83.1815526 8.22996447 84.4938316 8.22996447 84.4938316 1.71442895 87.4288211 1.71442895 87.4288211 0.529144737"></polygon>
            </g>
            <g id="Grupo_4">
                <path d="M11.0062105,8.81907895 L2.95262763,12.8264684 C1.14275427,13.7321923 -0.00023859318,15.5825571 -3.73464593e-08,17.6064092 L8.05358289,13.5813816 C9.85778619,12.678508 10.9997848,10.8365747 11.0062105,8.81907895" id="Caminho_71" fill="url(#linearGradient-1)"></path>
                <path d="M11.0062105,15.4051671 L2.95262763,19.4301947 C1.14331175,20.3347167 0.00027184126,22.1837921 0,24.2066079 L8.05358289,20.1815803 C9.86232022,19.2764252 11.0051138,17.4277484 11.0062105,15.4051671" id="Caminho_72" fill="url(#linearGradient-2)"></path>
                <path d="M11.0062105,22.0053658 L2.95262763,26.0303934 C1.14331175,26.9349154 0.00027184126,28.7839907 0,30.8068066 L8.05358289,26.7817789 C9.86289877,25.8772569 11.0059387,24.0281816 11.0062105,22.0053658" id="Caminho_73" fill="url(#linearGradient-3)"></path>
                <path d="M22.5768421,-1.37137263e-15 L14.5197316,4.02502763 C12.705304,4.93302102 11.5615117,6.79014615 11.5670835,8.81907895 L19.6171592,4.77641316 C21.4297961,3.87449891 22.5760629,2.02462372 22.5768421,-1.37137263e-15" id="Caminho_74" fill="url(#linearGradient-4)"></path>
                <path d="M22.5768421,6.60372632 L14.5197316,10.6287539 C12.7104157,11.5332759 11.5673758,13.3823513 11.5671039,15.4051671 L19.6171592,11.3801395 C21.4292165,10.4775891 22.5752353,8.62811414 22.5768421,6.60372632" id="Caminho_75" fill="url(#linearGradient-5)"></path>
            </g>
        </g>
    </g>
</svg>