<?xml version="1.0" encoding="UTF-8"?>
<svg width="90px" height="36px" viewBox="0 0 90 36" version="1.1" xmlns="http://www.w3.org/2000/svg" xmlns:xlink="http://www.w3.org/1999/xlink">
    <!-- Generator: Sketch 60 (88103) - https://sketch.com -->
    <title>pd aneel</title>
    <desc>Created with Sketch.</desc>
    <g id="Page-1" stroke="none" stroke-width="1" fill="none" fill-rule="evenodd">
        <g id="pd-aneel" fill="#FFFFFF">
            <text id="P" font-family="Helvetica" font-size="27.61" font-weight="normal">
                <tspan x="0.8" y="27.04">P</tspan>
            </text>
            <text id="D" font-family="Helvetica" font-size="27.61" font-weight="normal">
                <tspan x="15.41" y="27.04">D</tspan>
            </text>
            <path d="M50.71,17.93 L52.47,12.65 L52.37,17.93 L50.71,17.93 Z M54.25,22.2 L54.1,10.33 L51.62,10.33 L47.33,22.2 L49.28,22.2 L50.16,19.55 L52.35,19.55 L52.35,22.2 L54.25,22.2 Z" id="Shape" fill-rule="nonzero"></path>
            <polygon id="Path" fill-rule="nonzero" points="57.53 22.2 58.89 14.48 60.16 22.2 61.99 22.2 64.08 10.33 62.28 10.33 60.99 17.67 59.76 10.33 57.82 10.33 55.74 22.2"></polygon>
            <polygon id="Path" fill-rule="nonzero" points="69.45 22.2 69.76 20.47 66.47 20.47 67.08 17.04 69.79 17.04 70.1 15.31 67.38 15.31 67.94 12.06 71.18 12.06 71.49 10.33 66.28 10.33 64.2 22.2"></polygon>
            <polygon id="Path" fill-rule="nonzero" points="76.61 22.2 76.91 20.47 73.62 20.47 74.23 17.04 76.94 17.04 77.25 15.31 74.54 15.31 75.1 12.06 78.33 12.06 78.64 10.33 73.44 10.33 71.35 22.2"></polygon>
            <polygon id="Path" fill-rule="nonzero" points="83.81 20.43 80.78 20.43 82.56 10.33 80.59 10.33 78.5 22.2 83.5 22.2"></polygon>
            <text id="&amp;" font-family="Helvetica" font-size="11.62" font-weight="normal">
                <tspan x="10.64" y="26.72">&amp;</tspan>
            </text>
            <rect id="Rectangle" fill-rule="nonzero" x="40.09" y="5.73" width="1" height="22.09"></rect>
            <rect id="Rectangle" fill-rule="nonzero" x="0" y="0" width="90" height="2.45"></rect>
            <rect id="Rectangle" fill-rule="nonzero" x="0" y="33.55" width="90" height="2.45"></rect>
        </g>
    </g>
</svg>