<?xml version="1.0" encoding="UTF-8"?>
<svg width="902px" height="340px" viewBox="0 0 902 340" version="1.1" xmlns="http://www.w3.org/2000/svg" xmlns:xlink="http://www.w3.org/1999/xlink">
    <!-- Generator: Sketch 59.1 (86144) - https://sketch.com -->
    <title>img-logo-light</title>
    <desc>Created with Sketch.</desc>
    <g id="Page-1" stroke="none" stroke-width="1" fill="none" fill-rule="evenodd">
        <g id="img-logo-light" fill="#029389">
            <polygon id="Path" points="409.4 222.1 409.4 82.9 369.9 82.9 369.9 257.1 479.3 257.1 479.3 222.1"></polygon>
            <rect id="Rectangle" x="496.1" y="131.5" width="39.5" height="125.6"></rect>
            <rect id="Rectangle" x="496.1" y="82.9" width="39.5" height="34.5"></rect>
            <polygon id="Path" points="902 114.7 879.2 114.7 879.2 82.9 839.7 82.9 839.7 114.7 816.9 114.7 816.9 141.1 839.7 141.1 839.7 257.1 879.2 257.1 879.2 141.1 902 141.1"></polygon>
            <path d="M612,201.9 C599.5,201.9 589.1,191.6 589.1,179.3 C589.1,166.5 598.9,156.4 612,156.4 C625.6,156.4 634.6,166.5 634.6,177.9 C634.6,191 624.5,201.9 612,201.9 Z M765.6,131.7 L733.4,131.7 L733.4,82.9 L693.9,82.9 L693.9,131.7 L608.5,131.7 C563.3,131.7 552.5,161.9 552.4,177.4 C552.4,216.3 602.7,220.4 603.4,220.6 L605.2,220.7 L575.5,256.1 L576.7,256.1 C583.8,256 594.5,255.9 607.2,256.2 C636.3,256.7 643.6,264.3 643.6,273.3 C643.6,281.7 632.7,289.1 615.3,289.1 C594.4,289.1 582.9,283.9 582.9,274.4 L582.9,273.4 L546.6,273.3 C546.5,274.2 546.5,275.2 546.5,276.1 C546.5,292.7 560.6,312.6 613.4,312.6 C653.9,312.6 679.8,299.5 679.8,270.4 C679.8,264.1 677.9,254.3 669.7,246.2 C665.5,242 655.2,233.5 622.5,232.2 C621.4,232.2 620.3,232.1 619.4,232.1 C619.4,232.1 624.7,229 627.4,227.4 C638.1,221 650,216.1 659.9,206.7 C666.9,200.1 671.3,190.4 671.3,179.2 C671.3,171.9 669.4,165.9 665,158.2 L693.8,158.2 L693.8,257.2 L733.3,257.2 L733.3,158 L751.2,158 C763.4,158 771.6,165.4 771.6,184.2 L771.6,257.1 L811.1,257.1 L811.1,175.8 C811.1,141.7 788.4,131.7 765.6,131.7 Z" id="Shape"></path>
            <path d="M208.1,42.3 L210,39.2 L229.7,6.8 L219.6,0.6 L192.7,32.7 L189.4,36.6 L186.4,40.1 L174.6,54.2 L83.1,163.2 L134.5,163.2 L231.4,163.2 L254,136.3 L150.8,136.3 L196.7,60.9 C213,67.7 227.4,78 239,90.8 C239.8,91.7 240.5,92.5 241.3,93.4 C244.1,96.7 246.7,100.1 249.1,103.6 C251.5,107.1 253.7,110.8 255.8,114.6 C256.5,115.9 257.1,117.2 257.8,118.4 C259.7,122.3 261.4,126.3 262.8,130.4 C263.9,133.5 264.9,136.6 265.7,139.8 C266.5,143 267.2,146.2 267.8,149.5 C268.4,152.8 268.8,156.1 269.1,159.5 C269.4,162.9 269.5,166.3 269.5,169.8 C269.5,174.4 269.2,178.9 268.7,183.4 C268.6,184.5 268.4,185.6 268.3,186.7 C267.7,191.1 266.8,195.4 265.7,199.7 C264.9,202.9 263.9,206 262.8,209.1 C261.4,213.2 259.7,217.2 257.8,221 C256.1,224.4 254.3,227.8 252.3,231 C249.3,235.9 246,240.5 242.4,244.9 C240,247.8 237.5,250.6 234.8,253.3 C230.8,257.3 226.5,261 222,264.4 C217.5,267.8 212.7,270.9 207.6,273.6 C205.9,274.5 204.2,275.4 202.5,276.2 C200.6,277.1 198.6,278 196.6,278.8 C193.6,280 190.6,281.2 187.5,282.2 C183.4,283.5 179.1,284.6 174.8,285.5 C171.6,286.2 168.3,286.7 164.9,287.1 C160.5,287.6 155.9,287.9 151.4,287.9 C150.7,287.9 150,287.9 149.3,287.9 L136.6,303 L133.6,306.6 C139.4,307.2 145.4,307.6 151.4,307.6 C235,307.6 302.8,246 302.8,169.9 C302.8,112.2 263.6,62.7 208.1,42.3 Z" id="Path"></path>
            <path d="M168.4,176.7 L71.5,176.7 L48.9,203.6 L152,203.6 L106.1,279 C96.1,274.8 86.8,269.3 78.4,262.7 C75.6,260.5 72.9,258.2 70.3,255.7 C68.2,253.7 66.2,251.7 64.3,249.6 C58.5,243.3 53.4,236.4 49.1,228.9 C47,225.2 45,221.3 43.3,217.4 C40.1,210.1 37.6,202.5 35.9,194.5 C35.5,192.5 35.1,190.5 34.8,188.5 C34.5,186.5 34.2,184.4 34,182.4 C33.6,178.3 33.3,174.1 33.3,169.9 C33.3,164.8 33.6,159.8 34.2,154.9 C34.4,153.7 34.5,152.4 34.7,151.2 C35.1,148.8 35.6,146.4 36.1,144 C37.2,139.2 38.5,134.6 40.2,130 C42.2,124.3 44.7,118.9 47.5,113.6 C49.3,110.3 51.3,107 53.4,103.9 C57.6,97.6 62.5,91.8 67.8,86.4 C89.2,65 118.7,51.8 151.3,51.8 C152,51.8 152.7,51.8 153.4,51.8 L169.1,33.1 C163.3,32.5 157.3,32.1 151.3,32.1 C67.8,32.3 0,93.9 0,170 C0,227.8 39.2,277.3 94.8,297.7 L92.9,300.8 L73.2,333.2 L83.3,339.4 L110.2,307.3 L113.5,303.4 L116.5,299.9 L128.3,285.8 L219.8,176.8 L168.4,176.8 L168.4,176.7 L168.4,176.7 Z" id="Path"></path>
        </g>
    </g>
</svg>