<?xml version="1.0" encoding="UTF-8"?>
<svg width="627px" height="65px" viewBox="0 0 627 65" version="1.1" xmlns="http://www.w3.org/2000/svg" xmlns:xlink="http://www.w3.org/1999/xlink">
    <!-- Generator: Sketch 59.1 (86144) - https://sketch.com -->
    <title>Marca Horizontal</title>
    <desc>Created with Sketch.</desc>
    <g id="Page-1" stroke="none" stroke-width="1" fill="none" fill-rule="evenodd">
        <g id="Marca-Horizontal" fill="#262730" fill-rule="nonzero">
            <path d="M161.75,12.52 L161.75,17.36 C164.08,14.14 166.83,12.26 170.01,11.75 C170.866731,11.6153297 171.732751,11.5484556 172.6,11.55 C174.580466,11.5449081 176.515813,12.1412039 178.15,13.26 C179.591585,14.349616 180.671783,15.8479556 181.25,17.56 C184.21,13.5133333 187.876667,11.49 192.25,11.49 C195.816667,11.49 198.44,12.49 200.12,14.49 C201.8,16.49 202.63,19.66 202.610353,24 L202.610353,46.09 L195.25,46.09 L195.25,26 C195.271059,24.6363047 195.163921,23.2736478 194.93,21.93 C194.775667,21.0295549 194.457033,20.1651752 193.99,19.38 C193.633972,18.7550291 193.077184,18.2687198 192.41,18 C191.705489,17.7585442 190.964674,17.6401492 190.22,17.65 C189.040825,17.6233375 187.87112,17.866171 186.8,18.36 C185.847228,18.8004516 184.998593,19.4377804 184.31,20.23 C183.644757,20.9974219 183.129195,21.8826959 182.79,22.84 C182.450949,23.8038027 182.278484,24.8183009 182.28,25.84 L182.28,46.09 L174.92,46.09 L174.92,25.24 C174.92,22.36 174.48,20.38 173.6,19.3 C172.715334,18.2331354 171.384972,17.6381676 170,17.69 C169.210168,17.7146502 168.428346,17.8561869 167.68,18.11 C165.619619,18.7573386 163.900415,20.1960026 162.9,22.11 C162.273131,23.3086824 161.963311,24.6477953 162,26 L162,46.09 L154.7,46.09 L154.7,12.52 L161.75,12.52 Z" id="Path"></path>
            <path d="M229.72,41.7 C228.441955,43.2234336 226.888152,44.4922595 225.14,45.44 C223.104084,46.4843166 220.837155,46.9968695 218.55,46.93 C217.044418,46.9407005 215.545319,46.7318373 214.1,46.31 C212.796392,45.9403024 211.579413,45.314816 210.52,44.47 C209.484893,43.6324162 208.665381,42.5591636 208.13,41.34 C207.520903,39.9266999 207.224142,38.398548 207.26,36.86 C207.162976,34.8597885 207.705911,32.8807026 208.81,31.21 C209.840613,29.7648868 211.215456,28.5997077 212.81,27.82 C214.571825,26.968551 216.453627,26.3918696 218.39,26.11 C220.443265,25.7879836 222.513349,25.584314 224.59,25.5 L229.59,25.24 L229.59,23.82 C229.59,21.28 228.976667,19.5266667 227.75,18.56 C226.359927,17.5402984 224.662047,17.0284633 222.94,17.11 C221.174967,16.9778 219.411187,17.3821447 217.88,18.27 C216.760533,19.0734799 215.985558,20.2698685 215.71,21.62 L209,20.91 C209.382786,17.993778 211.004603,15.384292 213.45,13.75 C215.823333,12.2366667 219.073333,11.4833333 223.2,11.49 C225.449545,11.4106334 227.694269,11.7497155 229.82,12.49 C231.428198,13.0882694 232.863955,14.0740644 234,15.36 C235.04581,16.6012549 235.785653,18.0706659 236.16,19.65 C236.586518,21.4382636 236.794703,23.2716343 236.78,25.11 L236.78,46.11 L229.78,46.11 L229.72,41.7 Z M224.88,30.4 C223.085611,30.4760542 221.301728,30.7136821 219.55,31.11 C218.433151,31.3551905 217.371726,31.8062115 216.42,32.44 C215.763028,32.8997796 215.266474,33.5536923 215,34.31 C214.758573,35.0489821 214.640328,35.8226403 214.65,36.6 C214.577038,37.8768883 215.071003,39.1209483 216,40 C217.168959,40.9001403 218.62859,41.3380295 220.1,41.23 C223.333333,41.23 225.723333,40.41 227.27,38.77 C228.889041,36.9454335 229.722747,34.5557165 229.59,32.12 L229.59,30.21 L224.88,30.4 Z" id="Shape"></path>
            <polygon id="Path" points="250.7 0 250.7 25.5 265.03 12.5 273.61 12.5 261.48 24 274.71 46.14 266.64 46.14 256.18 28.14 250.7 33.05 250.7 46.05 243.53 46.05 243.53 0"></polygon>
            <path d="M305.63,36.15 C305.201788,39.3104975 303.611768,42.1982017 301.17,44.25 C298.81,46.1566667 295.41,47.1133333 290.97,47.12 C285.636667,47.12 281.583333,45.58 278.81,42.5 C276.036667,39.42 274.646667,35.0866667 274.64,29.5 C274.59665,26.8901288 275.002569,24.2922492 275.84,21.82 C276.54772,19.7224092 277.689143,17.7973237 279.19,16.17 C280.635306,14.6401466 282.400693,13.4484253 284.36,12.68 C286.477449,11.8644371 288.731109,11.4605431 291,11.49 C293.29653,11.4399818 295.580298,11.844399 297.72,12.68 C299.513537,13.4138947 301.114658,14.5497327 302.4,16 C303.681872,17.5020104 304.626474,19.2616292 305.17,21.16 C305.801775,23.3328818 306.108432,25.5873142 306.08,27.85 L306.08,31.07 L282,31.07 C281.959426,33.7325007 282.776321,36.3374467 284.33,38.5 C285.79,40.3933333 288.003333,41.3366667 290.97,41.33 C292.811842,41.470223 294.648896,41.0030564 296.2,40 C297.40835,39.0247928 298.233528,37.654219 298.53,36.13 L305.63,36.15 Z M298.91,26 C299.043829,23.6745881 298.368993,21.3744916 297,19.49 C295.7,17.9 293.64,17.11 290.8,17.11 C288.475627,16.9502127 286.20152,17.837848 284.6,19.53 C283.090064,21.3578156 282.222261,23.63097 282.13,26 L298.91,26 Z" id="Shape"></path>
            <path d="M345.38,41.7 C344.106421,43.2279516 342.551687,44.497538 340.8,45.44 C338.767669,46.4843129 336.503962,46.9969153 334.22,46.93 C332.711182,46.9399696 331.208889,46.7311307 329.76,46.31 C328.45727,45.9380779 327.240711,45.3128071 326.18,44.47 C325.150366,43.6271111 324.33194,42.5552818 323.79,41.34 C323.180903,39.9266999 322.884142,38.398548 322.92,36.86 C322.827837,34.8603266 323.370366,32.8827204 324.47,31.21 C325.501548,29.7657473 326.876151,28.6007715 328.47,27.82 C330.230836,26.9660332 332.113035,26.3892303 334.05,26.11 C336.103265,25.7879836 338.173349,25.584314 340.25,25.5 L345.25,25.24 L345.25,23.82 C345.25,21.28 344.63,19.53 343.41,18.56 C342.019927,17.5402984 340.322047,17.0284633 338.6,17.11 C336.831868,16.9788919 335.065215,17.3830965 333.53,18.27 C332.409879,19.0710602 331.637396,20.2691231 331.37,21.62 L324.66,20.91 C325.03773,17.9919733 326.660747,15.3805576 329.11,13.75 C331.483333,12.2366667 334.733333,11.4833333 338.86,11.49 C341.106272,11.4107134 343.347703,11.7498104 345.47,12.49 C347.070718,13.0826032 348.502279,14.0575751 349.64,15.33 C350.68581,16.5712549 351.425653,18.0406659 351.8,19.62 C352.223055,21.4086923 352.427881,23.2420456 352.41,25.08 L352.41,46.08 L345.41,46.08 L345.38,41.7 Z M340.54,30.4 C338.748902,30.4759483 336.968329,30.7135811 335.22,31.11 C334.102505,31.3531614 333.040714,31.8043376 332.09,32.44 C331.418989,32.8920853 330.910744,33.5475471 330.64,34.31 C330.395179,35.0484137 330.273554,35.8220858 330.28,36.6 C330.214449,37.8836846 330.723927,39.129891 331.67,40 C332.838959,40.9001403 334.29859,41.3380295 335.77,41.23 C338.99,41.23 341.376667,40.41 342.93,38.77 C344.552657,36.9469938 345.390018,34.5571014 345.26,32.12 L345.26,30.21 L340.54,30.4 Z" id="Shape"></path>
            <path d="M379.59,0 L379.59,16.91 C380.820027,15.2558502 382.396846,13.8906384 384.21,12.91 C386.096623,11.9480368 388.192866,11.4703684 390.31,11.52 C392.467711,11.4672864 394.608919,11.9085257 396.57,12.81 C398.311531,13.632182 399.830631,14.8598069 401,16.39 C402.207543,18.078442 403.079975,19.9828558 403.57,22 C404.172473,24.3518415 404.464951,26.7723447 404.44,29.2 C404.48404,31.7195395 404.146897,34.2312574 403.44,36.65 C402.824242,38.7135068 401.804486,40.6340477 400.44,42.3 C399.179466,43.8242225 397.594142,45.0473817 395.8,45.88 C393.893448,46.7397396 391.82122,47.169889 389.73,47.14 C387.796906,47.1640618 385.880924,46.7754108 384.11,46 C382.248862,45.1073236 380.632496,43.7757954 379.4,42.12 L379.4,46.12 L372.3,46.12 L372.3,0 L379.59,0 Z M379.53,30.4 C379.512442,32.1987862 379.785974,33.9885691 380.34,35.7 C380.742413,36.924249 381.40026,38.0490665 382.27,39 C383.015737,39.7868192 383.958283,40.3599426 385,40.66 C386.044891,40.9707595 387.129892,41.1257596 388.22,41.12 C389.372137,41.1295349 390.514543,40.9085336 391.58,40.47 C392.63126,40.0313806 393.560973,39.345245 394.29,38.47 C395.143636,37.3943697 395.760433,36.1505523 396.1,34.82 C396.564984,33.0077595 396.780307,31.1405083 396.74,29.27 C396.77889,27.4503664 396.5532,25.6347356 396.07,23.88 C395.702464,22.5779231 395.099142,21.3543319 394.29,20.27 C393.6039,19.3925663 392.705683,18.7042777 391.68,18.27 C390.690888,17.8465355 389.625947,17.6287839 388.55,17.63 C387.144399,17.5955779 385.747337,17.8579529 384.45,18.4 C383.345528,18.8891972 382.379929,19.6451825 381.64,20.6 C380.876109,21.6073749 380.328041,22.761381 380.03,23.99 C379.668103,25.4111923 379.493293,26.8735493 379.51,28.34 L379.51,30.4 L379.53,30.4 Z" id="Shape"></path>
            <path d="M417.42,12.52 L417.42,33.63 C417.42,36.43 417.883333,38.3433333 418.81,39.37 C419.91379,40.4729892 421.444124,41.0391033 423,40.92 C424.06967,40.9159039 425.129883,40.7194428 426.13,40.34 C427.187841,39.9741923 428.163126,39.4032935 429,38.66 C429.833124,37.911666 430.512449,37.0081637 431,36 C431.530997,34.9142498 431.798242,33.7185028 431.78,32.51 L431.78,12.51 L439.14,12.51 L439.14,46.09 L431.97,46.09 L431.97,41.18 C430.660052,43.0396123 428.951942,44.5837438 426.97,45.7 C425.183245,46.6441151 423.190817,47.1319164 421.17,47.1202132 C417.25,47.1202132 414.44,46.12 412.74,44.12 C411.04,42.12 410.19,39 410.19,34.82 L410.19,12.52 L417.42,12.52 Z" id="Path"></path>
            <path d="M451.17,35.82 C451.248904,36.7962791 451.560978,37.7393599 452.08,38.57 C452.534592,39.2652806 453.139462,39.8496465 453.85,40.28 C454.615371,40.7295003 455.461234,41.0250427 456.34,41.15 C457.332781,41.3010273 458.335808,41.3745826 459.34,41.37 C461.8,41.37 463.563333,41.0066667 464.63,40.28 C465.702454,39.564914 466.318218,38.3371873 466.25,37.05 C466.276271,36.0127257 465.920373,35.0019772 465.25,34.21 C464.58,33.44 463.25,32.88 461.15,32.53 C458.48,32.06 456.15,31.61 454.15,31.18 C452.356728,30.837185 450.622229,30.2376882 449,29.4 C447.753993,28.7253527 446.716485,27.7224283 446,26.5 C445.25335,25.0111539 444.908634,23.3530697 445,21.69 C444.97094,20.2181947 445.31496,18.7629874 446,17.46 C446.695868,16.1771789 447.677934,15.0719272 448.87,14.23 C450.204348,13.3103844 451.690449,12.6333451 453.26,12.23 C455.079485,11.7428521 456.956497,11.5040208 458.84,11.52 C461.01883,11.4715758 463.193596,11.7307971 465.3,12.29 C466.826372,12.7092554 468.251798,13.4338755 469.49,14.42 C470.518397,15.2667876 471.353754,16.3237699 471.94,17.52 C472.504757,18.6951909 472.937403,19.9294055 473.23,21.2 L466.65,22.11 C466.271126,20.6479982 465.450483,19.3384601 464.3,18.36 C463.24,17.55 461.49,17.14 459.03,17.14 C457.858117,17.1078271 456.687323,17.2356725 455.55,17.52 C454.777577,17.7258831 454.046737,18.0642351 453.39,18.52 C452.908794,18.8374077 452.527392,19.2846884 452.29,19.81 C452.103841,20.2605631 452.005412,20.7425239 452,21.23 C451.983532,21.8437042 452.071449,22.455746 452.26,23.04 C452.435006,23.517851 452.761642,23.925268 453.19,24.2 C453.76075,24.5507956 454.381024,24.8137375 455.03,24.98 C455.81,25.19 456.77,25.41 457.94,25.62 L462.13,26.33 C464.040738,26.6277936 465.914536,27.1272495 467.72,27.82 C469.0172,28.3124126 470.206019,29.0528774 471.22,30 C472.080264,30.8534775 472.712874,31.9089741 473.06,33.07 C473.413443,34.3291277 473.585178,35.6322944 473.57,36.94 C473.659025,39.8182057 472.365432,42.5652327 470.09,44.33 C467.763333,46.1966667 464.233333,47.1333333 459.5,47.1402647 C457.626073,47.1482436 455.756257,46.9639427 453.92,46.59 C452.221797,46.2612864 450.594024,45.6386041 449.11,44.75 C447.697095,43.896978 446.513022,42.7129053 445.66,41.3 C444.708117,39.6343246 444.185751,37.757932 444.14,35.84 L451.17,35.82 Z" id="Path"></path>
            <path d="M486.61,0 L486.61,7.29 L479,7.29 L479,0 L486.61,0 Z M486.48,12.52 L486.48,46.09 L479.12,46.09 L479.12,12.52 L486.48,12.52 Z" id="Shape"></path>
            <path d="M500.74,12.52 L500.74,17.43 C502.047146,15.5421525 503.785089,13.9927435 505.81,12.91 C507.668936,11.9671276 509.725639,11.4803745 511.81,11.48986 C519.29,11.48986 523.033333,15.62 523.04,23.88 L523.04,46.09 L515.68,46.09 L515.68,25 C515.68,22.2866667 515.183333,20.3833333 514.19,19.29 C513.037613,18.1329377 511.43893,17.5343443 509.81,17.65 C508.580949,17.6354512 507.361067,17.8631172 506.22,18.32 C505.176028,18.7456712 504.22498,19.3706452 503.42,20.16 C502.646091,20.9317595 502.022186,21.8404902 501.58,22.84 C501.124637,23.8449564 500.892638,24.9367146 500.9,26.04 L500.9,46.04 L493.6,46.04 L493.6,12.52 L500.74,12.52 Z" id="Path"></path>
            <path d="M559.68,36.15 C559.251788,39.3104975 557.661768,42.1982017 555.22,44.25 C552.86,46.1566667 549.46,47.1133333 545.02,47.12 C539.686667,47.12 535.633333,45.58 532.86,42.5 C530.086667,39.42 528.696667,35.0866667 528.69,29.5 C528.64665,26.8901288 529.052569,24.2922492 529.89,21.82 C530.59772,19.7224092 531.739143,17.7973237 533.24,16.17 C534.685306,14.6401466 536.450693,13.4484253 538.41,12.68 C540.511793,11.8706797 542.74789,11.4668927 545,11.49 C547.29653,11.4399818 549.580298,11.844399 551.72,12.68 C553.531537,13.4072068 555.150374,14.5434729 556.45,16 C557.731872,17.5020104 558.676474,19.2616292 559.22,21.16 C559.851775,23.3328818 560.158432,25.5873142 560.13,27.85 L560.13,31.07 L536.05,31.07 C536.009426,33.7325007 536.826321,36.3374467 538.38,38.5 C539.84,40.3933333 542.053333,41.3366667 545.02,41.33 C546.861842,41.470223 548.698896,41.0030564 550.25,40 C551.45835,39.0247928 552.283528,37.654219 552.58,36.13 L559.68,36.15 Z M553,26 C553.107936,23.6637927 552.400977,21.3626395 551,19.49 C549.713333,17.8966667 547.646667,17.1033333 544.8,17.11 C542.475627,16.9502127 540.20152,17.837848 538.6,19.53 C537.108073,21.3643208 536.25807,23.6368486 536.18,26 L553,26 Z" id="Shape"></path>
            <path d="M571,35.82 C571.071165,36.7963617 571.380149,37.740481 571.9,38.57 C572.354592,39.2652806 572.959462,39.8496465 573.67,40.28 C574.435371,40.7295003 575.281234,41.0250427 576.16,41.15 C577.152821,41.3006672 578.15582,41.3742205 579.16,41.37 C581.62,41.37 583.383333,41.0066667 584.45,40.28 C585.522454,39.564914 586.138218,38.3371873 586.07,37.05 C586.096271,36.0127257 585.740373,35.0019772 585.07,34.21 C584.4,33.44 583.07,32.88 580.97,32.53 C578.3,32.06 575.97,31.61 573.97,31.18 C572.193903,30.8325831 570.476551,30.2331937 568.87,29.4 C567.590891,28.7387415 566.520993,27.7346306 565.78,26.5 C565.03335,25.0111539 564.688634,23.3530697 564.78,21.69 C564.75094,20.2181947 565.09496,18.7629874 565.78,17.46 C566.475868,16.1771789 567.457934,15.0719272 568.65,14.23 C569.984348,13.3103844 571.470449,12.6333451 573.04,12.23 C574.859485,11.7428521 576.736497,11.5040208 578.62,11.52 C580.79883,11.4715758 582.973596,11.7307971 585.08,12.29 C586.606372,12.7092554 588.031798,13.4338755 589.27,14.42 C590.298397,15.2667876 591.133754,16.3237699 591.72,17.52 C592.28363,18.6966715 592.719454,19.9303912 593.02,21.2 L586.43,22.11 C586.055404,20.6461596 585.234002,19.3354122 584.08,18.36 C583.02,17.5533333 581.266667,17.1466667 578.82,17.14 C577.644796,17.1072899 576.470626,17.2351365 575.33,17.52 C574.558191,17.7275784 573.827632,18.0658004 573.17,18.52 C572.688794,18.8374077 572.307392,19.2846884 572.07,19.81 C571.883841,20.2605631 571.785412,20.7425239 571.78,21.23 C571.763532,21.8437042 571.851449,22.455746 572.04,23.04 C572.215006,23.517851 572.541642,23.925268 572.97,24.2 C573.541638,24.549071 574.161646,24.8119005 574.81,24.98 C575.59,25.19 576.56,25.41 577.72,25.62 L581.91,26.33 C583.820738,26.6277936 585.694536,27.1272495 587.5,27.82 C588.825614,28.3030643 590.042376,29.0439978 591.08,30 C591.940264,30.8534775 592.572874,31.9089741 592.92,33.07 C593.273443,34.3291277 593.445178,35.6322944 593.43,36.94 C593.524462,39.8024858 592.250872,42.5390332 590,44.31 C587.666667,46.1766667 584.136667,47.1133333 579.41,47.1202647 C577.536073,47.1282436 575.666257,46.9439427 573.83,46.57 C572.124877,46.2435206 570.490155,45.6207693 569,44.73 C567.587095,43.876978 566.403022,42.6929053 565.55,41.28 C564.587626,39.6170874 564.054903,37.7405281 564,35.82 L571,35.82 Z" id="Path"></path>
            <path d="M604,35.82 C604.078904,36.7962791 604.390978,37.7393599 604.91,38.57 C605.364592,39.2652806 605.969462,39.8496465 606.68,40.28 C607.445371,40.7295003 608.291234,41.0250427 609.17,41.15 C610.16274,41.3013908 611.165795,41.3749482 612.17,41.37 C614.62,41.37 616.39,41.01 617.46,40.28 C618.532454,39.564914 619.148218,38.3371873 619.08,37.05 C619.106271,36.0127257 618.750373,35.0019772 618.08,34.21 C617.41,33.44 616.08,32.88 613.98,32.53 C611.313333,32.0633333 608.98,31.6133333 606.98,31.18 C605.203903,30.8325831 603.486551,30.2331937 601.88,29.4 C600.59813,28.7389478 599.524948,27.735003 598.78,26.5 C598.038577,25.0093398 597.69415,23.3526504 597.78,21.69 C597.755242,20.2186565 598.099014,18.7645009 598.78,17.46 C599.482807,16.1789848 600.467619,15.0744912 601.66,14.23 C602.993305,13.3085448 604.479745,12.6313509 606.05,12.23 C607.869485,11.7428521 609.746497,11.5040208 611.63,11.52 C613.805601,11.4702374 615.977254,11.729489 618.08,12.29 C619.608499,12.7116114 621.036745,13.4359361 622.28,14.42 C623.305554,15.2695702 624.14039,16.3258931 624.73,17.52 C625.285809,18.6864514 625.7117,19.9104702 626,21.17 L619.42,22.08 C619.025839,20.6074638 618.179383,19.2958064 617,18.33 C615.953333,17.5233333 614.2,17.1166667 611.74,17.11 C610.568117,17.0778271 609.397323,17.2056725 608.26,17.49 C607.486878,17.6939446 606.755711,18.0324474 606.1,18.49 C605.618794,18.8074077 605.237392,19.2546884 605,19.78 C604.809126,20.229109 604.710505,20.7120129 604.71,21.2 C604.699272,21.8124419 604.797466,22.421917 605,23 C605.175006,23.477851 605.501642,23.885268 605.93,24.16 C606.50075,24.5107956 607.121024,24.7737375 607.77,24.94 C608.55,25.15 609.51,25.37 610.68,25.58 L614.87,26.29 C616.777797,26.586333 618.648433,27.0858398 620.45,27.78 C621.770615,28.2736762 622.978041,29.028743 624,30 C624.867212,30.8480128 625.500969,31.9054229 625.84,33.07 C626.20179,34.3276008 626.376991,35.6315035 626.36,36.94 C626.449025,39.8182057 625.155432,42.5652327 622.88,44.33 C620.546667,46.1966667 617.016667,47.1333333 612.29,47.1402647 C610.416073,47.1482436 608.546257,46.9639427 606.71,46.59 C605.011797,46.2612864 603.384024,45.6386041 601.9,44.75 C600.486401,43.8944759 599.299612,42.711117 598.44,41.3 C597.496244,39.6314863 596.977658,37.7563357 596.93,35.84 L604,35.82 Z" id="Path"></path>
            <rect id="Rectangle" transform="translate(105.278328, 16.666732) rotate(135.000000) translate(-105.278328, -16.666732) " x="103.218328" y="-2.17326812" width="4.12" height="37.68"></rect>
            <rect id="Rectangle" transform="translate(98.608328, 23.343927) rotate(135.000000) translate(-98.608328, -23.343927) " x="96.548328" y="4.50392742" width="4.12" height="37.68"></rect>
            <rect id="Rectangle" transform="translate(91.938328, 30.011123) rotate(135.000000) translate(-91.938328, -30.011123) " x="89.878328" y="11.171123" width="4.12" height="37.68"></rect>
            <rect id="Rectangle" transform="translate(85.268328, 36.678318) rotate(135.000000) translate(-85.268328, -36.678318) " x="83.208328" y="17.8383185" width="4.12" height="37.68"></rect>
            <rect id="Rectangle" transform="translate(78.598328, 43.345514) rotate(135.000000) translate(-78.598328, -43.345514) " x="76.538328" y="24.505514" width="4.12" height="37.68"></rect>
            <rect id="Rectangle" transform="translate(71.928328, 50.012710) rotate(135.000000) translate(-71.928328, -50.012710) " x="69.868328" y="31.1727096" width="4.12" height="37.68"></rect>
            <polygon id="Path" points="28.54 0 0 28.54 2.91 31.45 34.36 0"></polygon>
            <polygon id="Path" points="41.88 0 6.67 35.21 9.58 38.12 47.7 0"></polygon>
            <polygon id="Path" points="55.22 0 13.34 41.88 16.25 44.79 61.04 0"></polygon>
            <polygon id="Path" points="68.55 0 20.01 48.55 22.92 51.46 74.38 0"></polygon>
            <polygon id="Path" points="81.89 0 26.68 55.22 29.59 58.13 87.71 0"></polygon>
            <rect id="Rectangle" transform="translate(64.818995, 33.326743) rotate(-45.000000) translate(-64.818995, -33.326743) " x="22.373995" y="31.266743" width="84.89" height="4.12"></rect>
        </g>
    </g>
</svg>