<svg width="1137px" height="236px" viewBox="0 0 1137 236" version="1.1" xmlns="http://www.w3.org/2000/svg" xmlns:xlink="http://www.w3.org/1999/xlink">
    <!-- Generator: Sketch 59.1 (86144) - https://sketch.com -->
    <title>img-graphism-bg</title>
    <desc>Created with Sketch.</desc>
    <defs>
        <linearGradient x1="36.5073541%" y1="46.0392568%" x2="63.7385864%" y2="54.1385328%" id="linearGradient-1">
            <stop stop-color="#3BD4AE" offset="0%"></stop>
            <stop stop-color="#3BD4AE" offset="26%"></stop>
            <stop stop-color="#DCE3EB" offset="68%"></stop>
            <stop stop-color="#DCE3EB" offset="100%"></stop>
        </linearGradient>
        <linearGradient x1="20.0595131%" y1="39.1801151%" x2="66.8533184%" y2="39.1801151%" id="linearGradient-2">
            <stop stop-color="#3BD4AE" offset="0%"></stop>
            <stop stop-color="#3BD4AE" offset="26%"></stop>
            <stop stop-color="#DCE3EB" offset="68%"></stop>
            <stop stop-color="#DCE3EB" offset="100%"></stop>
        </linearGradient>
        <linearGradient x1="23.2420136%" y1="40.2466727%" x2="71.2626149%" y2="40.2466727%" id="linearGradient-3">
            <stop stop-color="#3BD4AE" offset="0%"></stop>
            <stop stop-color="#3BD4AE" offset="26%"></stop>
            <stop stop-color="#DCE3EB" offset="68%"></stop>
            <stop stop-color="#DCE3EB" offset="100%"></stop>
        </linearGradient>
        <linearGradient x1="24.9791451%" y1="41.0361835%" x2="74.7713753%" y2="41.0361835%" id="linearGradient-4">
            <stop stop-color="#3BD4AE" offset="0%"></stop>
            <stop stop-color="#3BD4AE" offset="26%"></stop>
            <stop stop-color="#DCE3EB" offset="68%"></stop>
            <stop stop-color="#DCE3EB" offset="100%"></stop>
        </linearGradient>
        <linearGradient x1="25.8912147%" y1="41.2646392%" x2="77.1531852%" y2="41.2646392%" id="linearGradient-5">
            <stop stop-color="#3BD4AE" offset="0%"></stop>
            <stop stop-color="#3BD4AE" offset="26%"></stop>
            <stop stop-color="#DCE3EB" offset="68%"></stop>
            <stop stop-color="#DCE3EB" offset="100%"></stop>
        </linearGradient>
        <linearGradient x1="26.7742229%" y1="41.1306613%" x2="79.1306422%" y2="41.1306613%" id="linearGradient-6">
            <stop stop-color="#3BD4AE" offset="0%"></stop>
            <stop stop-color="#3BD4AE" offset="26%"></stop>
            <stop stop-color="#DCE3EB" offset="68%"></stop>
            <stop stop-color="#DCE3EB" offset="100%"></stop>
        </linearGradient>
        <linearGradient x1="27.4411296%" y1="40.4930232%" x2="80.5185707%" y2="40.4930232%" id="linearGradient-7">
            <stop stop-color="#3BD4AE" offset="0%"></stop>
            <stop stop-color="#3BD4AE" offset="26%"></stop>
            <stop stop-color="#DCE3EB" offset="68%"></stop>
            <stop stop-color="#DCE3EB" offset="100%"></stop>
        </linearGradient>
        <linearGradient x1="27.7813784%" y1="38.7502396%" x2="80.4163025%" y2="38.7502396%" id="linearGradient-8">
            <stop stop-color="#3BD4AE" offset="0%"></stop>
            <stop stop-color="#3BD4AE" offset="26%"></stop>
            <stop stop-color="#DCE3EB" offset="68%"></stop>
            <stop stop-color="#DCE3EB" offset="100%"></stop>
        </linearGradient>
    </defs>
    <g id="Page-1" stroke="none" stroke-width="1" fill="none" fill-rule="evenodd" opacity="0.3">
        <g id="img-graphism-bg" transform="translate(568.228553, 97.322990) rotate(45.000000) translate(-568.228553, -97.322990) translate(229.853553, -371.302010)" stroke-width="2">
            <path d="M673.59,0 C642.18,20.1675 630.0275,59.3525 624.905,94.55 C616.5275,152.7775 608.2325,210.55 596.275,268.105 C591.275,291.73 585.8425,315.2725 574.2225,337.165 C567.4425,349.5475 557.9725,360.255 545.71,367.165 C540.543333,370.228333 535.21,373.075833 529.71,375.7075 C525.255,377.65 520.6325,379.3625 515.8875,380.895 C506.3875,383.96 496.4075,386.315 486.29,388.38 C478.158333,390.306667 469.935,392.0975 461.62,393.7525 C420.095,402.07 376.7425,407.49 335,414.11 C329.1425,415.0525 323.2975,416.045 317.4775,417.125 C311.6575,418.205 305.87,419.3625 300.125,420.6425 C281.425,425.0725 257.5475,426.4775 251.815,446.4275 C249.9025,453.075 250.0275,461.8225 253.1175,473.6775 C263.9625,514.705 275.8675,562.6775 244.4925,599.335 C224.445,622.86 205.685,645.7025 192.38,672.915 C189.235,678.625 186.04,684.3 182.88,689.945" id="Path" stroke="url(#linearGradient-1)" opacity="0.7"></path>
            <path d="M676.64,4.8675 C643.755,21.6275 632.7775,61.965 628.3575,95.9025 C619.465,162.845 608.6925,228.7325 593.76,294.52 C589.7125,313.225 584.99,331.8025 575.4775,348.77 C571.3775,355.6375 566.875,362.1975 560.6225,367.16 C555.923637,371.077986 550.666624,374.273144 545.025,376.64 C538.4725,379.9525 531.6875,383.035 524.7225,385.8625 C517.7575,388.69 510.625,391.27 503.3025,393.5725 C495.7875,395.64 488.125,397.5725 480.3775,399.36 C441.6275,408.33 400.7825,414.0125 360.175,419.0725 C354.341667,419.8775 348.508333,420.720833 342.675,421.6025 C331.0325,423.3875 319.4575,425.4175 308.1,427.965 C291.935,431.6425 272.2875,433.62 268.065,451.215 C266.72,457.215 267.0825,464.935 269.9075,475.3125 C275.84,502.3825 286.325,528.745 284.4075,556.905 C283.05,577.285 274.89,595.655 259.5075,610.575 C240.4025,629.1775 221.0475,644.2525 208.0075,666.4075 C204.8,671.7975 201.775,677.2175 198.795,682.64 C195.0725,689.4175 191.3775,696.2075 187.6525,702.9775 C183.9275,709.7475 180.175,716.5 176.34,723.1975 C168.265,736.8775 160.2475,750.8775 150.705,763.6325" id="Path" stroke="url(#linearGradient-2)" opacity="0.7"></path>
            <path d="M676.7475,10.785 C643.6825,29.2675 634.32,70.8425 629.955,105.7225 C620.6725,179.5475 609.2825,252.275 591.5,324.4725 C586.565,344.1675 578.73,364.4725 561.9775,376.9975 C557.2275,380.2 552.16,382.825 547.07,385.415 C542.7625,387.665 538.3575,389.8175 533.8925,391.9 C527.979167,394.566667 521.9075,397.018333 515.6775,399.255 C509.4475,401.491667 503.030833,403.459167 496.4275,405.1575 C489.1875,407.070833 481.854167,408.85 474.4275,410.495 C444.7575,417.095 413.8375,421.6875 382.415,425.0725 C374.415,426.035 366.415,427.04 358.465,428.17 C350.515,429.3 342.575,430.5575 334.715,432.0375 C316.525,435.7 292.1425,434.515 285.8375,452.135 C283.8375,458.1875 283.7925,466.355 286.8025,477.91 C293.64,506.2575 306.4575,533.76 305.09,563.88 C304.1825,584.3475 292.8025,602.575 276.38,615.6625 C252.9375,633.8975 227.7325,649.2425 213.0275,674.9125 C208.7225,681.96 204.7775,689.145 200.815,696.3375 C196.8525,703.53 192.915,710.73 188.9125,717.895 C184.91,725.06 180.8525,732.21 176.6875,739.2825 C155.055,777.9325 123.6375,809.9475 89.89,838.4" id="Path" stroke="url(#linearGradient-3)" opacity="0.7"></path>
            <path d="M673.9175,18.2025 C648.8925,38.385 640.265,71.2875 635.8175,101.7425 C624.87,179.425 613.8175,256.3925 593.44,332.4925 C588.28,352.145 579.3625,370.845 564.995,385.5675 C561.495,389.2 557.6925,392.365 553.32,394.6625 C548.4025,397.5825 543.0875,400.025 537.535,402.295 C533.6125,403.975 529.595,405.525 525.5075,406.975 C517.3325,409.8775 508.8775,412.39 500.33,414.7725 C493.138333,416.750833 485.848333,418.584167 478.46,420.2725 C448.93,427.04 418.01,431.575 386.21,434.3225 C378.07,435.2625 369.925,436.265 361.8275,437.4325 C353.73,438.6 345.6825,439.9325 337.7375,441.545 C329.7925,443.1575 321.7375,444.5975 315.12,447.8225 C295.9925,456.6 300.1975,479.4375 306.2725,496.1425 C317.2725,525.85 334.8,555.4175 325.045,586.9425 C319.73,603.7825 303.4075,612.7125 289.0975,622.03 C258.75,642.42 226.8275,661.3475 211.78,695.3075 C207.82,702.6225 203.861667,709.955833 199.905,717.3075 C196.426667,723.730833 192.911667,730.131667 189.36,736.51 C185.79,742.9025 182.11,749.28 178.1525,755.76 C142.345,812.8425 88.7775,856.3775 32.5825,892.565" id="Path" stroke="url(#linearGradient-4)" opacity="0.7"></path>
            <path d="M668.2775,30.3675 C650.19,50.925 643.265,78.5875 639.5475,105.2425 C628.46,182.435 616.1175,258.9225 598.095,334.785 C594.627392,349.321872 589.098942,363.288217 581.6775,376.26 C576.275,385.5625 569.8,393.49 561.86,399.7025 C556.925,404.9875 550.64,408.1175 543.7325,411 C539.0375,413.18 534.165,415.1125 529.195,416.9025 C524.225,418.6925 519.155,420.3425 514.0625,421.95 C506.755,424.235 499.2075,426.35 491.5325,428.285 C468.5125,434.085 444.459167,438.230833 419.3725,440.7225 C411.3725,441.5875 403.3725,442.4375 395.3725,443.38 C379.39,445.27 363.4875,447.5375 348.165,451.095 C340.1125,453.0425 330.7275,454.4525 324.5625,459.285 C316.8875,464.785 316.9725,475.2475 319.3125,483.5825 C329.675,522.675 358.84,566.5325 334.7575,605.055 C328.405,615.2 317.3275,620.9625 306.88,627.0775 C278.645,643.6975 247.6575,656.5425 229.15,683.8625 C224.9625,690.1775 221.2925,696.7325 217.695,703.2975 C214.0975,709.8625 210.51,716.4675 206.85,723.115 C203.19,729.7625 199.465,736.4625 195.6,743.2175 C153.2075,819.0975 83.4025,877.1525 7.8025,917.5375" id="Path" stroke="url(#linearGradient-5)" opacity="0.7"></path>
            <path d="M660.43,52.94 C651.68,68.605 647.9825,86.69 644.8625,104.1725 C639.6125,136.3325 636.22,168.6125 629.64,200.5175 C621.6025,240.0175 615.5775,279.9225 607.0925,319.345 C602.4425,341.1825 596.45,362.7625 585.9125,382.56 C581.1475,391.495 575.59,399.44 569.035,406.1975 C566.3125,409.82 562.285,411.2625 559.4475,414.2525 C554.5675,417.5925 549.375,420.4575 544.08,423.16 C538.427636,425.782681 532.629826,428.079769 526.715,430.04 C520.73,432.04 514.57,433.8075 508.31,435.4125 C501.225,437.4875 494.020833,439.390833 486.6975,441.1225 C471.758153,444.641175 456.64613,447.381533 441.4225,449.3325 C434.125,450.145 426.84,450.9025 419.595,451.71 C408.73,452.92 397.95,454.2375 387.345,456.0125 C376.74,457.7875 366.3,460.0125 356.115,463.05 C343.175,464.495 332.365,476.1075 336.6775,489.92 C347.365,524.9025 367.1225,559.7675 356.0725,596.8425 C350.37,615.695 334.5575,626.81 317.1575,635.3025 C285.965,650.43 254.08,663.1025 234.5775,691.64 C230.3775,698.7675 226.4075,705.965 222.43,713.2025 C218.85,719.715833 215.24,726.255833 211.6,732.8225 C207.9475,739.3875 204.2475,745.95 200.44,752.5075 C153.9725,830.84 79.49,890.315 2.27373675e-13,932.8675" id="Path" stroke="url(#linearGradient-6)" opacity="0.7"></path>
            <path d="M655.0275,89.5875 C651.795,99.4725 649.8225,109.7625 648.1175,119.87 C641.165,160.98 633.54,201.96 625.9175,242.94 C620.265,273.63 615.775,304.31 609.4525,334.8725 C606.1325,349.775 602.3225,364.815 596.05,378.75 C593.2525,385.235 590.05,391.1925 586.3,396.525 C583.748081,400.244468 580.981732,403.812173 578.015,407.21 C575.1,410.505 572.043333,413.644167 568.845,416.6275 C563.27,422.3775 557.6825,428.1575 550.4175,431.575 C546.331461,433.969703 542.101785,436.110424 537.7525,437.985 C529.0025,441.815 519.715,444.8825 510.5225,447.9475 C503.579167,450.3275 496.544167,452.569167 489.4175,454.6725 C481.97,456.4225 474.255,457.64 466.4175,458.595 C433.7675,462.57 399.0375,461.8575 373.105,474.675 C367.91106,477.2431 363.081311,480.489835 358.7425,484.33 C352.29,491.985 354.92,502.46 358.16,510.9675 C368.0275,538.1375 378.5125,565.6525 371.01,593.9025 C364.985,616.8675 347.4275,633.445 325.1275,643.3175 C289.0725,659.6 251.9775,674.0675 234.835,710.2825 C230.583333,717.615833 226.32,724.99 222.045,732.405 C217.77,739.82 213.428333,747.213333 209.02,754.585 C162.075,833.315 87.4975,892.085 9.1175,937.215" id="Path" stroke="url(#linearGradient-7)" opacity="0.7"></path>
            <path d="M651.6075,148.2575 C632.8575,229.6625 626.8,314.5425 597.2975,392.74 C593.1025,401.8575 588.1925,410.145 582.3475,417.355 C578.29,422.54 574.005,427.4025 569.3475,431.7725 C566.455,434.8375 563.4225,437.7125 559.88,439.995 C555.869064,443.125821 551.650196,445.980719 547.2525,448.54 C538.435,453.68 528.84,457.735 518.5025,460.79 C512.715833,462.575 506.665,464.108333 500.35,465.39 C464.1675,472.5675 426.97,472.3225 394.735,484.2125 C389.1275,486.1125 383.735,488.4975 379.8575,492.755 C366.4925,513.485 383.8325,536.755 386.6075,558.62 C391.56,596.91 369.9625,633.355 334.3125,649.945 C302.18,665.1225 268.9025,676.6025 248.7925,705.7775 C245.2025,711.3675 241.7925,716.955 238.44,722.5775 C235.0875,728.2 231.755,733.8675 228.4075,739.5775 C225.06,745.2875 221.69,751.0325 218.25,756.8275 C179.5375,824.6075 117.35,874.38 53.725,917.885" id="Path" stroke="url(#linearGradient-8)" opacity="0.7"></path>
        </g>
    </g>
</svg>