<?xml version="1.0" encoding="UTF-8"?>
<svg width="1440px" height="498px" viewBox="0 0 1440 498" version="1.1" xmlns="http://www.w3.org/2000/svg" xmlns:xlink="http://www.w3.org/1999/xlink">
    <!-- Generator: Sketch 59.1 (86144) - https://sketch.com -->
    <title>img-graphism-bg</title>
    <desc>Created with Sketch.</desc>
    <defs>
        <linearGradient x1="36.5194181%" y1="46.0392568%" x2="63.7263025%" y2="54.1385328%" id="linearGradient-1">
            <stop stop-color="#3BD4AE" offset="0%"></stop>
            <stop stop-color="#3BD4AE" offset="26%"></stop>
            <stop stop-color="#DCE3EB" offset="68%"></stop>
            <stop stop-color="#DCE3EB" offset="100%"></stop>
        </linearGradient>
        <linearGradient x1="20.0595131%" y1="39.1801151%" x2="66.8533184%" y2="39.1801151%" id="linearGradient-2">
            <stop stop-color="#3BD4AE" offset="0%"></stop>
            <stop stop-color="#3BD4AE" offset="26%"></stop>
            <stop stop-color="#DCE3EB" offset="68%"></stop>
            <stop stop-color="#DCE3EB" offset="100%"></stop>
        </linearGradient>
        <linearGradient x1="23.2420136%" y1="40.2466727%" x2="71.2626149%" y2="40.2466727%" id="linearGradient-3">
            <stop stop-color="#3BD4AE" offset="0%"></stop>
            <stop stop-color="#3BD4AE" offset="26%"></stop>
            <stop stop-color="#DCE3EB" offset="68%"></stop>
            <stop stop-color="#DCE3EB" offset="100%"></stop>
        </linearGradient>
        <linearGradient x1="24.9791451%" y1="41.0361835%" x2="74.7713753%" y2="41.0361835%" id="linearGradient-4">
            <stop stop-color="#3BD4AE" offset="0%"></stop>
            <stop stop-color="#3BD4AE" offset="26%"></stop>
            <stop stop-color="#DCE3EB" offset="68%"></stop>
            <stop stop-color="#DCE3EB" offset="100%"></stop>
        </linearGradient>
        <linearGradient x1="25.8912147%" y1="41.2646392%" x2="77.1531852%" y2="41.2646392%" id="linearGradient-5">
            <stop stop-color="#3BD4AE" offset="0%"></stop>
            <stop stop-color="#3BD4AE" offset="26%"></stop>
            <stop stop-color="#DCE3EB" offset="68%"></stop>
            <stop stop-color="#DCE3EB" offset="100%"></stop>
        </linearGradient>
        <linearGradient x1="26.7742229%" y1="41.1306613%" x2="79.1306422%" y2="41.1306613%" id="linearGradient-6">
            <stop stop-color="#3BD4AE" offset="0%"></stop>
            <stop stop-color="#3BD4AE" offset="26%"></stop>
            <stop stop-color="#DCE3EB" offset="68%"></stop>
            <stop stop-color="#DCE3EB" offset="100%"></stop>
        </linearGradient>
        <linearGradient x1="27.4411296%" y1="40.4930232%" x2="80.5185707%" y2="40.4930232%" id="linearGradient-7">
            <stop stop-color="#3BD4AE" offset="0%"></stop>
            <stop stop-color="#3BD4AE" offset="26%"></stop>
            <stop stop-color="#DCE3EB" offset="68%"></stop>
            <stop stop-color="#DCE3EB" offset="100%"></stop>
        </linearGradient>
        <linearGradient x1="27.7813784%" y1="38.7502396%" x2="80.4163025%" y2="38.7502396%" id="linearGradient-8">
            <stop stop-color="#3BD4AE" offset="0%"></stop>
            <stop stop-color="#3BD4AE" offset="26%"></stop>
            <stop stop-color="#DCE3EB" offset="68%"></stop>
            <stop stop-color="#DCE3EB" offset="100%"></stop>
        </linearGradient>
    </defs>
    <g id="Pages" stroke="none" stroke-width="1" fill="none" fill-rule="evenodd" opacity="0.7">
        <g id="Landing-Page_v4" transform="translate(0.000000, -3406.000000)">
            <g id="img-graphism-bg" transform="translate(562.936738, 3588.629016) rotate(45.000000) translate(-562.936738, -3588.629016) translate(-205.563262, 2524.129016)">
                <path d="M1529.80736,0.142646815 C1458.50101,45.9469827 1430.91265,134.94378 1419.28365,214.884184 C1400.26522,347.130222 1381.43408,478.342866 1354.2884,609.061524 C1342.9375,662.718519 1330.60475,716.18814 1304.22526,765.910288 C1288.83344,794.033366 1267.33483,818.352193 1239.49675,834.046154 C1227.76749,841.003582 1215.65986,847.470811 1203.17387,853.447841 C1193.06022,857.859639 1182.56632,861.749061 1171.79431,865.229668 C1150.2276,872.190883 1127.57121,877.539548 1104.60266,882.229567 C1086.14231,886.605404 1067.47387,890.672736 1048.59732,894.431565 C954.3281,913.322234 855.910124,925.632113 761.147137,940.667428 C747.849558,942.80803 734.580357,945.062191 721.367909,947.515082 C708.155462,949.967973 695.016796,952.596882 681.974612,955.504013 C639.522247,965.565409 585.316025,968.756438 572.302219,1014.06679 C567.9605,1029.16456 568.244272,1049.03184 575.259128,1075.95687 C599.87923,1169.13834 626.905722,1278.09327 555.678826,1361.34962 C510.167394,1414.77949 467.578818,1466.65928 437.374074,1528.46419 C430.234358,1541.43271 422.981133,1554.32175 415.807364,1567.14265" id="Path" stroke="url(#linearGradient-1)"></path>
                <path d="M1535.86624,14.0665284 C1461.20931,52.1250577 1436.28773,143.723263 1426.25325,220.788379 C1406.06512,372.801094 1381.60894,522.418119 1347.70854,671.808066 C1338.51973,714.283292 1327.79851,756.468992 1306.20283,794.998711 C1296.89484,810.593398 1286.67307,825.489815 1272.47838,836.758637 C1261.81082,845.655581 1249.87612,852.911131 1237.06827,858.285776 C1222.19251,865.807786 1206.78891,872.807512 1190.97667,879.228186 C1175.16443,885.64886 1158.97193,891.507511 1142.34808,896.736018 C1125.2872,901.430887 1107.89147,905.819199 1090.30277,909.878245 C1002.33087,930.247279 909.602813,943.151074 817.41394,954.641298 C804.170859,956.469288 790.927776,958.384325 777.684696,960.38641 C751.253397,964.43978 724.97534,969.049494 699.19106,974.834345 C662.49259,983.185195 617.888,987.675693 608.301901,1027.63034 C605.248425,1041.25511 606.071388,1058.78565 612.484823,1082.35083 C625.953037,1143.82125 649.756529,1203.6851 645.403339,1267.63069 C642.321485,1313.9095 623.796306,1355.62401 588.874301,1389.50428 C545.501317,1431.74675 501.560773,1465.97898 471.956811,1516.28845 C464.675008,1528.52804 457.807524,1540.83575 451.042202,1553.14914 C442.591224,1568.53945 434.202678,1583.95815 425.746024,1599.33144 C417.289371,1614.70472 408.770286,1630.03827 400.063906,1645.24692 C381.731698,1676.3114 363.530028,1708.10253 341.866239,1737.06653" id="Path" stroke="url(#linearGradient-2)"></path>
                <path d="M1536.98399,26.5761964 C1461.93582,68.5384826 1440.6856,162.929504 1430.77829,242.120335 C1409.70965,409.73109 1383.85758,574.850104 1343.49635,738.765817 C1332.2953,783.480938 1314.51208,829.58099 1276.48865,858.017492 C1265.7075,865.288381 1254.20572,871.248127 1242.65286,877.12841 C1232.87606,882.236763 1222.87796,887.123755 1212.74367,891.85182 C1199.32209,897.906165 1185.54112,903.472377 1171.40079,908.55046 C1157.26046,913.628542 1142.69645,918.095514 1127.70875,921.951374 C1111.27601,926.295366 1094.63142,930.33475 1077.775,934.069524 C1010.43252,949.054027 940.25289,959.480744 868.932732,967.165978 C850.775002,969.351219 832.617272,971.63295 814.573028,974.198478 C796.528784,976.764007 778.507237,979.619009 760.667267,982.979171 C719.381129,991.294435 664.039772,988.604035 649.729211,1028.60812 C645.189779,1042.34959 645.087642,1060.89291 651.919488,1087.12715 C667.438672,1151.48673 696.53076,1213.92783 693.426923,1282.31166 C691.367156,1328.78065 665.537785,1370.16399 628.26337,1399.87758 C575.055547,1441.27794 517.847349,1476.11692 484.471172,1534.39755 C474.700043,1550.39805 465.746013,1566.71073 456.752262,1583.04043 C447.758511,1599.37013 438.821504,1615.71687 429.736965,1631.98413 C420.652425,1648.2514 411.443052,1664.48461 401.989683,1680.54187 C352.890047,1768.29203 281.581237,1840.97823 204.983988,1905.5762" id="Path" stroke="url(#linearGradient-3)"></path>
                <path d="M1530.74818,42.0191075 C1473.93482,87.8610152 1454.34811,162.594738 1444.25111,231.769286 C1419.39739,408.214919 1394.30529,583.036523 1348.04298,755.887715 C1336.32842,800.525797 1316.08334,843.0004 1283.46531,876.440632 C1275.51939,884.69138 1266.88671,891.880264 1256.95998,897.098734 C1245.79595,903.731132 1233.7295,909.278951 1221.12385,914.434959 C1212.21874,918.250859 1203.09795,921.771481 1193.81825,925.064967 C1175.25884,931.657616 1156.06375,937.364431 1136.65867,942.775968 C1120.33168,947.269492 1103.78145,951.43367 1087.00799,955.268498 C1019.96708,970.639988 949.770504,980.940648 877.576097,987.181234 C859.096145,989.316321 840.604842,991.593369 822.221376,994.245192 C803.83791,996.897016 785.567958,999.923615 767.530707,1003.5862 C749.493457,1007.24878 731.206478,1010.51955 716.183003,1017.84472 C672.758521,1037.78166 682.304983,1089.65405 696.096839,1127.59727 C721.069747,1195.07397 760.861806,1262.23268 738.715377,1333.83759 C726.648922,1372.08745 689.592532,1392.37078 657.105048,1413.53426 C588.2082,1459.84747 515.735686,1502.83881 481.573883,1579.97451 C472.583636,1596.58957 463.597174,1613.24628 454.614494,1629.94463 C446.717758,1644.53439 438.737779,1659.07305 430.674556,1673.5606 C422.569712,1688.08032 414.215139,1702.56598 405.230568,1717.28445 C323.938076,1846.93988 202.32569,1945.82394 74.7481835,2028.01911" id="Path" stroke="url(#linearGradient-4)"></path>
                <path d="M1519.01416,71.359728 C1477.96316,118.051301 1462.24633,180.880226 1453.80917,241.420849 C1428.64521,416.745632 1400.63294,590.469171 1359.72946,762.773169 C1351.85945,795.790288 1339.3122,827.511587 1322.46865,856.97397 C1310.20725,878.102432 1295.51173,896.107902 1277.49127,910.218149 C1266.2909,922.221795 1252.0266,929.330861 1236.34948,935.877788 C1225.69381,940.82915 1214.63529,945.218374 1203.35548,949.283942 C1192.07568,953.34951 1180.56891,957.097101 1169.01108,960.748163 C1152.42614,965.938008 1135.29649,970.741738 1117.87748,975.136639 C1065.63177,988.309988 1011.04084,997.726282 954.104675,1003.38552 C935.948046,1005.35017 917.791416,1007.28075 899.634786,1009.42142 C863.361245,1013.71411 827.269269,1018.86421 792.493649,1026.94424 C774.217867,1031.36753 752.91787,1034.57002 738.925918,1045.54592 C721.506901,1058.03789 721.699815,1081.80102 727.010629,1100.73203 C750.529139,1189.52154 816.721402,1289.13363 762.064273,1376.62852 C747.646774,1399.67052 722.505516,1412.7587 698.794092,1426.6475 C634.712537,1464.39596 564.383967,1493.57038 522.379739,1555.6214 C512.875878,1569.96445 504.546524,1584.8526 496.381715,1599.76347 C488.216905,1614.67434 480.074792,1629.67606 471.768134,1644.77431 C463.461475,1659.87256 455.007295,1675.09004 446.235373,1690.43245 C350.022257,1862.7762 191.594315,1994.63461 20.0141648,2086.35973" id="Path" stroke="url(#linearGradient-5)"></path>
                <path d="M1499.56873,122.639688 C1479.70856,158.209289 1471.31622,199.273843 1464.23465,238.970335 C1452.31855,311.994169 1444.61848,385.29048 1429.68364,457.735301 C1411.44066,547.425645 1397.76551,638.035599 1378.50683,727.549968 C1367.95257,777.135104 1354.35119,826.13555 1330.43387,871.088577 C1319.61859,891.37676 1307.00455,909.417008 1292.12645,924.760869 C1285.9471,932.986268 1276.80575,936.261668 1270.36538,943.050887 C1259.28908,950.63483 1247.50349,957.140218 1235.48525,963.276627 C1222.65589,969.231796 1209.49641,974.447659 1196.07133,978.898641 C1182.48698,983.439925 1168.50542,987.453284 1154.29689,991.097663 C1138.21583,995.809245 1121.86429,1000.13103 1105.24228,1004.06303 C1071.33394,1012.05268 1037.03368,1018.27505 1002.4801,1022.70499 C985.916721,1024.54989 969.381714,1026.2699 952.937496,1028.10345 C928.276843,1030.85092 903.809117,1033.84249 879.738595,1037.87288 C855.668073,1041.90327 831.972056,1046.95545 808.854822,1053.85252 C779.484473,1057.1336 754.948655,1083.50142 764.73688,1114.86466 C788.994655,1194.29738 833.838912,1273.4633 808.758359,1357.64734 C795.815204,1400.45461 759.925045,1425.69279 720.431685,1444.97622 C649.633027,1479.32535 577.262579,1508.10005 532.997104,1572.89849 C523.464224,1589.08249 514.453383,1605.42543 505.425519,1621.8592 C497.299873,1636.64864 489.106136,1651.49864 480.844306,1666.40919 C472.554105,1681.31595 464.156092,1696.21703 455.514082,1711.10677 C350.045247,1888.9718 180.989833,2024.01821 0.568728287,2120.63969" id="Path" stroke="url(#linearGradient-6)"></path>
                <path d="M1487.16492,203.333862 C1479.83323,225.78314 1475.35937,249.15219 1471.49223,272.106775 C1455.72314,365.469426 1438.42874,458.53684 1421.14001,551.604255 C1408.31948,621.302619 1398.13563,690.978272 1383.79545,760.387078 C1376.2653,794.231323 1367.62377,828.387836 1353.397,860.034845 C1347.05194,874.76257 1339.78829,888.29232 1331.28285,900.402666 C1325.4948,908.849744 1319.22039,916.952162 1312.4915,924.668779 C1305.87993,932.151872 1298.94705,939.281061 1291.69286,946.056343 C1279.0481,959.114851 1266.37499,972.24149 1249.89711,980.002785 C1240.6295,985.441263 1231.03609,990.302936 1221.1714,994.560182 C1201.32537,1003.25828 1180.26023,1010.22471 1159.41055,1017.18547 C1143.66226,1022.59055 1127.70605,1027.68148 1111.54193,1032.45824 C1094.65012,1036.43257 1077.15159,1039.19757 1059.37521,1041.36641 C985.321167,1050.39382 906.549434,1048.7757 847.731468,1077.88481 C835.951,1083.71708 824.99656,1091.09057 815.155625,1099.81175 C800.520595,1117.1966 806.485745,1140.98579 813.834447,1160.30671 C836.2151,1222.01099 859.996315,1284.49879 842.979761,1348.6558 C829.314351,1400.81035 789.491872,1438.45859 738.912844,1460.87948 C657.135855,1497.85777 573.000023,1530.71411 534.118813,1612.95999 C524.475531,1629.61432 514.80579,1646.36139 505.109586,1663.20118 C495.413382,1680.04098 485.565969,1696.83157 475.567351,1713.57296 C369.090558,1892.37231 199.939999,2025.84161 22.1649224,2128.33386" id="Path" stroke="url(#linearGradient-7)"></path>
                <path d="M1479.62686,340.917123 C1437.03906,525.594945 1423.28037,718.156255 1356.26988,895.557446 C1346.74157,916.24168 1335.58925,935.04295 1322.31321,951.399772 C1313.09721,963.162619 1303.36448,974.193832 1292.78567,984.107745 C1286.21579,991.061095 1279.32792,997.583407 1271.28167,1002.76155 C1262.17143,1009.86423 1252.58891,1016.34094 1242.60021,1022.147 C1222.57258,1033.80776 1200.77899,1043.00705 1177.29891,1049.93771 C1164.15537,1053.98722 1150.41182,1057.46578 1136.06825,1060.37341 C1053.88515,1076.6565 969.396634,1076.10069 896.179689,1103.0747 C883.443098,1107.3851 871.194847,1112.79578 862.38769,1122.45447 C832.031106,1169.48317 871.416303,1222.27419 877.719298,1271.87778 C888.968155,1358.74362 839.912689,1441.42384 758.939086,1479.06041 C685.954954,1513.49254 610.370128,1539.53642 564.693293,1605.7237 C556.539149,1618.40534 548.793848,1631.08131 541.17915,1643.83668 C533.564451,1656.59205 525.99518,1669.44951 518.391838,1682.40339 C510.788496,1695.35726 503.134049,1708.39054 495.320607,1721.53725 C407.390997,1875.30499 266.141463,1988.22038 121.626863,2086.91712" id="Path" stroke="url(#linearGradient-8)"></path>
            </g>
        </g>
    </g>
</svg>