<?xml version="1.0" encoding="UTF-8"?>
<svg width="1440px" height="1112px" viewBox="0 0 1440 1112" version="1.1" xmlns="http://www.w3.org/2000/svg" xmlns:xlink="http://www.w3.org/1999/xlink">
<!-- <svg version="1.1" xmlns="http://www.w3.org/2000/svg" xmlns:xlink="http://www.w3.org/1999/xlink"> -->
    <!-- Generator: Sketch 59.1 (86144) - https://sketch.com -->
    <title>Group 3</title>
    <desc>Created with Sketch.</desc>
    <defs>
        <linearGradient x1="49.9982357%" y1="99.9934536%" x2="49.9982357%" y2="0.00149391523%" id="linearGradient-1">
            <stop stop-color="#0071CE" offset="0%"></stop>
            <stop stop-color="#773DBD" offset="64.69%"></stop>
        </linearGradient>
        <linearGradient x1="58.6130966%" y1="94.2051733%" x2="44.4908126%" y2="4.99685397%" id="linearGradient-2">
            <stop stop-color="#0071CE" offset="0%"></stop>
            <stop stop-color="#011E41" offset="64.64%"></stop>
        </linearGradient>
        <linearGradient x1="50%" y1="7.60043994%" x2="50%" y2="84.3188312%" id="linearGradient-3">
            <stop stop-color="#0071CE" offset="0%"></stop>
            <stop stop-color="#773DBD" offset="100%"></stop>
        </linearGradient>
        <path d="M0.210826628,1045.99259 C35.4188734,1047.78354 71.0485735,1054.20988 105.94038,1061.26831 C182.154206,1082.33827 259.527579,1072.54074 332.579005,1041.67325 C466.137674,985.521811 631.952816,814.117695 765.406072,964.451852 C852.582882,1064.21811 924.263936,1189.16296 1061.09042,1218.34486 C1097.87966,1223.507 1133.72019,1233.40988 1165.66042,1249.84444 C1197.60066,1266.27901 1225.85143,1290.08807 1247.67198,1319.79671 C1264.74894,1336.96872 1282.98544,1352.45514 1306.49261,1361.62058 C1349.39583,1378.47654 1394.3019,1376.36955 1439.94587,1366.57202 L1439.94587,95 L-7.95807864e-13,95 L-7.95807864e-13,1045.99259 L0.210826628,1045.99259 Z" id="path-4"></path>
    </defs>
    <g id="Pages" stroke="none" stroke-width="1" fill="none" fill-rule="evenodd">
        <g id="Landing-Page_v4" fill-rule="nonzero">
            <g id="Novo-Fundo" transform="translate(-327.000000, -263.000000)">
                <g id="Group" transform="translate(327.000000, 0.000000)">
                    <g id="Group-3">
                        <path d="M1620.15669,0 L180.210827,0 L180.210827,918.123457 L326.840746,950.571193 C386.610095,963.845267 448.698537,963.002469 507.940819,947.726749 C517.006364,945.409053 523.752816,943.302058 526.915216,941.93251 C576.98654,920.230453 634.120556,930.870782 676.391295,973.326749 C782.647915,1078.57119 866.873153,1235.43704 1029.94755,1233.85679 C1065.78808,1231.85514 1100.89071,1223.21646 1135.88793,1214.57778 C1162.34667,1208.67819 1189.75413,1207.73004 1217.16159,1209.41564 C1236.9793,1210.04774 1256.797,1211.83868 1276.6147,1214.26173 C1289.05347,1215.73663 1301.38683,1217.52757 1313.8256,1219.42387 C1414.81156,1235.12099 1516.32458,1247.23621 1618.25925,1255.13745 L1620.15669,1255.2428 L1620.15669,0 L1620.15669,0 Z" id="Path" fill="url(#linearGradient-1)" opacity="0.25"></path>
                        <g id="Path">
                            <use fill="url(#linearGradient-2)" xlink:href="#path-4"></use>
                            <use fill="url(#linearGradient-3)" xlink:href="#path-4"></use>
                        </g>
                    </g>
                </g>
            </g>
        </g>
    </g>
</svg>