<?xml version="1.0" encoding="UTF-8"?>
<svg width="38px" height="52px" viewBox="0 0 38 52" version="1.1" xmlns="http://www.w3.org/2000/svg" xmlns:xlink="http://www.w3.org/1999/xlink">
    <!-- Generator: Sketch 59.1 (86144) - https://sketch.com -->
    <title>img-brand-white</title>
    <desc>Created with Sketch.</desc>
    <g id="Page-1" stroke="none" stroke-width="1" fill="none" fill-rule="evenodd">
        <g id="img-brand-white" fill="#FFFFFF" fill-rule="nonzero">
            <path d="M18.3436842,14.6984649 L4.92104605,21.3774473 C1.90459045,22.8869872 -0.0003976553,25.9709285 -1.24468716e-07,29.3440153 L13.4226382,22.635636 C16.4296437,21.1308467 18.3329747,18.0609578 18.3436842,14.6984649" id="Caminho_71"></path>
            <path d="M18.3436842,25.6752785 L4.92104605,32.3836578 C1.90551958,33.8911945 0.000453068767,36.9729868 0,40.3443465 L13.4226381,33.6359672 C16.4372004,32.1273753 18.3418563,29.0462473 18.3436842,25.6752785" id="Caminho_72"></path>
            <path d="M18.3436842,36.6756097 L4.92104605,43.383989 C1.90551958,44.8915257 0.000453068767,47.9733178 0,51.3446777 L13.4226381,44.6362982 C16.4381646,43.1287615 18.3432312,40.0469693 18.3436842,36.6756097" id="Caminho_73"></path>
            <path d="M37.6280702,-1.77635684e-15 L24.1995527,6.70837938 C21.1755067,8.2217017 19.2691862,11.3169103 19.2784387,14.6984649 L32.6952653,7.9606886 C35.7163268,6.45749818 37.6267715,3.37437287 37.6280702,-1.77635684e-15" id="Caminho_74"></path>
            <path d="M37.6280702,11.0062105 L24.1995527,17.7145898 C21.1840262,19.2221265 19.2789597,22.3039188 19.2785065,25.6752785 L32.6952653,18.9668992 C35.7153608,17.4626485 37.6253922,14.3801902 37.6280702,11.0062105" id="Caminho_75"></path>
        </g>
    </g>
</svg>