<?xml version="1.0" encoding="UTF-8"?>
<svg width="950px" height="107px" viewBox="0 0 950 107" version="1.1" xmlns="http://www.w3.org/2000/svg" xmlns:xlink="http://www.w3.org/1999/xlink">
    <!-- Generator: Sketch 60.1 (88133) - https://sketch.com -->
    <title>PD Aneel Logo Horizontal SVG</title>
    <desc>Created with Sketch.</desc>
    <g id="Page-1" stroke="none" stroke-width="1" fill="none" fill-rule="evenodd">
        <g id="PD-Aneel-Logo-Horizontal-SVG" transform="translate(-1.000000, 0.000000)" fill="#FFFFFF" fill-rule="nonzero">
            <polygon id="Path" points="229.2 88.93 225.97 106.54 234.9 106.54 235.2 104.93 228.3 104.93 229.54 98.15 234.4 98.15 234.7 96.54 229.84 96.54 230.94 90.54 237.52 90.54 237.82 88.93"></polygon>
            <polygon id="Path" points="242.04 92.45 239.46 106.54 241.09 106.54 243.34 94.28 243.38 94.28 245.82 106.54 247.57 106.54 250.15 92.45 248.52 92.45 246.62 102.83 246.58 102.83 244.59 92.45"></polygon>
            <polygon id="Path" points="254.66 92.45 252.08 106.54 259.23 106.54 259.47 105.26 253.95 105.26 254.94 99.83 258.83 99.83 259.06 98.54 255.18 98.54 256.06 93.74 261.32 93.74 261.56 92.45"></polygon>
            <path d="M263.32,106.55 L264.95,106.55 L266.15,99.95 L268.3,99.87 L269.5,106.55 L271.22,106.55 L269.94,99.55 C271.549607,99.095498 272.745664,97.743094 273,96.09 C273.43,93.77 272,92.44 269.53,92.44 L265.9,92.44 L263.32,106.55 Z M267.32,93.74 L268.74,93.74 C271.08,93.74 271.68,94.6 271.39,96.18 C271.1,97.76 270.19,98.62 267.85,98.62 L266.43,98.62 L267.32,93.74 Z" id="Shape"></path>
            <path d="M285.41,96.79 C285.62,94.52 285.03,92.26 282.25,92.26 C279.47,92.26 277.57,94.17 276.6,99.5 C275.63,104.83 276.94,106.74 279.6,106.74 C280.731836,106.766666 281.821961,106.312447 282.6,105.49 L282.6,106.55 L283.65,106.55 L284.85,99.95 L281.16,99.95 L280.92,101.24 L282.97,101.24 L282.6,103.24 C282.427849,104.606707 281.201393,105.589643 279.83,105.46 C278.02,105.46 277.42,103.94 278.23,99.46 C279.04,94.98 280.23,93.51 282.01,93.51 C283.66,93.51 284.01,94.91 283.78,96.75 L285.41,96.79 Z" id="Path"></path>
            <polygon id="Path" points="290.85 92.45 288.27 106.54 289.89 106.54 292.48 92.45"></polygon>
            <path d="M299.44,92.45 L293.54,106.55 L295.16,106.55 L296.82,102.37 L300.67,102.37 L300.8,106.55 L302.43,106.55 L301.69,92.45 L299.44,92.45 Z M300.36,93.51 L300.36,93.51 L300.64,101.08 L297.26,101.08 L300.36,93.51 Z" id="Shape"></path>
            <polygon id="Path" points="316.13 88.93 312.91 106.54 321.84 106.54 322.14 104.93 315.24 104.93 316.48 98.15 321.34 98.15 321.64 96.54 316.78 96.54 317.88 90.54 324.46 90.54 324.75 88.93"></polygon>
            <polygon id="Path" points="329.19 92.45 326.61 106.54 333.13 106.54 333.37 105.26 328.48 105.26 330.82 92.45"></polygon>
            <path d="M339.27,92.45 L336.69,106.55 L343.84,106.55 L344.08,105.26 L338.56,105.26 L339.56,99.83 L343.45,99.83 L343.68,98.54 L339.8,98.54 L340.68,93.74 L345.94,93.74 L346.18,92.45 L339.27,92.45 Z M345.77,89.02 L344.16,89.02 L341.62,91.71 L342.62,91.71 L345.77,89.02 Z" id="Shape"></path>
            <path d="M15.83,88.88 L8.45,106.5 L10.45,106.5 L12.53,101.28 L17.33,101.28 L17.5,106.5 L19.5,106.5 L18.57,88.88 L15.83,88.88 Z M16.97,90.2 L17.03,90.2 L17.38,99.67 L13.16,99.67 L16.97,90.2 Z" id="Shape"></path>
            <path d="M33.3,96.74 C33.5,94.48 32.92,92.21 30.14,92.21 C27.36,92.21 25.46,94.13 24.49,99.46 C23.52,104.79 24.83,106.7 27.49,106.7 C28.6218365,106.726666 29.7119606,106.272447 30.49,105.45 L30.49,106.45 L31.49,106.45 L32.7,99.86 L29.02,99.86 L28.79,101.14 L30.79,101.14 L30.43,103.14 C30.2627778,104.510733 29.0348288,105.499299 27.66,105.37 C25.84,105.37 25.24,103.85 26.06,99.42 C26.88,94.99 28.06,93.42 29.84,93.42 C31.49,93.42 31.84,94.83 31.61,96.66 L33.3,96.74 Z" id="Path"></path>
            <path d="M38.58,92.41 L36,106.5 L43.16,106.5 L43.4,105.22 L37.86,105.22 L38.86,99.79 L42.74,99.79 L42.98,98.5 L39.09,98.5 L39.97,93.7 L45.24,93.7 L45.47,92.41 L38.58,92.41 Z M39.28,91.67 L40.61,91.67 L42.46,89.67 L43.58,91.67 L44.92,91.67 L43.3,88.97 L41.88,88.97 L39.28,91.67 Z" id="Shape"></path>
            <polygon id="Path" points="49.58 92.4 47 106.5 48.63 106.5 50.87 94.24 50.91 94.24 53.35 106.5 55.11 106.5 57.69 92.4 56.06 92.4 54.16 102.79 54.11 102.79 52.13 92.4"></polygon>
            <path d="M69.16,96.66 C69.46,93.66 68.35,92.21 66.11,92.21 C63.42,92.21 61.4,94.13 60.42,99.46 C59.44,104.79 60.77,106.7 63.42,106.7 C66.07,106.7 67.78,104.94 68.42,101.82 L66.79,101.82 C66.27,104.43 65.21,105.41 63.69,105.41 C61.79,105.41 61.24,103.85 62.04,99.46 C62.84,95.07 63.97,93.46 65.87,93.46 C67.14,93.46 67.72,94.4 67.52,96.62 L69.16,96.66 Z" id="Path"></path>
            <polygon id="Path" points="74.68 92.4 72.1 106.5 73.73 106.5 76.31 92.4"></polygon>
            <path d="M83.25,92.41 L77.35,106.5 L78.98,106.5 L80.64,102.33 L84.48,102.33 L84.62,106.5 L86.25,106.5 L85.51,92.41 L83.25,92.41 Z M84.16,93.46 L84.21,93.46 L84.49,101.04 L81.16,101.04 L84.16,93.46 Z" id="Shape"></path>
            <polygon id="Path" points="99.6 88.88 96.37 106.5 98.41 106.5 101.21 91.17 101.27 91.17 104.31 106.5 106.5 106.5 109.73 88.88 107.69 88.88 105.32 101.86 105.27 101.86 102.78 88.88"></polygon>
            <path d="M116.48,92.41 L110.58,106.5 L112.21,106.5 L113.87,102.33 L117.72,102.33 L117.85,106.5 L119.48,106.5 L118.74,92.41 L116.48,92.41 Z M117.4,93.46 L117.4,93.46 L117.68,101.04 L114.3,101.04 L117.4,93.46 Z" id="Shape"></path>
            <path d="M132.59,96.66 C132.89,93.66 131.78,92.21 129.54,92.21 C126.85,92.21 124.83,94.13 123.85,99.46 C122.87,104.79 124.2,106.7 126.85,106.7 C129.5,106.7 131.21,104.94 131.85,101.82 L130.22,101.82 C129.7,104.43 128.64,105.41 127.12,105.41 C125.22,105.41 124.67,103.85 125.47,99.46 C126.27,95.07 127.4,93.46 129.3,93.46 C130.57,93.46 131.15,94.4 130.96,96.62 L132.59,96.66 Z" id="Path"></path>
            <polygon id="Path" points="138.07 92.4 135.49 106.5 137.12 106.5 139.7 92.4"></polygon>
            <path d="M151.33,99.46 C152.33,94.2 150.94,92.21 148.39,92.21 C145.84,92.21 143.76,94.21 142.8,99.46 C141.84,104.71 143.19,106.7 145.74,106.7 C148.29,106.7 150.36,104.7 151.33,99.46 M149.7,99.46 C148.82,104.24 147.44,105.41 145.97,105.41 C144.5,105.41 143.55,104.24 144.43,99.46 C145.31,94.68 146.69,93.46 148.15,93.46 C149.61,93.46 150.57,94.67 149.7,99.46 Z" id="Shape"></path>
            <polygon id="Path" points="156.69 92.4 154.1 106.5 155.74 106.5 157.98 94.24 158.02 94.24 160.46 106.5 162.21 106.5 164.79 92.4 163.16 92.4 161.26 102.79 161.22 102.79 159.23 92.4"></polygon>
            <path d="M171.41,92.41 L165.5,106.5 L167.16,106.5 L168.83,102.33 L172.67,102.33 L172.8,106.5 L174.43,106.5 L173.69,92.41 L171.41,92.41 Z M172.32,93.46 L172.32,93.46 L172.61,101.04 L169.26,101.04 L172.32,93.46 Z" id="Shape"></path>
            <polygon id="Path" points="180.49 92.4 177.91 106.5 184.43 106.5 184.66 105.21 179.77 105.21 182.12 92.4"></polygon>
            <path d="M194.5,106.5 L197.3,106.5 C200.48,106.5 202.7,104.86 203.69,99.5 C204.68,94.14 203.06,92.45 199.88,92.45 L197.08,92.45 L194.5,106.5 Z M198.5,93.7 L199.38,93.7 C201.76,93.7 202.97,94.63 202.09,99.46 C201.21,104.29 199.65,105.22 197.27,105.22 L196.39,105.22 L198.5,93.7 Z" id="Shape"></path>
            <polygon id="Path" points="209.46 92.4 206.88 106.5 214.03 106.5 214.27 105.21 208.75 105.21 209.74 99.78 213.63 99.78 213.87 98.5 209.98 98.5 210.86 93.69 216.12 93.69 216.36 92.4"></polygon>
            <polygon id="Path" points="349.28 92.45 349.04 93.74 352.14 93.74 349.79 106.54 351.42 106.54 353.77 93.74 356.86 93.74 357.1 92.45"></polygon>
            <path d="M358.02,106.55 L359.65,106.55 L360.85,99.95 L363,99.87 L364.2,106.55 L365.91,106.55 L364.64,99.55 C366.249607,99.095498 367.445664,97.743094 367.7,96.09 C368.13,93.77 366.7,92.44 364.23,92.44 L360.6,92.44 L358.02,106.55 Z M362.02,93.74 L363.44,93.74 C365.78,93.74 366.38,94.6 366.09,96.18 C365.8,97.76 364.89,98.62 362.55,98.62 L361.13,98.62 L362.02,93.74 Z" id="Shape"></path>
            <polygon id="Path" points="373.13 92.45 370.55 106.54 372.18 106.54 374.76 92.45"></polygon>
            <path d="M386.64,96.71 C386.94,93.71 385.82,92.26 383.59,92.26 C380.89,92.26 378.87,94.17 377.89,99.5 C376.91,104.83 378.24,106.74 380.89,106.74 C383.54,106.74 385.25,104.99 385.89,101.86 L384.26,101.86 C383.74,104.48 382.69,105.45 381.16,105.45 C379.26,105.45 378.71,103.89 379.51,99.45 C380.31,95.01 381.44,93.5 383.34,93.5 C384.61,93.5 385.19,94.43 385,96.66 L386.64,96.71 Z" id="Path"></path>
            <path d="M394.16,92.45 L388.26,106.55 L389.89,106.55 L391.55,102.37 L395.4,102.37 L395.53,106.55 L397.16,106.55 L396.42,92.45 L394.16,92.45 Z M395.08,93.51 L395.08,93.51 L395.36,101.08 L391.98,101.08 L395.08,93.51 Z" id="Shape"></path>
            <path d="M105.92,14.22 L108.42,0.02 L113.63,0.02 C133.26,0.02 146.37,15.94 142.91,35.57 C139.45,55.2 120.72,71.11 101.09,71.11 L95.9,71.11 L98.39,56.95 L75.98,56.95 L78.49,42.72 L100.49,42.95 L103.38,28.49 L81,28.49 L83.51,14.26 L105.92,14.22 Z" id="Path"></path>
            <path d="M30.74,71.04 C8.36,71.04 -1.39,51.88 1.49,35.54 C4.55,18.16 19.74,0.04 43.26,0.04 L69.8,0.04 L67.29,14.26 L44.89,14.26 L42.38,28.49 L64.78,28.49 L62.27,42.72 L39.87,42.72 L37.36,56.95 L59.77,56.95 L57.28,71.04 L30.74,71.04 Z" id="Path"></path>
            <path d="M169.57,70.69 L175.96,55.91 L194.53,55.91 L195.33,70.69 L208.16,70.69 L203.62,0.49 L186.42,0.49 L156.63,70.69 L169.57,70.69 Z M192.1,15.69 L192.3,15.69 L193.8,44.08 L180.48,44.08 L192.1,15.69 Z" id="Shape"></path>
            <polygon id="Path" points="226.4 70.68 234.39 25.38 234.59 25.38 247.11 70.68 259.94 70.68 272.32 0.49 260.07 0.49 252.73 42.1 252.54 42.1 241.21 0.49 226.53 0.49 214.15 70.68"></polygon>
            <polygon id="Path" points="308.42 70.68 310.51 58.82 286.2 58.82 289.46 40.35 307.25 40.35 309.34 28.49 291.55 28.49 294.4 12.35 317.73 12.35 319.82 0.49 283.07 0.49 270.69 70.68"></polygon>
            <polygon id="Path" points="356 70.68 358.09 58.82 333.79 58.82 337.04 40.35 354.84 40.35 356.93 28.49 339.13 28.49 341.98 12.35 365.31 12.35 367.41 0.49 330.65 0.49 318.28 70.68"></polygon>
            <polygon id="Path" points="400.3 70.68 402.39 58.82 380.81 58.82 391.1 0.49 377.68 0.49 365.3 70.68"></polygon>
            <polygon id="Path" points="438.42 106.55 457.1 0.49 454.49 0.49 435.81 106.55"></polygon>
            <path d="M939.75,43.17 C936.623333,43.17 934.21,42.48 932.51,41.1 C930.804032,39.6989419 929.858928,37.5752382 929.96,35.37 C929.942322,33.8002264 930.227529,32.2417725 930.8,30.78 C931.34087,29.4055497 932.157673,28.1565223 933.2,27.11 C934.26371,26.0434528 935.541948,25.2151547 936.95,24.68 C938.542737,24.0593204 940.240801,23.753669 941.95,23.78 C944.683333,23.78 946.743333,24.3333333 948.13,25.44 C949.5594,26.6437253 950.331516,28.4552286 950.21,30.32 C950.212601,31.0523363 950.13887,31.7829497 949.99,32.5 C949.839946,33.2112395 949.646247,33.9125662 949.41,34.6 L935.79,34.6 L935.79,34.98 C935.730987,36.136791 936.2291,37.2519702 937.13,37.98 C938.319365,38.7687915 939.736457,39.1415255 941.16,39.04 C942.406293,39.0497146 943.643679,38.8293582 944.81,38.39 C945.853023,38.0012625 946.857398,37.5158148 947.81,36.94 L948.46,36.94 L947.36,41.65 C946.200426,42.1567495 944.990304,42.5388933 943.75,42.79 C942.432922,43.0514295 941.092745,43.1787463 939.75,43.17 M944.23,31.17 C944.23,30.97 944.29,30.79 944.3,30.63 C944.310233,30.460154 944.310233,30.289846 944.3,30.12 C944.354899,29.3658102 944.059886,28.6282759 943.5,28.12 C942.841932,27.6195649 942.024865,27.3744447 941.2,27.43 C940.115384,27.4125181 939.057203,27.7652451 938.2,28.43 C937.336648,29.1499663 936.68942,30.0948492 936.33,31.16 L944.23,31.17 Z M907.23,40.75 L905.9,41.62 C905.434383,41.9205031 904.946267,42.1846208 904.44,42.41 C903.887766,42.6522162 903.315639,42.846271 902.73,42.99 C901.999568,43.1370946 901.254804,43.2008356 900.51,43.18 C899.150193,43.2358457 897.818993,42.7790262 896.78,41.9 C895.822601,41.0595375 895.29385,39.8331304 895.34,38.56 C895.294175,37.260508 895.642796,35.9775821 896.34,34.88 C897.111453,33.8033449 898.172537,32.967655 899.4,32.47 C900.839086,31.8550106 902.357131,31.4443644 903.91,31.25 C905.66,31 907.55,30.81 909.58,30.7 C909.58,30.63 909.58,30.52 909.65,30.38 C909.666251,30.2137295 909.666251,30.0462705 909.65,29.88 C909.685378,29.1588999 909.247838,28.4985396 908.57,28.25 C907.536049,27.8917909 906.442891,27.7356256 905.35,27.79 C904.265856,27.8051619 903.189006,27.9700546 902.15,28.28 C900.98,28.61 900.15,28.87 899.51,29.1 L898.97,29.1 L899.84,24.75 C900.52,24.58 901.58,24.38 903.02,24.16 C904.440389,23.9498076 905.874146,23.8428607 907.31,23.84 C910.18,23.84 912.31,24.21 913.64,24.96 C914.926978,25.6371268 915.706434,26.9972787 915.64,28.45 C915.635608,28.7375425 915.615579,29.0246333 915.58,29.31 C915.546256,29.6157901 915.496184,29.9195571 915.43,30.22 L912.55,42.69 L906.7,42.69 L907.23,40.75 Z M908.79,34.04 C907.79,34.13 906.79,34.23 905.85,34.35 C905.053604,34.4443045 904.269307,34.6219445 903.51,34.88 C902.921842,35.0630188 902.398042,35.4099062 902,35.88 C901.628151,36.3816205 901.440933,36.9962614 901.47,37.62 C901.425417,38.1616195 901.698304,38.6801062 902.17,38.95 C902.796758,39.2345545 903.482554,39.3648557 904.17,39.33 C904.806773,39.3179125 905.435112,39.1820553 906.02,38.93 C906.671634,38.6658611 907.292069,38.3304907 907.87,37.93 L908.79,34.04 Z M882.91,43.2 C881.379301,43.2021304 879.852052,43.0547643 878.35,42.76 C877.18706,42.5644885 876.052113,42.2287053 874.97,41.76 L876.1,36.93 L876.64,36.93 C876.88,37.13 877.18,37.36 877.54,37.61 C878.031669,37.9258947 878.554396,38.1906089 879.1,38.4 C879.747051,38.6703713 880.416192,38.8844963 881.1,39.04 C881.91013,39.2251684 882.738998,39.3157734 883.57,39.31 C884.590226,39.3661976 885.611162,39.2130571 886.57,38.86 C887.144963,38.676101 887.544197,38.1531051 887.57,37.55 C887.568332,37.1032122 887.28923,36.7044947 886.87,36.55 C885.926479,36.1828322 884.95281,35.8984271 883.96,35.7 C882.11488,35.4079077 880.362449,34.6925598 878.84,33.61 C877.958451,32.8636906 877.45306,31.7650141 877.46,30.61 C877.428701,28.5957982 878.493206,26.7233431 880.24,25.72 C882.521017,24.4183675 885.127091,23.7972126 887.75,23.93 C889.130655,23.9311047 890.507659,24.0718205 891.86,24.35 C892.891773,24.526574 893.898858,24.8253427 894.86,25.24 L893.79,29.88 L893.28,29.88 C892.43165,29.2428375 891.486208,28.7464805 890.48,28.41 C889.394813,28.0404441 888.256386,27.8512695 887.11,27.85 C886.12948,27.8043065 885.149845,27.9573744 884.23,28.3 C883.636822,28.5001357 883.235476,29.0539928 883.23,29.68 C883.253261,30.1956099 883.603616,30.6385875 884.1,30.78 C884.979084,31.1303897 885.889989,31.3949541 886.82,31.57 C888.599085,31.854655 890.300843,32.5013231 891.82,33.47 C892.834106,34.2128078 893.408577,35.414316 893.35,36.67 C893.369878,38.6760634 892.291987,40.5326437 890.54,41.51 C888.190659,42.7857449 885.52742,43.3683284 882.86,43.19 L882.91,43.2 Z M876.36,17.29 L875.36,21.75 L869.13,21.75 L870.13,17.29 L876.36,17.29 Z M874.56,24.36 L870.32,42.69 L864.41,42.69 L868.66,24.36 L874.56,24.36 Z M863.12,24.36 L858.88,42.69 L852.97,42.69 L853.44,40.69 C852.85,41.07 852.28,41.43 851.72,41.76 C851.212934,42.0671699 850.681083,42.331423 850.13,42.55 C849.574206,42.7887345 848.994143,42.9664417 848.4,43.08 C847.885633,43.1761542 847.363268,43.2230331 846.84,43.22 C845.472892,43.295156 844.123273,42.8842484 843.03,42.06 C842.060749,41.1934381 841.547466,39.9268481 841.64,38.63 C841.638725,38.2458522 841.658756,37.8619294 841.7,37.48 C841.7,37.13 841.82,36.74 841.92,36.32 L844.68,24.38 L850.62,24.38 L848.51,33.47 C848.35,34.17 848.23,34.77 848.14,35.27 C848.067162,35.6895857 848.027042,36.1141973 848.02,36.54 C847.96166,37.110503 848.151027,37.6786013 848.54,38.1 C849.129277,38.4906737 849.8376,38.6606712 850.54,38.58 C851.106327,38.5658777 851.666746,38.4612212 852.2,38.27 C852.893012,38.0323634 853.562536,37.7310778 854.2,37.37 L857.2,24.37 L863.12,24.36 Z M839.32,24.36 L833.53,49.42 L827.61,49.42 L829.61,40.9 L828.1,41.84 C827.651874,42.1202531 827.183976,42.367571 826.7,42.58 C826.200511,42.8026168 825.67707,42.967031 825.14,43.07 C824.615015,43.1612743 824.082839,43.2047856 823.55,43.2 C821.94918,43.2687081 820.397741,42.6371811 819.3,41.47 C818.161534,40.0930129 817.59269,38.3328169 817.71,36.55 C817.693952,34.8188906 817.999112,33.099819 818.61,31.48 C819.160368,30.0011975 819.965912,28.6304187 820.99,27.43 C821.945172,26.3293612 823.11154,25.4316322 824.42,24.79 C825.640969,24.1804996 826.985385,23.8589345 828.35,23.85 C829.245579,23.8384515 830.138129,23.9563355 831,24.2 C831.771526,24.4419599 832.510396,24.77781 833.2,25.2 L833.61,24.39 L839.32,24.36 Z M832.42,28.64 C832.021087,28.4518594 831.601584,28.3109064 831.17,28.22 C830.72958,28.101127 830.276122,28.0373071 829.82,28.03 C828.890996,27.9974478 827.971899,28.2298235 827.17,28.7 C826.463924,29.1306477 825.854504,29.7026177 825.38,30.38 C824.873098,31.1069634 824.4943,31.9152899 824.26,32.77 C823.994347,33.7103439 823.859744,34.6828521 823.86,35.66 C823.811546,36.4965182 824.047696,37.3248043 824.53,38.01 C825.174677,38.6368621 826.066544,38.9414916 826.96,38.84 C827.541386,38.8310592 828.115443,38.7087749 828.65,38.48 C829.237367,38.2472135 829.802918,37.9627646 830.34,37.63 L832.42,28.64 Z M804.42,43.2 C802.889301,43.2021304 801.362052,43.0547643 799.86,42.76 C798.696724,42.5659439 797.561603,42.2301091 796.48,41.76 L797.61,36.93 L798.15,36.93 C798.39,37.13 798.69,37.36 799.05,37.61 C799.541669,37.9258947 800.064396,38.1906089 800.61,38.4 C801.257051,38.6703713 801.926192,38.8844963 802.61,39.04 C803.42013,39.2251684 804.248998,39.3157734 805.08,39.31 C806.100226,39.3661976 807.121162,39.2130571 808.08,38.86 C808.654963,38.676101 809.054197,38.1531051 809.08,37.55 C809.072693,37.105021 808.7956,36.7091741 808.38,36.55 C807.436479,36.1828322 806.46281,35.8984271 805.47,35.7 C803.62488,35.4079077 801.872449,34.6925598 800.35,33.61 C799.468451,32.8636906 798.96306,31.7650141 798.97,30.61 C798.934509,28.5973347 799.99548,26.7243561 801.74,25.72 C804.024544,24.4180772 806.633891,23.7969693 809.26,23.93 C810.640655,23.9311047 812.017659,24.0718205 813.37,24.35 C814.401773,24.526574 815.408858,24.8253427 816.37,25.24 L815.29,29.88 L814.79,29.88 C813.94165,29.2428375 812.996208,28.7464805 811.99,28.41 C810.904813,28.0404441 809.766386,27.8512695 808.62,27.85 C807.639375,27.8023514 806.659349,27.9554804 805.74,28.3 C805.146822,28.5001357 804.745476,29.0539928 804.74,29.68 C804.763261,30.1956099 805.113616,30.6385875 805.61,30.78 C806.489084,31.1303897 807.399989,31.3949541 808.33,31.57 C810.109085,31.854655 811.810843,32.5013231 813.33,33.47 C814.344106,34.2128078 814.918577,35.414316 814.86,36.67 C814.879878,38.6760634 813.801987,40.5326437 812.05,41.51 C809.709442,42.7801824 807.057403,43.362591 804.4,43.19 L804.42,43.2 Z M785.5,43.2 C782.366667,43.2 779.956667,42.51 778.27,41.13 C776.564032,39.7289419 775.618928,37.6052382 775.72,35.4 C775.704061,33.8312915 775.985702,32.2737854 776.55,30.81 C777.095584,29.4379913 777.9118,28.1898619 778.95,27.14 C780.015648,26.0710659 781.297679,25.2425194 782.71,24.71 C784.283912,24.0966803 785.960916,23.7911534 787.65,23.81 C790.39,23.81 792.44,24.36 793.83,25.47 C795.263406,26.6707581 796.036431,28.4843937 795.91,30.35 C795.912601,31.0823363 795.83887,31.8129497 795.69,32.53 C795.544604,33.2423648 795.350822,33.9439908 795.11,34.63 L781.48,34.63 L781.48,35.01 C781.415993,36.1677177 781.915077,37.2850708 782.82,38.01 C784.022505,38.8209888 785.463879,39.2015961 786.91,39.09 C788.156371,39.100635 789.393924,38.8802488 790.56,38.44 C791.60389,38.0532969 792.608453,37.5677582 793.56,36.99 L794.21,36.99 L793.12,41.7 C791.959875,42.2052815 790.749911,42.5873755 789.51,42.84 C788.181264,43.0858601 786.831032,43.196425 785.48,43.17 L785.5,43.2 Z M789.98,31.2 C790.018461,31.0219457 790.045185,30.8415574 790.06,30.66 C790.06,30.5 790.06,30.32 790.06,30.15 C790.119522,29.3951 789.823723,28.6556019 789.26,28.15 C788.601932,27.6495649 787.784865,27.4044447 786.96,27.46 C785.875013,27.4400978 784.816048,27.793086 783.96,28.46 C783.090252,29.1741263 782.441664,30.1209959 782.09,31.19 L789.98,31.2 Z M768.44,25.74 C768.502799,24.9121685 768.122262,24.1130409 767.44,23.64 C766.511302,23.1202795 765.451968,22.8806268 764.39,22.95 L761.86,22.95 L760.16,30.19 L762.42,30.19 C763.990324,30.2863148 765.550116,29.8762122 766.87,29.02 C767.912449,28.2446902 768.494959,26.9969916 768.42,25.7 L768.44,25.74 Z M775.13,25.14 C775.177663,27.9289007 773.826294,30.5565625 771.53,32.14 C769.13,33.9066667 765.776667,34.79 761.47,34.79 L759.06,34.79 L757.24,42.71 L750.93,42.71 L756.55,18.41 L765.28,18.41 C766.673486,18.3907986 768.065845,18.4979032 769.44,18.73 C770.520352,18.9113902 771.557816,19.2911154 772.5,19.85 C773.322255,20.3602526 773.992285,21.0820891 774.44,21.94 C774.931554,22.9197736 775.178591,24.0039908 775.16,25.1 L775.13,25.14 Z M727.37,43.21 C724.236667,43.21 721.823333,42.52 720.13,41.14 C718.427764,39.7369206 717.486504,37.6135261 717.59,35.41 C717.569137,33.840879 717.850945,32.2824473 718.42,30.82 C718.96087,29.4455497 719.777673,28.1965223 720.82,27.15 C721.88371,26.0834528 723.161948,25.2551547 724.57,24.72 C726.162737,24.0993204 727.860801,23.793669 729.57,23.82 C732.303333,23.82 734.363333,24.3733333 735.75,25.48 C737.1794,26.6837253 737.951516,28.4952286 737.83,30.36 C737.832601,31.0923363 737.75887,31.8229497 737.61,32.54 C737.459946,33.2512395 737.266247,33.9525662 737.03,34.64 L723.34,34.64 L723.34,35.02 C723.280987,36.176791 723.7791,37.2919702 724.68,38.02 C725.886244,38.8310086 727.33075,39.2115127 728.78,39.1 C730.026371,39.110635 731.263924,38.8902488 732.43,38.45 C733.473023,38.0612625 734.477398,37.5758148 735.43,37 L736.08,37 L734.98,41.71 C733.820426,42.2167495 732.610304,42.5988933 731.37,42.85 C730.044374,43.0931358 728.697397,43.2003579 727.35,43.17 L727.37,43.21 Z M731.85,31.21 C731.85,31.01 731.91,30.83 731.92,30.67 C731.930233,30.500154 731.930233,30.329846 731.92,30.16 C731.974899,29.4058102 731.679886,28.6682759 731.12,28.16 C730.461932,27.6595649 729.644865,27.4144447 728.82,27.47 C727.735384,27.4525181 726.677203,27.8052451 725.82,28.47 C724.956648,29.1899663 724.30942,30.1348492 723.95,31.2 L731.85,31.21 Z M708.85,28.68 C708.451087,28.4918594 708.031584,28.3509064 707.6,28.26 C707.15958,28.141127 706.706122,28.0773071 706.25,28.07 C705.367623,28.0577882 704.496754,28.2712025 703.72,28.69 C702.965766,29.1088915 702.31352,29.6894238 701.81,30.39 C701.291936,31.1348003 700.915645,31.9687421 700.7,32.85 C700.436436,33.7876156 700.298564,34.7560824 700.29,35.73 C700.140983,36.593496 700.417092,37.4758994 701.031725,38.1004455 C701.646357,38.7249917 702.52423,39.0151825 703.39,38.88 C703.971386,38.8710592 704.545443,38.7487749 705.08,38.52 C705.667367,38.2872135 706.232918,38.0027646 706.77,37.67 L708.85,28.68 Z M717.38,17.33 L711.5,42.73 L705.6,42.73 L706.04,40.82 C705.47,41.18 704.97,41.51 704.54,41.82 C704.084203,42.1194581 703.606138,42.383564 703.11,42.61 C702.647446,42.8207049 702.165068,42.9848473 701.67,43.1 C701.107087,43.2124647 700.534005,43.2660865 699.96,43.26 C698.35918,43.3287081 696.807741,42.6971811 695.71,41.53 C694.571534,40.1530129 694.00269,38.3928169 694.12,36.61 C694.108207,34.9398585 694.392608,33.2808525 694.96,31.71 C695.490268,30.2336546 696.271776,28.860095 697.27,27.65 C698.206722,26.5217089 699.363606,25.5962016 700.67,24.93 C701.931327,24.2679675 703.335498,23.9246495 704.76,23.93 C705.64263,23.9163196 706.523307,24.0171605 707.38,24.23 C708.173399,24.4552481 708.938385,24.7706372 709.66,25.17 L711.47,17.37 L717.38,17.33 Z M671.41,40.74 L670.07,41.61 C669.608947,41.9123149 669.124006,42.1765241 668.62,42.4 C668.063806,42.6408617 667.488475,42.8348688 666.9,42.98 C666.169568,43.1270946 665.424804,43.1908356 664.68,43.17 C663.32048,43.223887 661.98997,42.7673044 660.95,41.89 C659.992601,41.0495375 659.46385,39.8231304 659.51,38.55 C659.459721,37.2499971 659.808696,35.9657682 660.51,34.87 C661.265218,33.8021778 662.304492,32.9672944 663.51,32.46 C664.949086,31.8450106 666.467131,31.4343644 668.02,31.24 C669.77,30.99 671.66,30.8 673.7,30.69 C673.7,30.62 673.7,30.51 673.76,30.37 C673.797621,30.2060982 673.81442,30.0381059 673.81,29.87 C673.845378,29.1488999 673.407838,28.4885396 672.73,28.24 C671.699316,27.8825769 670.609582,27.7264155 669.52,27.78 C668.432627,27.7957676 667.352557,27.9606381 666.31,28.27 C665.14,28.6 664.26,28.86 663.67,29.09 L663.14,29.09 L664,24.74 C664.68,24.57 665.74,24.37 667.18,24.15 C668.603702,23.9394302 670.040812,23.8324825 671.48,23.83 C674.346667,23.83 676.453333,24.2033333 677.8,24.95 C679.090564,25.623403 679.87146,26.9860675 679.8,28.44 C679.795608,28.7275425 679.775579,29.0146333 679.74,29.3 C679.711152,29.6064433 679.661031,29.9105099 679.59,30.21 L676.71,42.68 L670.87,42.68 L671.41,40.74 Z M672.96,34.04 C671.96,34.13 670.96,34.23 670.02,34.35 C669.226848,34.4441909 668.445855,34.6218418 667.69,34.88 C667.097736,35.0602806 666.569999,35.4074761 666.17,35.88 C665.801705,36.3829318 665.618054,36.9974561 665.65,37.62 C665.60345,38.1594637 665.872155,38.6774029 666.34,38.95 C666.966758,39.2345545 667.652554,39.3648557 668.34,39.33 C668.976773,39.3179125 669.605112,39.1820553 670.19,38.93 C670.843626,38.6701059 671.46453,38.3344819 672.04,37.93 L672.96,34.04 Z M657.53,28.44 C657.53,28.78 657.53,29.14 657.46,29.54 C657.407457,29.9501427 657.334028,30.3573383 657.24,30.76 L654.48,42.69 L648.54,42.69 L650.65,33.53 C650.8,32.9 650.93,32.3 651.04,31.72 C651.143651,31.2602461 651.200607,30.7911996 651.21,30.32 C651.257236,29.801675 651.065838,29.2900525 650.69,28.93 C650.134553,28.5844691 649.481389,28.4299574 648.83,28.49 C648.332763,28.50376 647.841875,28.6053231 647.38,28.79 C646.695624,29.0527988 646.027741,29.3566852 645.38,29.7 L642.38,42.7 L636.43,42.7 L638.56,33.54 C638.68,33.01 638.8,32.43 638.92,31.81 C639.022309,31.3429959 639.08255,30.8677609 639.1,30.39 C639.146708,29.8606114 638.964734,29.336527 638.6,28.95 C638.054149,28.5900674 637.400187,28.4309958 636.75,28.5 C636.220534,28.5126224 635.698148,28.6245623 635.21,28.83 C634.569045,29.0843268 633.944509,29.3782261 633.34,29.71 L630.34,42.71 L624.43,42.71 L628.68,24.38 L634.58,24.38 L634.11,26.38 C635.144739,25.6842937 636.227447,25.062739 637.35,24.52 C638.332766,24.0734317 639.400544,23.8448657 640.48,23.85 C641.537346,23.8237316 642.579561,24.1051297 643.48,24.66 C644.323476,25.2156575 644.937843,26.0573039 645.21,27.03 C646.439643,26.1162402 647.75202,25.3194399 649.13,24.65 C650.175338,24.1432688 651.318494,23.8702764 652.48,23.85 C653.847317,23.7354619 655.204883,24.1628436 656.26,25.04 C657.145692,25.9382749 657.60747,27.1708945 657.53,28.43 L657.53,28.44 Z M613.69,40.74 L612.35,41.61 C611.888947,41.9123149 611.404006,42.1765241 610.9,42.4 C610.346618,42.6392456 609.774743,42.8332148 609.19,42.98 C608.459388,43.1258333 607.714767,43.1895621 606.97,43.17 C605.609906,43.2278211 604.278007,42.7707617 603.24,41.89 C602.27651,41.0531822 601.743451,39.8253078 601.79,38.55 C601.739721,37.2499971 602.088696,35.9657682 602.79,34.87 C603.558751,33.7948287 604.616196,32.9592744 605.84,32.46 C607.282555,31.8449821 608.803903,31.4343528 610.36,31.24 C612.11,30.99 614,30.8 616.03,30.69 C616.046079,30.5818748 616.069466,30.4749632 616.1,30.37 C616.116251,30.2037295 616.116251,30.0362705 616.1,29.87 C616.135378,29.1488999 615.697838,28.4885396 615.02,28.24 C613.986049,27.8817909 612.892891,27.7256256 611.8,27.78 C610.715856,27.7951619 609.639006,27.9600546 608.6,28.27 C607.43,28.6 606.6,28.86 605.96,29.09 L605.42,29.09 L606.28,24.74 C606.97,24.57 608.03,24.37 609.47,24.15 C610.890346,23.9394224 612.324131,23.8324734 613.76,23.83 C616.626667,23.83 618.736667,24.2033333 620.09,24.95 C621.378765,25.6252724 622.158938,26.9866742 622.09,28.44 C622.09,28.66 622.09,28.95 622.09,29.3 C622.053283,29.6060214 621.99987,29.9098077 621.93,30.21 L619.06,42.68 L613.21,42.68 L613.69,40.74 Z M615.25,34.03 C614.2,34.12 613.25,34.22 612.25,34.34 C611.457049,34.4353504 610.676175,34.612974 609.92,34.87 C609.330099,35.0552876 608.803661,35.4016279 608.4,35.87 C608.031705,36.3729318 607.848054,36.9874561 607.88,37.61 C607.832872,38.1521355 608.106438,38.671912 608.58,38.94 C609.20652,39.2253034 609.8925,39.3556396 610.58,39.32 C611.217012,39.3099817 611.845749,39.1740386 612.43,38.92 C613.085847,38.6581332 613.709843,38.3226515 614.29,37.92 L615.25,34.03 Z M601.78,29.95 L601.25,29.95 C600.889533,29.8383478 600.516768,29.7711829 600.14,29.75 C599.67,29.75 599.14,29.69 598.72,29.69 C597.973262,29.685393 597.227411,29.7422515 596.49,29.86 C595.736075,29.9816808 594.993533,30.1656439 594.27,30.41 L591.43,42.68 L585.52,42.68 L589.76,24.35 L595.67,24.35 L595.05,27.04 C596.088704,26.2665215 597.20068,25.596656 598.37,25.04 C599.413887,24.5429156 600.553846,24.2801107 601.71,24.27 L602.41,24.27 L603.09,24.32 L601.78,29.95 Z M577.34,28.6 C576.937128,28.4243971 576.518613,28.2871244 576.09,28.19 C575.644814,28.0793852 575.188634,28.0190085 574.73,28.01 C573.081741,27.9639706 571.510386,28.7069277 570.5,30.01 C569.387157,31.4631592 568.820785,33.2613894 568.9,35.09 C568.762908,35.9481683 569.056944,36.8188372 569.686256,37.4181817 C570.315567,38.0175262 571.199536,38.2687657 572.05,38.09 C572.648381,38.0856057 573.241114,37.9738332 573.8,37.76 C574.381895,37.5419788 574.943965,37.2743263 575.48,36.96 L577.34,28.6 Z M584.23,24.35 L580.54,40.58 C580.21824,42.1141317 579.636524,43.5819496 578.82,44.92 C578.133148,46.023448 577.215443,46.9650343 576.13,47.68 C575.048404,48.3818236 573.849271,48.8831556 572.59,49.16 C571.180483,49.4626969 569.741553,49.6069253 568.3,49.59 C567.032769,49.5932669 565.766697,49.5130935 564.51,49.35 C563.481438,49.2224363 562.460097,49.0421995 561.45,48.81 L562.35,44.3 L563.07,44.3 C563.961844,44.6431923 564.877627,44.9206011 565.81,45.13 C567.507352,45.5247349 569.272648,45.5247349 570.97,45.13 C571.624232,44.9905577 572.239148,44.7070133 572.77,44.3 C573.237985,43.9176376 573.619692,43.4405041 573.89,42.9 C574.194391,42.2623381 574.422629,41.5910486 574.57,40.9 L574.64,40.55 C573.853067,41.1039101 573.003945,41.5637113 572.11,41.92 C571.205615,42.2734521 570.240856,42.4467009 569.27,42.43 C567.526215,42.5328347 565.80699,41.979972 564.45,40.88 C563.210681,39.6513427 562.574361,37.9398596 562.71,36.2 C562.581835,32.9612226 563.673834,29.7922847 565.77,27.32 C567.58434,25.1072887 570.298566,23.8291416 573.16,23.84 C574.123194,23.831195 575.082762,23.9591374 576.01,24.22 C576.745024,24.4141908 577.441637,24.7320626 578.07,25.16 L578.48,24.35 L584.23,24.35 Z M552.72,37.04 C553.221816,36.2677792 553.606017,35.4252327 553.86,34.54 C554.133267,33.4618688 554.261067,32.3520242 554.24,31.24 C554.300736,30.3216269 554.042909,29.4104039 553.51,28.66 C552.915505,28.0070187 552.049457,27.6702226 551.17,27.75 C550.400752,27.7361842 549.643842,27.9445083 548.99,28.35 C548.321575,28.7957258 547.755699,29.3786459 547.33,30.06 C546.865763,30.8526675 546.528352,31.7130638 546.33,32.61 C546.072776,33.6299084 545.945103,34.6781666 545.95,35.73 C545.853556,36.7018091 546.15275,37.6714868 546.78,38.42 C547.406079,38.9823832 548.229557,39.2736572 549.07,39.23 C549.775824,39.2142921 550.465282,39.0143494 551.07,38.65 C551.731469,38.2408998 552.294793,37.6912317 552.72,37.04 L552.72,37.04 Z M560.36,31.04 C560.370962,32.6890316 560.079476,34.326098 559.5,35.87 C558.405407,38.7884293 556.154918,41.1257541 553.28,42.33 C551.689434,42.9593298 549.990304,43.2685713 548.28,43.24 C546.00777,43.3771587 543.765749,42.6642745 541.99,41.24 C540.505418,39.8350803 539.709051,37.8514679 539.81,35.81 C539.802312,34.224247 540.076579,32.6497534 540.62,31.16 C541.152278,29.7145061 541.975989,28.3938461 543.04,27.28 C544.111004,26.1501993 545.40962,25.260596 546.85,24.67 C548.459579,24.0178611 550.18351,23.6948367 551.92,23.72 C554.66,23.72 556.76,24.36 558.21,25.66 C559.7002,27.0381122 560.489987,29.0144153 560.36,31.04 Z M538.86,29.93 L538.34,29.93 C537.979301,29.8193006 537.606653,29.7521567 537.23,29.73 C536.75,29.73 536.23,29.67 535.81,29.67 C534.296753,29.6583277 532.792358,29.9017355 531.36,30.39 L528.51,42.66 L522.6,42.66 L526.85,24.33 L532.76,24.33 L532.16,27.04 C533.197279,26.2644009 534.309472,25.5944051 535.48,25.04 C536.523887,24.5429156 537.663846,24.2801107 538.82,24.27 L539.51,24.27 L540.19,24.32 L538.86,29.93 Z M515.86,25.68 C515.91871,24.8529361 515.539089,24.0557313 514.86,23.58 C513.927775,23.0600032 512.865174,22.820397 511.8,22.89 L509.27,22.89 L507.59,30.17 L509.85,30.17 C511.417319,30.2677141 512.974369,29.8574105 514.29,29 C515.347554,28.2408137 515.952541,27.0007783 515.9,25.7 L515.86,25.68 Z M522.55,25.08 C522.597663,27.8689007 521.246294,30.4965625 518.95,32.08 C516.55,33.8466667 513.196667,34.73 508.89,34.73 L506.5,34.73 L504.67,42.65 L498.37,42.65 L503.99,18.35 L512.72,18.35 C514.113486,18.3307986 515.505845,18.4379032 516.88,18.67 C517.960352,18.8513902 518.997816,19.2311154 519.94,19.79 C520.760079,20.3028888 521.429494,21.0240623 521.88,21.88 C522.377646,22.8786914 522.621502,23.9846331 522.59,25.1 L522.55,25.08 Z" id="Shape"></path>
            <path d="M927.16,71.4 C927.189673,70.4103695 926.976821,69.4285026 926.54,68.54 C926.113397,67.7248809 925.456007,67.0535785 924.65,66.61 C924.272584,66.3936024 923.86941,66.2256132 923.45,66.11 C922.991599,65.9835806 922.523225,65.8965969 922.05,65.85 C921.56,65.85 920.98,65.79 920.34,65.79 L918.45,65.79 L914.85,81.2 L917.45,81.2 C918.034349,81.204877 918.618534,81.1781714 919.2,81.12 C919.723001,81.0766146 920.241468,80.9896459 920.75,80.86 C921.282229,80.7175865 921.795783,80.5128361 922.28,80.25 C923.837769,79.4640678 925.10545,78.2033905 925.9,76.65 C926.74962,75.0318481 927.182663,73.2274998 927.16,71.4 M933.73,70.84 C933.744047,73.5358056 932.987707,76.1795256 931.55,78.46 C930.198205,80.7003004 928.280661,82.545419 925.99,83.81 C924.654944,84.5445518 923.203985,85.0451159 921.7,85.29 C919.926307,85.5583301 918.13374,85.6820707 916.34,85.66 L907.54,85.66 L913.16,61.35 L921.03,61.35 C922.911556,61.3051014 924.791692,61.4864003 926.63,61.89 C927.850528,62.1653129 929.012091,62.6563525 930.06,63.34 C931.212306,64.1275111 932.150502,65.1894252 932.79,66.43 C933.461723,67.8014991 933.797631,69.3130889 933.77,70.84 L933.73,70.84 Z M893.3,80.84 L887.64,74.65 C887.062379,75.1183355 886.574484,75.6875464 886.2,76.33 C885.880596,76.9197067 885.712249,77.5793527 885.71,78.25 C885.662808,79.248461 886.023808,80.2231628 886.71,80.95 C887.530196,81.6812478 888.615094,82.0428807 889.71,81.95 C890.326257,81.9548621 890.939755,81.8672195 891.53,81.69 C892.171611,81.4965936 892.781422,81.2102186 893.34,80.84 L893.3,80.84 Z M893.91,66.29 C893.939939,65.7532241 893.752516,65.2269972 893.39,64.83 C892.960836,64.4466326 892.393711,64.2551827 891.82,64.3 C891.094212,64.273885 890.383591,64.511943 889.82,64.97 C889.281283,65.4330722 888.98919,66.1207843 889.03,66.83 C889.051204,67.4322875 889.253315,68.0142269 889.61,68.5 C890.061795,69.1617979 890.596101,69.7633114 891.2,70.29 C891.957139,69.8001085 892.612484,69.1685321 893.13,68.43 C893.625372,67.8228403 893.912801,67.0727214 893.95,66.29 L893.91,66.29 Z M905.21,85.66 L897.43,85.66 L895.59,83.6 C893.234641,85.2258627 890.451579,86.1199213 887.59,86.17 C885.375306,86.2866316 883.181477,85.6908634 881.33,84.47 C879.83616,83.4266416 878.967893,81.701384 879.02,79.88 C879.008282,78.9953547 879.164371,78.1165064 879.48,77.29 C879.780086,76.4999615 880.216732,75.7688328 880.77,75.13 C881.327427,74.4726768 881.977578,73.900005 882.7,73.43 C883.484027,72.9170156 884.298903,72.4528036 885.14,72.04 C884.417025,71.4282972 883.816441,70.6852029 883.37,69.85 C883.002019,69.1395929 882.81321,68.3500263 882.82,67.55 C882.818545,66.6529311 883.031093,65.7684548 883.44,64.97 C883.891275,64.1349191 884.51509,63.4054302 885.27,62.83 C886.175014,62.1753615 887.19156,61.6908076 888.27,61.4 C889.590552,61.0267993 890.957808,60.8448153 892.33,60.86 C894.3087,60.756775 896.279288,61.1812625 898.04,62.09 C899.321481,62.7326195 900.127601,64.0464394 900.12,65.48 C900.110313,66.1675166 899.967692,66.8466646 899.7,67.48 C899.419425,68.1770603 899.004946,68.812369 898.48,69.35 C897.849578,69.9998835 897.128846,70.5555877 896.34,71 C895.325799,71.5650486 894.248311,72.0081279 893.13,72.32 L897.19,76.72 L898.32,71.46 L904.41,71.46 L904.02,73.27 C903.741611,74.5647713 903.258906,75.8069784 902.59,76.95 C901.940527,78.0523068 901.120339,79.044633 900.16,79.89 L905.24,85.32 L905.21,85.66 Z M871.69,68.66 C871.754384,67.829106 871.373889,67.0262622 870.69,66.55 C869.775231,66.0420855 868.734368,65.8061565 867.69,65.87 L865.16,65.87 L863.47,73.15 L865.73,73.15 C867.286641,73.2549409 868.836754,72.8665377 870.16,72.04 C871.220861,71.2600215 871.812351,69.9941582 871.73,68.68 L871.69,68.66 Z M878.39,68.06 C878.435863,70.848481 877.084905,73.4753427 874.79,75.06 C872.376667,76.8266667 869.02,77.7133333 864.72,77.72 L862.34,77.72 L860.51,85.64 L854.21,85.64 L859.82,61.33 L868.56,61.33 C869.94999,61.3162833 871.338544,61.4233525 872.71,61.65 C873.790965,61.8347083 874.828427,62.217823 875.77,62.78 C876.594603,63.2861191 877.268078,64.0044929 877.72,64.86 C878.203506,65.8493961 878.446762,66.9389088 878.43,68.04 L878.39,68.06 Z M839.85,77.18 L827.4,77.18 L828.47,72.48 L840.93,72.48 L839.85,77.18 Z M805.61,80.04 C806.115716,79.2699264 806.500196,78.4267694 806.75,77.54 C807.022617,76.4651497 807.150414,75.3586958 807.13,74.25 C807.190182,73.327078 806.928679,72.4118188 806.39,71.66 C805.798612,71.0086457 804.936297,70.6718619 804.06,70.75 C803.288777,70.7315082 802.529626,70.9439312 801.88,71.36 C801.20937,71.8030708 800.64298,72.3865204 800.22,73.07 C799.747578,73.8586712 799.409633,74.7204314 799.22,75.62 C798.958773,76.6393589 798.82773,77.687704 798.83,78.74 C798.735611,79.7102163 799.038707,80.6772363 799.67,81.42 C800.289505,81.9866946 801.11182,82.2788328 801.95,82.23 C802.656913,82.2215131 803.348225,82.0210327 803.95,81.65 C804.616744,81.2441902 805.183995,80.6940247 805.61,80.04 Z M813.25,74.04 C813.261959,75.6923696 812.970461,77.3328952 812.39,78.88 C811.298252,81.7979038 809.046357,84.1330683 806.17,85.33 C804.580535,85.9631758 802.880628,86.2725589 801.17,86.24 C798.90018,86.382424 796.659428,85.6688087 794.89,84.24 C793.391774,82.847899 792.589416,80.8621549 792.7,78.82 C792.695515,77.2336455 792.973171,75.6591336 793.52,74.17 C794.048448,72.7196752 794.872539,71.3950007 795.94,70.28 C797.00958,69.1509902 798.308772,68.2644021 799.75,67.68 C801.354764,67.0065121 803.079694,66.6662894 804.82,66.68 C807.084393,66.5268981 809.325232,67.2180311 811.11,68.62 C812.602933,70.0123578 813.389021,72.0032915 813.25,74.04 L813.25,74.04 Z M783.91,86.04 C782.390966,86.1717272 780.869015,85.8218535 779.56,85.04 C778.652339,84.3195131 778.161509,83.1954733 778.25,82.04 C778.252009,81.7051516 778.278748,81.3709089 778.33,81.04 C778.39,80.71 778.45,80.33 778.54,79.9 L780.54,71.21 L778.16,71.21 L779.06,67.34 L781.47,67.34 L782.68,62.11 L788.57,62.11 L787.37,67.34 L792.88,67.34 L791.99,71.21 L786.47,71.21 L784.95,77.83 C784.84,78.28 784.74,78.74 784.64,79.2 C784.551874,79.590684 784.504951,79.9895307 784.5,80.39 C784.437498,80.9056034 784.640833,81.4177065 785.04,81.75 C785.552389,82.0435111 786.141288,82.1759263 786.73,82.13 C787.135222,82.1198489 787.537904,82.0628022 787.93,81.96 C788.338808,81.8750838 788.737636,81.7477271 789.12,81.58 L789.61,81.58 L788.69,85.52 C787.997818,85.6866031 787.296673,85.813477 786.59,85.9 C785.700277,86.000306 784.805331,86.0470569 783.91,86.04 L783.91,86.04 Z M774.53,71.5 C774.529671,71.8577999 774.506289,72.2152068 774.46,72.57 C774.415723,72.9674797 774.345574,73.3616493 774.25,73.75 L771.51,85.69 L765.51,85.69 L767.6,76.59 C767.76,75.92 767.88,75.35 767.97,74.87 C768.047003,74.4240587 768.087139,73.9725317 768.09,73.52 C768.142729,72.9513609 767.949857,72.3873033 767.56,71.97 C766.972022,71.5758221 766.263598,71.4022581 765.56,71.48 C765.010821,71.4939942 764.467363,71.5952595 763.95,71.78 C763.241332,72.0308607 762.552694,72.3350651 761.89,72.69 L758.89,85.69 L753.06,85.69 L757.29,67.35 L763.16,67.35 L762.69,69.35 C763.737152,68.6405858 764.840872,68.0184892 765.99,67.49 C767.025991,67.0335108 768.147995,66.8050178 769.28,66.82 C770.680056,66.7299376 772.063419,67.1649128 773.16,68.04 C774.102305,68.9238807 774.604083,70.1801564 774.53,71.47 L774.53,71.5 Z M741.21,86.18 C738.09,86.18 735.67,85.49 733.98,84.11 C732.271135,82.7067997 731.325721,80.5786912 731.43,78.37 C731.414115,76.8045459 731.695775,75.2503252 732.26,73.79 C732.80586,72.415182 733.621959,71.1638303 734.66,70.11 C735.731698,69.0485659 737.012032,68.2211157 738.42,67.68 C739.993912,67.0666803 741.670916,66.7611534 743.36,66.78 C746.1,66.78 748.16,67.34 749.54,68.44 C750.978746,69.6418552 751.755625,71.4595282 751.63,73.33 C751.629273,74.0593778 751.552186,74.7866755 751.4,75.5 C751.254653,76.2156518 751.060874,76.9206069 750.82,77.61 L737.21,77.61 L737.21,77.98 C737.152628,79.136484 737.650424,80.2509525 738.55,80.98 C739.75316,81.7895421 741.194023,82.1700144 742.64,82.06 C743.887058,82.0681372 745.124759,81.8443338 746.29,81.4 C747.33563,81.0173957 748.340584,80.5316683 749.29,79.95 L749.94,79.95 L748.85,84.67 C747.691758,85.1779411 746.481139,85.5568882 745.24,85.8 C743.911948,86.0525663 742.56171,86.1698326 741.21,86.15 L741.21,86.18 Z M745.7,74.18 C745.7,73.98 745.76,73.81 745.77,73.64 C745.780247,73.4734908 745.780247,73.3065092 745.77,73.14 C745.821893,72.3862796 745.527385,71.6500092 744.97,71.14 C744.305455,70.6456641 743.486386,70.4045531 742.66,70.46 C741.574889,70.4392834 740.515659,70.7923598 739.66,71.46 C738.798577,72.1817198 738.151752,73.1260152 737.79,74.19 L745.7,74.18 Z M728.54,71.45 C728.535063,71.817606 728.511701,72.1847335 728.47,72.55 C728.414812,72.9604238 728.338039,73.3676549 728.24,73.77 L725.49,85.71 L719.49,85.71 L721.61,76.55 C721.76,75.92 721.89,75.32 722,74.74 C722.098356,74.2759693 722.155247,73.8041104 722.17,73.33 C722.214297,72.812074 722.023359,72.3016804 721.65,71.94 C721.094553,71.5944691 720.441389,71.4399574 719.79,71.5 C719.292763,71.51376 718.801875,71.6153231 718.34,71.8 C717.656618,72.0651664 716.988873,72.3689905 716.34,72.71 L713.34,85.71 L707.39,85.71 L709.51,76.55 C709.64,76.02 709.75,75.44 709.88,74.82 C709.976866,74.3520729 710.037049,73.8772967 710.06,73.4 C710.108019,72.87045 709.925863,72.3458412 709.56,71.96 C709.014099,71.5911018 708.354921,71.4280794 707.7,71.5 C707.174377,71.5176775 706.656179,71.6294455 706.17,71.83 C705.527524,72.0882992 704.89989,72.382085 704.29,72.71 L701.29,85.71 L695.38,85.71 L699.62,67.37 L705.53,67.37 L705.06,69.37 C706.091107,68.6684736 707.174252,68.0466678 708.3,67.51 C709.280919,67.0578595 710.349948,66.8290258 711.43,66.84 C712.487904,66.8090418 713.53144,67.0907966 714.43,67.65 C715.267912,68.2114724 715.880609,69.0508309 716.16,70.02 C717.389643,69.1062402 718.70202,68.3094399 720.08,67.64 C721.120522,67.1297544 722.261223,66.8565327 723.42,66.84 C724.809518,66.7051394 726.194516,67.1379513 727.26,68.04 C728.145695,68.9266082 728.6113,70.1488224 728.54,71.4 L728.54,71.45 Z M696,60.3 L695,64.76 L688.77,64.76 L689.77,60.3 L696,60.3 Z M694.2,67.37 L689.96,85.71 L684.05,85.71 L688.29,67.37 L694.2,67.37 Z M684.86,67.37 L673.55,85.71 L666.86,85.71 L664.08,67.37 L670.16,67.37 L671.5,80 L678.56,67.37 L684.86,67.37 Z M662.71,60.3 L656.83,85.71 L650.92,85.71 L656.8,60.3 L662.71,60.3 Z M641.5,80.04 C642.005716,79.2699264 642.390196,78.4267694 642.64,77.54 C642.912617,76.4651497 643.040414,75.3586958 643.02,74.25 C643.083077,73.3282691 642.82514,72.4131216 642.29,71.66 C641.695505,71.0070187 640.829457,70.6702226 639.95,70.75 C639.17893,70.7327247 638.420127,70.9450503 637.77,71.36 C637.12065,71.7999426 636.571925,72.3725253 636.16,73.04 C635.678311,73.8296116 635.323971,74.6901517 635.11,75.59 C634.848773,76.6093589 634.71773,77.657704 634.72,78.71 C634.625611,79.6802163 634.928707,80.6472363 635.56,81.39 C636.183763,81.956271 637.008914,82.2481365 637.85,82.2 C638.556182,82.1866345 639.246233,81.9865196 639.85,81.62 C640.510524,81.2224199 641.074177,80.6826794 641.5,80.04 L641.5,80.04 Z M649.14,74.04 C649.151959,75.6923696 648.860461,77.3328952 648.28,78.88 C647.188252,81.7979038 644.936357,84.1330683 642.06,85.33 C640.470685,85.9636956 638.770672,86.2730979 637.06,86.24 C634.787167,86.3820217 632.543432,85.6685924 630.77,84.24 C629.277798,82.8444569 628.479664,80.8601062 628.59,78.82 C628.582312,77.234247 628.856579,75.6597534 629.4,74.17 C629.93234,72.7215729 630.755961,71.3976534 631.82,70.28 C632.88958,69.1509902 634.188772,68.2644021 635.63,67.68 C637.234764,67.0065121 638.959694,66.6662894 640.7,66.68 C642.964393,66.5268981 645.205232,67.2180311 646.99,68.62 C648.49765,70.0042368 649.295802,71.9977761 649.16,74.04 L649.14,74.04 Z M628.81,67.33 L617.5,85.67 L610.81,85.67 L608.03,67.33 L614.09,67.33 L615.43,79.96 L622.49,67.33 L628.81,67.33 Z M603.95,71.48 C603.948314,71.8374581 603.928288,72.1945943 603.89,72.55 C603.837294,72.9469006 603.76386,73.3407722 603.67,73.73 L600.93,85.67 L594.99,85.67 L597.08,76.57 C597.23,75.9 597.35,75.33 597.44,74.85 C597.520088,74.4042998 597.563566,73.9527929 597.57,73.5 C597.620068,72.9298684 597.423485,72.3656036 597.03,71.95 C596.442022,71.5558221 595.733598,71.3822581 595.03,71.46 C594.480821,71.4739942 593.937363,71.5752595 593.42,71.76 C592.711332,72.0108607 592.022694,72.3150651 591.36,72.67 L588.36,85.67 L582.45,85.67 L586.68,67.33 L592.59,67.33 L592.12,69.33 C593.168452,68.6226874 594.271997,68.0006893 595.42,67.47 C596.455991,67.0135108 597.577995,66.7850178 598.71,66.8 C600.092943,66.7096259 601.460511,67.1334298 602.55,67.99 C603.520974,68.8771713 604.03608,70.1575769 603.95,71.47 L603.95,71.48 Z M570.63,86.16 C567.51,86.16 565.09,85.47 563.4,84.09 C561.691135,82.6867997 560.745721,80.5586912 560.85,78.35 C560.834115,76.7845459 561.115775,75.2303252 561.68,73.77 C562.225637,72.392683 563.045573,71.140664 564.09,70.09 C565.156371,69.0267424 566.433863,68.1989274 567.84,67.66 C569.413912,67.0466803 571.090916,66.7411534 572.78,66.76 C575.52,66.76 577.58,67.32 578.96,68.42 C580.398746,69.6218552 581.175625,71.4395282 581.05,73.31 C581.052634,74.0390307 580.978899,74.7663321 580.83,75.48 C580.679976,76.1945272 580.486279,76.8991828 580.25,77.59 L566.63,77.59 L566.63,77.96 C566.572628,79.116484 567.070424,80.2309525 567.97,80.96 C569.176244,81.7710086 570.62075,82.1515127 572.07,82.04 C573.316898,82.0462912 574.554262,81.8225486 575.72,81.38 C576.765069,80.9960704 577.769894,80.5104049 578.72,79.93 L579.38,79.93 L578.28,84.65 C577.121758,85.1579411 575.911139,85.5368882 574.67,85.78 C573.339356,86.0399501 571.985727,86.1639211 570.63,86.15 L570.63,86.16 Z M575.12,74.16 C575.12,73.96 575.18,73.79 575.19,73.62 C575.200247,73.4534908 575.200247,73.2865092 575.19,73.12 C575.241893,72.3662796 574.947385,71.6300092 574.39,71.12 C573.728528,70.6271616 572.913121,70.3860848 572.09,70.44 C570.988219,70.4101645 569.910229,70.7636038 569.04,71.44 C568.178577,72.1617198 567.531752,73.1060152 567.17,74.17 L575.12,74.16 Z M547.51,86.16 C545.979588,86.1561946 544.452905,86.008883 542.95,85.72 C541.789747,85.526829 540.657827,85.1909479 539.58,84.72 L540.7,79.89 L541.24,79.89 C541.528848,80.1385035 541.832759,80.3689416 542.15,80.58 C542.640019,80.8960767 543.163127,81.1576307 543.71,81.36 C544.353487,81.6399447 545.023536,81.8543603 545.71,82 C546.518959,82.1929992 547.348367,82.2870211 548.18,82.28 C549.200885,82.3324386 550.221728,82.1759093 551.18,81.82 C551.754963,81.636101 552.154197,81.1131051 552.18,80.51 C552.178332,80.0632122 551.89923,79.6644947 551.48,79.51 C550.538121,79.1380211 549.564015,78.8534886 548.57,78.66 C546.729148,78.3636445 544.980908,77.6486111 543.46,76.57 C542.563044,75.8086853 542.053235,74.6863709 542.07,73.51 C542.042357,71.4993564 543.106367,69.6315971 544.85,68.63 C547.129556,67.3246735 549.736729,66.7032567 552.36,66.84 C553.740655,66.8411047 555.117659,66.9818205 556.47,67.26 C557.502865,67.4318632 558.510512,67.7307984 559.47,68.15 L558.4,72.78 L557.89,72.78 C557.043556,72.1422699 556.097453,71.6489447 555.09,71.32 C554.006962,70.9408732 552.867477,70.7481413 551.72,70.75 C550.738751,70.7066641 549.758929,70.8631635 548.84,71.21 C548.248382,71.4063634 547.84669,71.9566818 547.84,72.58 C547.8651,73.097119 548.213853,73.5420803 548.71,73.69 C549.59579,74.0307512 550.509125,74.2950494 551.44,74.48 C553.216896,74.7670167 554.917544,75.4098618 556.44,76.37 C557.44986,77.1163209 558.023177,78.3154149 557.97,79.57 C557.996466,81.5777965 556.916759,83.4375059 555.16,84.41 C552.830015,85.7141873 550.175661,86.3248622 547.51,86.17 L547.51,86.16 Z M528.59,86.16 C525.47,86.16 523.05,85.47 521.36,84.09 C519.651135,82.6867997 518.705721,80.5586912 518.81,78.35 C518.794115,76.7845459 519.075775,75.2303252 519.64,73.77 C520.185637,72.392683 521.005573,71.140664 522.05,70.09 C523.116371,69.0267424 524.393863,68.1989274 525.8,67.66 C527.373912,67.0466803 529.050916,66.7411534 530.74,66.76 C533.48,66.76 535.54,67.32 536.92,68.42 C538.358746,69.6218552 539.135625,71.4395282 539.01,73.31 C539.012634,74.0390307 538.938899,74.7663321 538.79,75.48 C538.639976,76.1945272 538.446279,76.8991828 538.21,77.59 L524.59,77.59 L524.59,77.96 C524.532628,79.116484 525.030424,80.2309525 525.93,80.96 C527.136244,81.7710086 528.58075,82.1515127 530.03,82.04 C531.276898,82.0462912 532.514262,81.8225486 533.68,81.38 C534.725069,80.9960704 535.729894,80.5104049 536.68,79.93 L537.34,79.93 L536.24,84.65 C535.081758,85.1579411 533.871139,85.5368882 532.63,85.78 C531.299356,86.0399501 529.945727,86.1639211 528.59,86.15 L528.59,86.16 Z M533.08,74.16 C533.08,73.96 533.14,73.79 533.15,73.62 C533.160247,73.4534908 533.160247,73.2865092 533.15,73.12 C533.201893,72.3662796 532.907385,71.6300092 532.35,71.12 C531.688528,70.6271616 530.873121,70.3860848 530.05,70.44 C528.965261,70.4217151 527.90682,70.7745286 527.05,71.44 C526.188577,72.1617198 525.541752,73.1060152 525.18,74.17 L533.08,74.16 Z M510.42,71.43 C510.449673,70.4403695 510.236821,69.4585026 509.8,68.57 C509.373397,67.7548809 508.716007,67.0835785 507.91,66.64 C507.532584,66.4236024 507.12941,66.2556132 506.71,66.14 C506.251599,66.0135806 505.783225,65.9265969 505.31,65.88 C504.82,65.88 504.24,65.82 503.6,65.82 L501.71,65.82 L498.16,81.2 L500.76,81.2 C501.344349,81.204877 501.928534,81.1781714 502.51,81.12 C503.033001,81.0766146 503.551468,80.9896459 504.06,80.86 C504.592229,80.7175865 505.105783,80.5128361 505.59,80.25 C507.147769,79.4640678 508.41545,78.2033905 509.21,76.65 C510.037582,75.0256414 510.453111,73.2227277 510.42,71.4 L510.42,71.43 Z M516.99,70.87 C517.004047,73.5658056 516.247707,76.2095256 514.81,78.49 C513.458205,80.7303004 511.540661,82.575419 509.25,83.84 C507.911458,84.5747224 506.457187,85.0752621 504.95,85.32 C503.179711,85.5887581 501.390432,85.7125027 499.6,85.69 L490.8,85.69 L496.42,61.38 L504.29,61.38 C506.171538,61.3355837 508.051617,61.516877 509.89,61.92 C511.107447,62.1952094 512.265743,62.6863 513.31,63.37 C514.467659,64.1543243 515.409808,65.216821 516.05,66.46 C516.698689,67.8273719 517.020498,69.3268664 516.99,70.84 L516.99,70.87 Z" id="Shape"></path>
        </g>
    </g>
</svg>