<?xml version="1.0" encoding="UTF-8"?>
<svg width="371px" height="127px" viewBox="0 0 371 127" version="1.1" xmlns="http://www.w3.org/2000/svg" xmlns:xlink="http://www.w3.org/1999/xlink">
    <!-- Generator: Sketch 59.1 (86144) - https://sketch.com -->
    <title>img-logo-aes</title>
    <desc>Created with Sketch.</desc>
    <g id="Page-1" stroke="none" stroke-width="1" fill="none" fill-rule="evenodd">
        <g id="img-logo-aes" fill-rule="nonzero">
            <polygon id="Path" fill="#00263A" points="267.2 42.9 252.9 42.9 252.9 88.2 247.3 88.2 247.3 42.9 232.8 42.9 232.8 37.7 269.2 37.7"></polygon>
            <path d="M274,88.2 L274,88.2 L274,52 L279.6,52 L279.6,88.2 L274,88.2 L274,88.2 Z M276.8,44.4 C274.7,44.4 272.9,42.6 272.9,40.5 C272.9,38.4 274.7,36.6 276.8,36.6 C278.9,36.6 280.7,38.4 280.7,40.5 C280.7,42.6 278.9,44.4 276.8,44.4 Z" id="Shape" fill="#00263A"></path>
            <path d="M300.3,55.8 L300.3,55.8 L300.5,55.8 C306,55.8 308.8,61.2 308.8,66.3 L300.3,66.3 L300.3,66.3 L300.3,71 L300.3,71 L314.9,71 L314.9,69.7 C314.9,58.4 309.8,51 300.4,51 L300.3,51 L300.3,51 L300.3,55.8 L300.3,55.8 Z M300.3,88.8 L300.3,83.6 L300.3,83.6 C301.3,83.9 302.5,84 303.7,84 C306.8,84 310.1,82.8 312.3,81.4 L314,85.2 C311.4,87.3 306.8,88.9 302.6,88.9 C301.7,88.9 301,88.9 300.3,88.8 L300.3,88.8 Z M291.7,66.3 C291.7,60.6 295,55.9 300.2,55.8 L300.2,51 C291.5,51.1 285.6,58.8 285.6,69.3 C285.6,78.9 290.4,87.6 300.2,88.8 L300.2,83.6 C294.4,82.1 291.6,76.8 291.6,71 L300.2,71 L300.2,66.3 L291.7,66.3 Z" id="Shape" fill="#00263A"></path>
            <path d="M330.3,88.9 C325.1,88.9 322.6,85.8 322.6,81.2 L322.6,56.7 L316.7,56.7 L316.7,52 L322.6,52 L322.6,44 L328.2,42.1 L328.2,52 L339.3,52 L337.3,56.7 L328.2,56.7 L328.2,79.5 C328.2,82.6 329.4,83.9 331.7,83.9 C334.3,83.9 336.7,82.4 338.1,81.3 L339.9,85.3 C337.2,87.3 333.7,88.9 330.3,88.9 Z" id="Path" fill="#00263A"></path>
            <polygon id="Path" fill="#00263A" points="355.5 40.9 356.1 40 361.2 47.5 366.9 47.5 358.8 36.2 355.5 36.2 353.5 36.2 345.5 47.5 351.1 47.5"></polygon>
            <path d="M355.5,55.8 L355.7,55.8 C361.2,55.8 364,61.2 364,66.3 L355.5,66.3 L355.5,71 L370.1,71 L370.1,69.7 C370.1,58.4 365,51 355.6,51 L355.5,51 L355.5,55.8 L355.5,55.8 Z M355.5,88.8 L355.5,83.6 C356.5,83.9 357.7,84 358.9,84 C362,84 365.3,82.8 367.5,81.4 L369.2,85.2 C366.6,87.3 362,88.9 357.8,88.9 C357,88.9 356.3,88.9 355.5,88.8 Z M347,66.3 C347,60.6 350.3,55.9 355.5,55.8 L355.5,51 C346.8,51.1 340.9,58.8 340.9,69.3 C340.9,78.9 345.7,87.6 355.5,88.8 L355.5,83.6 C349.7,82.1 346.9,76.8 346.9,71 L355.5,71 L355.5,66.3 L347,66.3 Z" id="Shape" fill="#00263A"></path>
            <path d="M122.6,50.4 L122.7,50 L122.8,50 C123.2,51.7 123.8,53.8 124.7,56.3 L128.8,67.9 L122.7,67.9 L122.7,75.5 L131.8,75.5 L136.8,88.2 L146.7,88.2 L126.3,37.3 L122.7,37.3 L122.7,50.4 L122.6,50.4 Z M122.6,67.9 L116.5,67.9 L120.9,56.1 C121.7,53.9 122.3,52 122.7,50.4 L122.7,37.3 L119.6,37.3 L99.9,88.2 L109,88.2 L113.7,75.5 L122.7,75.5 L122.7,67.9 L122.6,67.9 Z" id="Shape" fill="#00263A"></path>
            <polygon id="Path" fill="#00263A" points="150.1 88.2 150.1 37.6 178.3 37.6 175.7 45.3 159.4 45.3 159.4 58.5 175.7 58.5 175.7 66.2 159.4 66.2 159.4 80.4 178.3 80.4 178.3 88.2"></polygon>
            <path d="M198.1,88.9 C191,88.9 185.9,86.6 182.5,84.3 L186.3,77.5 C189.1,79.4 193,81.4 197.7,81.4 C201.6,81.4 206.1,79.8 206.1,75.6 C206.1,68.4 193.8,67.1 187.7,60.2 C185.7,58 184.4,55 184.4,51.1 C184.4,43.6 190.3,37.2 200.9,37.2 C206.3,37.2 210.6,38.5 213.3,40 L213.1,48.3 C209.2,46.2 205.4,44.8 201.3,44.8 C197.2,44.8 194,46.6 194,49.9 C194,59.3 215.9,58.7 215.9,74.5 C215.9,83.3 208.1,88.9 198.1,88.9 Z" id="Path" fill="#00263A"></path>
            <g id="Group">
                <path d="M7.5,71.1 C2.9,63.9 0.2,55.4 0.2,46.2 C0.2,20.8 20.8,0.2 46.2,0.2 C56,0.2 60.2,2.9 61.6,4.1 C64.1,6.2 65.8,9.2 65.6,12.2 C64.8,24.1 47.7,21.7 30.7,25.7 C5.9,31.5 -1.8,52.9 7.5,71.1 Z" id="Path" fill="#95C11F"></path>
                <path d="M65.3,9.8 C66.2,13.3 65.8,16 64.6,18.5 C55.8,35.9 21.8,23.7 13.6,52.2 C10.3,65.5 17.2,81.3 31.2,88.9 C32.5,89.6 32.4,90.1 30.9,89.6 C21.2,86.2 13,79.6 7.5,71.1 C-1.8,52.9 5.9,31.5 30.7,25.7 C47.7,21.7 64.8,24.2 65.6,12.2 C65.6,11.4 65.5,10.6 65.3,9.8 Z" id="Path" fill="#5A7411"></path>
                <path d="M62.9,3.3 C75.8,8.3 85.8,19 90,32.2 C90,32.2 93,43.4 86,53.1 C73.3,70.7 50.6,64.3 48.4,52.2 C44.8,32.6 71.7,34.5 69.6,15.2 C69,10.5 66,6.4 62.5,3.9 C61,3 61.3,2.7 62.9,3.3 Z" id="Path" fill="#0073AB"></path>
                <path d="M61,89.7 C59.7,90.2 59.4,90 60.7,89 C63.1,87.2 65.1,84.3 64.6,80.3 C63.1,69 46.9,70.7 44.4,57 C43.2,50.5 45.8,42.7 55.8,35.6 C50.8,39.4 46.8,43.9 48.4,52.3 C50.6,64.4 73.3,70.8 86,53.2 C93,43.5 90,32.3 90,32.3 C91.4,36.7 92.1,41.4 92.1,46.2 C92.1,66.3 79.1,83.5 61,89.7 Z" id="Path" fill="#00263A"></path>
            </g>
            <path d="M335,119.7 L335,117.7 C336.4,117.1 337.6,115.8 338,114 L338.2,113 L337.1,113 C336.3,113 335.6,113 335,113.1 L335,111.2 C335.5,111.1 336,111.1 336.6,111.1 L338.6,111.1 C338.7,110.7 338.8,110.1 338.8,109.6 C338.8,108.3 338.1,107.5 336.2,107.5 C335.8,107.5 335.5,107.5 335.1,107.6 L335.1,105.6 C335.6,105.5 336.1,105.5 336.6,105.5 C338.9,105.5 341.3,106.4 341.3,109.6 C341.3,110.7 341,111.9 340.8,112.9 L340.5,114.2 C340.2,115.7 340,116.8 340,117.8 C340,118.5 340.1,119 340.2,119.6 L338,120.1 C337.8,119.5 337.6,118.6 337.6,117.7 C336.9,118.5 336,119.3 335,119.7 Z M335,105.6 L335,107.6 C334,107.8 332.9,108.1 332,108.6 L331.6,106.6 C332.6,106.2 333.8,105.8 335,105.6 L335,105.6 Z M335,111.3 L335,113.2 C334,113.3 333.3,113.6 332.8,114 C332.1,114.5 331.8,115.2 331.8,116.1 C331.8,117.4 332.5,118 333.7,118 C334.1,118 334.6,117.9 335,117.7 L335,119.7 C334.4,120 333.7,120.1 333,120.1 C330.7,120.1 329.3,118.6 329.3,116.4 C329.3,114.8 329.9,113.5 331,112.7 C331.9,111.9 333.3,111.4 335,111.3 L335,111.3 Z M314.8,126.3 L314.8,123.3 C315.4,122.5 315.9,121.5 316.2,120.1 L316.7,117.9 L316.6,117.9 C316,118.6 315.4,119.1 314.8,119.5 L314.8,117.5 C316,116.7 317.2,115.1 317.9,112.1 L318.8,108.1 C318.4,108 317.7,107.8 316.8,107.8 C316.1,107.8 315.5,107.9 314.9,108.2 L314.9,105.9 C315.6,105.7 316.4,105.6 317.2,105.6 C319,105.6 320.8,106 321.8,106.4 L318.8,120.4 C318.1,123.1 317.1,125.2 314.8,126.3 L314.8,126.3 Z M322.6,119.9 L325.2,119.9 L328.2,105.9 L325.6,105.9 L322.6,119.9 L322.6,119.9 Z M327.6,102.9 C328.5,102.9 329.5,102.2 329.5,101 C329.5,100.2 328.9,99.5 328,99.5 C327.1,99.5 326.2,100.2 326.2,101.4 C326.1,102.3 326.7,102.9 327.6,102.9 Z M314.8,105.8 L314.8,108.1 C312.3,109.1 310.9,112 310.9,114.9 C310.9,116.6 311.5,118 313,118 C313.5,118 314.1,117.8 314.8,117.4 L314.8,119.4 C313.9,119.9 313,120.1 312.2,120.1 C309.9,120.1 308.3,118.6 308.3,115.3 C308.3,111 310.4,106.8 314.8,105.8 L314.8,105.8 Z M314.8,123.3 L314.8,126.3 C313.9,126.7 312.7,126.9 311.3,126.9 C310.1,126.9 308.8,126.7 307.5,126.1 L307.5,124.5 L307.8,123.7 C309,124.4 310.1,124.7 311.3,124.7 C312.9,124.7 314,124.2 314.8,123.3 L314.8,123.3 Z M307.6,107.2 L307.6,105.7 C307.8,105.8 308,105.9 308.2,106 L307.6,107.2 Z M307.6,105.7 L307.6,107.2 L307.1,108.2 C306.7,108 306.3,107.9 305.9,107.9 C304.3,107.9 302.5,109.7 301.5,114.1 L300.3,119.8 L297.7,119.8 L300.7,105.8 L302.8,105.8 L302.4,108.6 L302.5,108.6 C303.4,106.7 304.8,105.5 306.5,105.5 C306.9,105.5 307.2,105.6 307.6,105.7 L307.6,105.7 Z M307.6,124.5 L307.6,126.1 C307.4,126 307.2,125.9 307,125.8 L307.6,124.5 L307.6,124.5 Z M290.6,120.2 L290.6,118 C292,118 293.2,117.5 294.3,116.9 L295,118.8 C293.8,119.6 292.1,120.1 290.6,120.2 L290.6,120.2 Z M290.6,113.4 L290.6,111.5 L293.7,111.5 C293.8,111 293.9,110.5 293.9,110 C293.9,108.8 293.3,107.6 291.5,107.6 C291.2,107.6 290.9,107.6 290.6,107.7 L290.6,105.6 C291,105.5 291.4,105.5 291.8,105.5 C294.9,105.5 296.5,107.4 296.5,110.1 C296.5,111.1 296.2,112.4 295.9,113.4 L290.6,113.4 Z M290.6,105.6 L290.6,107.7 C289,108.1 287.7,109.7 287.3,111.6 L290.6,111.6 L290.6,113.5 L287,113.5 C287,113.7 287,114 287,114.2 C287,116.7 288.4,118.1 290.5,118.1 L290.6,118.1 L290.6,120.2 C290.5,120.2 290.3,120.2 290.2,120.2 C286.7,120.2 284.4,118 284.4,114.2 C284.4,109.7 287,106.2 290.6,105.6 L290.6,105.6 Z M261.9,120.2 L261.9,118 C263.3,118 264.5,117.5 265.6,116.9 L266.3,118.8 C265,119.6 263.4,120.1 261.9,120.2 L261.9,120.2 Z M261.9,113.4 L261.9,111.5 L265,111.5 C265.1,111 265.2,110.5 265.2,110 C265.2,108.8 264.6,107.6 262.8,107.6 C262.5,107.6 262.2,107.6 261.9,107.7 L261.9,105.6 C262.3,105.5 262.7,105.5 263.1,105.5 C266.2,105.5 267.8,107.4 267.8,110.1 C267.8,111.1 267.5,112.4 267.2,113.4 L261.9,113.4 L261.9,113.4 Z M268.9,119.9 L271.5,119.9 L272.7,113.9 C273.1,112 273.6,110.9 274.3,110 C275.4,108.5 276.9,107.8 277.9,107.8 C278.8,107.8 279.5,108.3 279.5,109.5 C279.5,109.9 279.4,110.7 279.2,111.7 L277.5,119.8 L280.1,119.8 L281.8,111.6 C282.1,110.2 282.2,109.4 282.2,108.9 C282.2,106.5 280.8,105.5 279,105.5 C276.9,105.5 274.9,106.9 273.8,108.6 L273.7,108.6 L274.1,105.8 L272,105.8 L268.9,119.9 Z M261.9,105.6 L261.9,107.7 C260.3,108.1 259,109.7 258.6,111.6 L261.9,111.6 L261.9,113.5 L258.3,113.5 C258.3,113.7 258.3,114 258.3,114.2 C258.3,116.7 259.7,118.1 261.8,118.1 L261.9,118.1 L261.9,120.2 C261.8,120.2 261.6,120.2 261.5,120.2 C258,120.2 255.7,118 255.7,114.2 C255.7,109.7 258.2,106.2 261.9,105.6 L261.9,105.6 Z M242.6,120.2 L242.6,118 C244,118 245.2,117.5 246.3,116.9 L247,118.8 C245.8,119.6 244.1,120.1 242.6,120.2 L242.6,120.2 Z M242.6,113.4 L242.6,111.5 L245.7,111.5 C245.8,111 245.9,110.5 245.9,110 C245.9,108.8 245.3,107.6 243.5,107.6 C243.2,107.6 242.9,107.6 242.6,107.7 L242.6,105.6 C243,105.5 243.4,105.5 243.8,105.5 C246.9,105.5 248.5,107.4 248.5,110.1 C248.5,111.1 248.2,112.4 247.9,113.4 L242.6,113.4 Z M242.6,105.6 L242.6,107.7 C241,108.1 239.7,109.7 239.3,111.6 L242.6,111.6 L242.6,113.5 L239,113.5 C239,113.7 239,114 239,114.2 C239,116.7 240.4,118.1 242.5,118.1 L242.6,118.1 L242.6,120.2 C242.5,120.2 242.3,120.2 242.2,120.2 C239.2,120.2 237,118.5 236.5,115.6 L236.5,112.6 C237.1,108.9 239.4,106.1 242.6,105.6 L242.6,105.6 Z M236.6,99.4 L236.6,98.8 L236.7,98.8 L236.6,99.4 Z M236.6,98.9 L236.6,99.5 L232.4,119.3 C231.3,119.8 229.7,120.2 228.2,120.2 L228.2,118 C228.9,118 229.6,117.8 230.2,117.6 L232.2,108.1 C231.6,107.9 230.7,107.7 230,107.7 C229.4,107.7 228.8,107.8 228.3,108 L228.3,105.7 C228.8,105.6 229.3,105.6 229.8,105.6 C230.9,105.6 232,105.8 232.7,106 L234.2,98.9 L236.6,98.9 L236.6,98.9 Z M236.6,112.5 C236.5,113 236.5,113.6 236.5,114.1 C236.5,114.6 236.5,115.1 236.6,115.5 L236.6,112.5 Z M228.2,105.6 L228.2,107.9 C225.9,108.6 224.3,110.8 224.3,113.8 C224.3,116.2 225.6,117.9 228.1,117.9 C228.1,117.9 228.2,117.9 228.2,117.9 L228.2,120.1 C228.1,120.1 228,120.1 227.8,120.1 C224.2,120.1 221.6,117.8 221.6,113.9 C221.6,109.4 224.5,106.3 228.2,105.6 L228.2,105.6 Z M208.1,119.7 L208.1,117.7 C209.5,117.1 210.7,115.8 211.1,114 L211.3,113 L210.2,113 C209.4,113 208.7,113 208.1,113.1 L208.1,111.2 C208.6,111.1 209.1,111.1 209.7,111.1 L211.7,111.1 C211.8,110.7 211.9,110.1 211.9,109.6 C211.9,108.3 211.2,107.5 209.3,107.5 C208.9,107.5 208.6,107.5 208.2,107.6 L208.2,105.6 C208.7,105.5 209.2,105.5 209.7,105.5 C212,105.5 214.4,106.4 214.4,109.6 C214.4,110.7 214.1,111.9 213.9,112.9 L213.6,114.2 C213.3,115.7 213.1,116.8 213.1,117.8 C213.1,118.5 213.2,119 213.3,119.6 L211.1,120.1 C210.9,119.5 210.7,118.6 210.7,117.7 C210,118.5 209.1,119.3 208.1,119.7 Z M208.1,105.6 L208.1,107.6 C207.1,107.8 206,108.1 205.1,108.6 L204.7,106.6 C205.8,106.2 206.9,105.8 208.1,105.6 L208.1,105.6 Z M208.1,111.3 L208.1,113.2 C207.1,113.3 206.4,113.6 205.9,114 C205.2,114.5 204.9,115.2 204.9,116.1 C204.9,117.4 205.6,118 206.8,118 C207.2,118 207.7,117.9 208.1,117.7 L208.1,119.7 C207.5,120 206.8,120.1 206.1,120.1 C203.8,120.1 202.4,118.6 202.4,116.4 C202.4,114.8 203,113.5 204.1,112.7 C205,111.9 206.4,111.4 208.1,111.3 L208.1,111.3 Z M179.8,119.9 L179.8,118.2 L182.4,105.9 L184.5,105.9 L184.1,108.7 L184.2,108.7 C185.4,107 187.3,105.6 189.2,105.6 C191,105.6 192.3,106.6 192.3,108.9 L192.4,108.9 C193.6,107.1 195.5,105.6 197.6,105.6 C199.4,105.6 200.7,106.6 200.8,108.8 C200.8,109.5 200.7,110.4 200.4,111.6 L198.6,119.9 L196,119.9 L197.8,111.5 C198,110.7 198.1,109.9 198.1,109.5 C198.1,108.3 197.5,107.8 196.6,107.8 C195.6,107.8 194.4,108.5 193.2,110 C192.5,110.9 192,112 191.6,113.9 L190.3,119.9 L187.8,119.9 L189.6,111.5 C189.8,110.7 189.9,109.9 189.9,109.5 C189.9,108.3 189.3,107.8 188.4,107.8 C187.4,107.8 186.2,108.5 185,110 C184.3,110.9 183.8,112 183.4,113.9 L182.1,119.9 L179.8,119.9 L179.8,119.9 Z M179.8,106.8 L180.2,106 C180.1,105.9 180,105.8 179.8,105.8 L179.8,106.8 Z M179.8,105.8 L179.8,106.8 L179.1,108.3 C178.7,108.1 178.3,108 177.9,108 C176.3,108 174.5,109.8 173.5,114.2 L172.3,119.9 L169.7,119.9 L172.7,105.9 L174.8,105.9 L174.4,108.7 L174.5,108.7 C175.4,106.8 176.8,105.6 178.5,105.6 C179,105.5 179.5,105.6 179.8,105.8 L179.8,105.8 Z M179.8,118.1 L179.4,119.8 L179.8,119.8 L179.8,118.1 L179.8,118.1 Z M161.8,120.1 L161.8,117.9 C164.1,117.3 165.7,114.5 165.7,111.2 C165.7,109 164.9,107.6 162.8,107.6 C162.5,107.6 162.1,107.6 161.8,107.7 L161.8,105.5 C162.2,105.4 162.5,105.4 162.9,105.4 C166.6,105.4 168.4,108 168.4,111 C168.4,116 165.4,119.5 161.8,120.1 Z M161.8,105.6 L161.8,107.8 C159.5,108.4 157.9,111.3 157.9,114.4 C157.9,116.6 158.8,118 160.8,118 C161.1,118 161.5,118 161.8,117.9 L161.8,120.1 C161.5,120.2 161.1,120.2 160.7,120.2 C158.6,120.2 157.2,119.4 156.3,118.2 L156.3,109.9 C157.5,107.5 159.5,106 161.8,105.6 L161.8,105.6 Z M156.4,101.5 L156.4,99.1 C156.8,99.2 157.1,99.4 157.5,99.6 L156.7,101.6 C156.5,101.5 156.5,101.5 156.4,101.5 Z M156.4,99.1 L156.4,101.5 C156,101.3 155.4,101.2 154.9,101.2 C153.3,101.2 152.4,102.1 152.1,104.1 L151.8,105.9 L155.1,105.9 L154.3,108 L151.5,108 C150.2,116.5 149.2,122.6 144.5,126.7 L142.8,125 C146.6,121.4 147.6,117.3 148.9,108 L146.7,108 L147,105.9 L149.2,105.9 L149.5,104 C149.7,102.9 150,101.9 150.5,101.2 C151.5,99.5 153.1,98.9 154.7,98.9 C155.3,98.9 155.8,98.9 156.4,99.1 L156.4,99.1 Z M156.4,109.8 C155.7,111.1 155.3,112.7 155.3,114.5 C155.3,115.9 155.6,117.2 156.4,118.2 L156.4,109.8 L156.4,109.8 Z M132,119.7 L132,117.7 C133.4,117.1 134.6,115.8 135,114 L135.2,113 L134.1,113 C133.3,113 132.6,113 132,113.1 L132,111.2 C132.5,111.1 133,111.1 133.6,111.1 L135.6,111.1 C135.7,110.7 135.8,110.1 135.8,109.6 C135.8,108.3 135.1,107.5 133.2,107.5 C132.8,107.5 132.5,107.5 132.1,107.6 L132.1,105.6 C132.6,105.5 133.1,105.5 133.6,105.5 C135.9,105.5 138.3,106.4 138.3,109.6 C138.3,110.7 138,111.9 137.8,112.9 L137.5,114.2 C137.2,115.7 137,116.8 137,117.8 C137,118.5 137.1,119 137.2,119.6 L135,120.1 C134.8,119.5 134.6,118.6 134.6,117.7 C133.9,118.5 133,119.3 132,119.7 Z M99.9,119 C101.1,119.7 102.5,120.1 104.2,120.1 C107.1,120.1 109.4,118.6 109.4,115.9 C109.4,112 104.8,111.8 104.8,109.3 C104.8,108 105.8,107.5 107.1,107.5 C108.1,107.5 109.4,107.8 110.1,108.1 L110.5,106 C109.3,105.5 108,105.4 107,105.4 C103.8,105.4 102.2,107.2 102.2,109.5 C102.2,113.4 106.8,113.6 106.8,116 C106.8,117.3 105.5,118 104.1,118 C102.9,118 101.7,117.6 100.8,117.1 L99.9,119 L99.9,119 Z M132,105.6 L132,107.6 C131,107.8 129.9,108.1 129,108.6 L128.6,106.6 C129.6,106.2 130.8,105.8 132,105.6 L132,105.6 Z M132,111.3 L132,113.2 C131,113.3 130.3,113.6 129.8,114 C129.1,114.5 128.8,115.2 128.8,116.1 C128.8,117.4 129.5,118 130.7,118 C131.1,118 131.6,117.9 132,117.7 L132,119.7 C131.4,120 130.7,120.1 130,120.1 C127.7,120.1 126.3,118.6 126.3,116.4 C126.3,114.8 126.9,113.5 128,112.7 C128.9,111.9 130.3,111.4 132,111.3 L132,111.3 Z M115.6,120.2 C117.5,120.2 119.4,119 120.6,117.3 L120.7,117.3 C120.7,118.4 120.9,119.5 121.1,120 L123.3,119.5 C123.2,118.9 123.1,118.3 123.1,117.7 C123.1,116.7 123.3,115.6 123.6,114.1 L125.3,105.8 L122.7,105.8 L121.2,112.9 C120.6,115.6 118.7,117.9 116.5,117.9 C115.6,117.9 114.9,117.4 114.9,116.1 C114.9,115.7 115,114.9 115.2,114.1 L116.9,105.8 L114.3,105.8 L112.6,113.8 C112.3,115.1 112.2,116 112.2,116.6 C112.2,119.1 113.7,120.2 115.6,120.2 Z" id="Shape" fill="#0079B2"></path>
        </g>
    </g>
</svg>