<?xml version="1.0" encoding="UTF-8"?>
<svg width="748px" height="378px" viewBox="0 0 748 378" version="1.1" xmlns="http://www.w3.org/2000/svg" xmlns:xlink="http://www.w3.org/1999/xlink">
    <!-- Generator: Sketch 59.1 (86144) - https://sketch.com -->
    <title>Logo-Abacomm-vertical</title>
    <desc>Created with Sketch.</desc>
    <g id="Page-1" stroke="none" stroke-width="1" fill="none" fill-rule="evenodd">
        <g id="Logo-Abacomm-vertical" transform="translate(0.000000, -1.000000)" fill-rule="nonzero">
            <g id="Group" transform="translate(0.000000, 281.000000)" fill="#333333">
                <path d="M47.54,3.24 L61.27,3.24 L108.68,95.65 L96.1,95.65 L84.15,71.62 L24.53,71.62 L12.45,95.65 L0,95.65 L47.54,3.24 Z M79.19,61.71 L54.4,12.01 L29.61,61.71 L79.19,61.71 Z" id="Shape"></path>
                <path d="M116.59,3.24 L170.11,3.24 C174.26,3.24 178.12,3.41 181.68,3.75 C185.24,4.09 188.9,5.02 192.68,6.55 C196.45,8.07 199.61,10.51 202.15,13.86 C204.69,17.21 205.96,21.72 205.96,27.4 C205.96,30.37 205.54,32.95 204.69,35.15 C203.84,37.36 202.72,39.18 201.32,40.62 C199.92,42.06 198.5,43.2 197.06,44.05 C195.62,44.9 193.88,45.83 191.85,46.84 C193.97,47.77 195.89,48.73 197.63,49.7 C199.37,50.68 201.13,52.03 202.91,53.77 C204.69,55.51 206.17,57.71 207.36,60.38 C208.55,63.05 209.14,66.17 209.14,69.72 C209.14,75.57 207.78,80.29 205.07,83.89 C202.36,87.49 198.8,90.12 194.39,91.77 C189.98,93.42 185.37,94.48 180.54,94.95 C175.71,95.42 170.16,95.65 163.89,95.65 L116.6,95.65 L116.6,3.24 L116.59,3.24 Z M127.77,42.64 L167.05,42.64 C170.78,42.64 174.21,42.45 177.35,42.07 C180.48,41.69 183.39,40.95 186.06,39.85 C188.73,38.75 190.85,37.18 192.42,35.15 C193.99,33.11 194.77,30.57 194.77,27.52 C194.77,23.96 193.94,21.17 192.29,19.13 C190.64,17.09 188.39,15.61 185.55,14.68 C182.71,13.75 179.62,13.18 176.27,12.96 C172.92,12.75 168.58,12.64 163.24,12.64 L127.77,12.64 L127.77,42.64 L127.77,42.64 Z M127.77,85.74 L171.12,85.74 C174.85,85.74 178.26,85.53 181.35,85.11 C184.44,84.69 187.22,83.88 189.68,82.69 C192.14,81.51 194.09,79.83 195.53,77.67 C196.97,75.51 197.69,72.73 197.69,69.34 C197.69,63.24 195.48,58.83 191.08,56.12 C186.67,53.41 180.44,52.05 172.39,52.05 L127.77,52.05 L127.77,85.74 Z" id="Shape"></path>
                <path d="M258.6,3.24 L272.33,3.24 L319.74,95.65 L307.16,95.65 L295.21,71.62 L235.59,71.62 L223.51,95.65 L211.05,95.65 L258.6,3.24 Z M290.25,61.71 L265.46,12.01 L240.67,61.71 L290.25,61.71 Z" id="Shape"></path>
                <path d="M407.43,29.55 C410.06,23.45 413.81,18.26 418.68,13.98 C423.55,9.7 429.31,6.46 435.97,4.26 C442.62,2.06 449.85,0.95 457.65,0.95 C465.53,0.95 472.78,2.05 479.39,4.26 C486,6.46 491.74,9.71 496.61,13.98 C501.48,18.26 505.23,23.45 507.86,29.55 C510.49,35.65 511.8,42.47 511.8,50.02 C511.8,57.9 510.29,64.87 507.28,70.93 C504.27,76.99 500.19,82.03 495.01,86.06 C489.84,90.09 484.04,93.07 477.6,95.02 C471.16,96.97 464.51,97.95 457.64,97.95 C450.77,97.95 444.12,96.97 437.68,95.02 C431.24,93.07 425.43,90.09 420.27,86.06 C415.1,82.03 411.01,76.99 408,70.93 C404.99,64.87 403.48,57.9 403.48,50.02 C403.49,42.47 404.81,35.65 407.43,29.55 Z M418.3,65.84 C420.54,70.97 423.64,75.16 427.58,78.42 C431.52,81.69 436.05,84.1 441.18,85.67 C446.31,87.24 451.8,88.02 457.64,88.02 C463.49,88.02 468.95,87.24 474.04,85.67 C479.12,84.1 483.66,81.69 487.64,78.42 C491.62,75.16 494.74,70.96 496.98,65.84 C499.23,60.71 500.35,54.76 500.35,47.98 C500.35,42.81 499.38,37.96 497.42,33.43 C495.47,28.9 492.66,24.89 488.97,21.42 C485.28,17.94 480.77,15.24 475.43,13.28 C470.09,11.33 464.16,10.36 457.64,10.36 C451.11,10.36 445.18,11.34 439.84,13.28 C434.5,15.23 429.99,17.94 426.3,21.42 C422.61,24.89 419.8,28.9 417.85,33.43 C415.9,37.96 414.92,42.82 414.92,47.98 C414.93,54.76 416.05,60.72 418.3,65.84 Z" id="Shape"></path>
                <polygon id="Path" points="524.23 3.24 541.52 3.24 575.71 81.03 609.9 3.24 627.19 3.24 627.19 95.65 616.89 95.65 616.89 13.15 616.63 13.15 580.53 95.65 571.13 95.65 534.77 13.15 534.52 13.15 534.52 95.65 524.22 95.65 524.22 3.24"></polygon>
                <polygon id="Path" points="645.01 3.24 662.3 3.24 696.49 81.03 730.69 3.24 747.98 3.24 747.98 95.65 737.68 95.65 737.68 13.15 737.42 13.15 701.32 95.65 691.91 95.65 655.55 13.15 655.3 13.15 655.3 95.65 645 95.65 645 3.24"></polygon>
                <path d="M368.86,87.95 L368.86,87.92 C356.84,87.42 347.43,84.07 340.69,77.79 C333.36,70.97 329.69,62.05 329.69,51.03 C329.69,37.89 333.27,27.83 340.43,20.84 C347.13,14.3 356.52,10.87 368.52,10.45 L368.52,10.47 L392.02,10.47 L392.02,1.01 L368.85,1.01 L368.85,0.98 C361.84,1.15 355.39,2.19 349.51,4.12 C343.07,6.24 337.5,9.35 332.79,13.46 C328.09,17.57 324.49,22.67 321.99,28.78 C319.49,34.88 318.24,41.83 318.24,49.63 C318.24,56.49 319.32,62.85 321.48,68.7 C323.64,74.55 326.93,79.66 331.33,84.02 C335.74,88.39 341.26,91.8 347.92,94.26 C353.67,96.38 360.23,97.57 367.54,97.85 L367.54,97.93 L405.81,97.93 L405.81,87.95 L368.86,87.95 Z" id="Path"></path>
            </g>
            <path d="M501.23,204.91 C501.23,204.91 500.83,204.69 500.23,204.36 L475.26,192.3 C473.69,191.57 472.45,190.99 471.72,190.67 C471.56,190.6 471.41,190.52 471.25,190.44 L471.25,190.45 C471.21,190.44 471.18,190.41 471.14,190.39 C471.01,190.32 470.88,190.25 470.76,190.18 C470.55,190.07 470.36,189.95 470.15,189.81 C470.14,189.81 470.13,189.79 470.11,189.78 C468.92,188.99 467.89,187.95 467.1,186.72 C465.77,184.65 465.17,182.19 465.45,179.83 C465.45,179.71 465.46,179.59 465.48,179.46 C465.59,178.67 465.76,177.31 465.96,175.6 L468.56,151.55 L458.23,132.94 L436.45,122.42 C434.88,121.69 433.64,121.12 432.91,120.79 C432.75,120.72 432.6,120.64 432.43,120.56 L432.43,120.56 C432.41,120.54 432.37,120.53 432.33,120.51 C432.21,120.44 432.08,120.38 431.95,120.3 C431.75,120.18 431.54,120.06 431.35,119.93 C431.34,119.93 431.32,119.91 431.31,119.91 C430.12,119.12 429.09,118.07 428.3,116.84 C426.96,114.79 426.37,112.31 426.65,109.96 C426.66,109.84 426.67,109.72 426.68,109.6 C426.79,108.8 426.96,107.44 427.16,105.73 L430.14,78.15 C430.18,77.47 430.21,77.01 430.21,77.01 C430.41,76.27 430.91,75.69 431.56,75.34 C432.18,74.98 432.95,74.86 433.68,75.06 C433.68,75.06 434.09,75.29 434.69,75.63 L459.67,87.68 C461.23,88.41 462.47,88.99 463.21,89.32 C463.36,89.39 463.51,89.47 463.66,89.55 L463.67,89.55 C463.71,89.57 463.74,89.59 463.77,89.6 C463.9,89.67 464.03,89.74 464.16,89.82 C464.37,89.92 464.57,90.05 464.76,90.18 C464.78,90.19 464.79,90.2 464.8,90.21 C465.99,90.99 467.01,92.05 467.8,93.29 C469.15,95.34 469.74,97.81 469.45,100.16 C469.44,100.28 469.44,100.41 469.42,100.53 C469.32,101.33 469.15,102.69 468.94,104.4 L466.35,128.45 L476.68,147.07 L498.47,157.58 C500.03,158.32 501.27,158.89 502,159.22 C502.16,159.29 502.31,159.38 502.47,159.45 L502.47,159.45 C502.5,159.47 502.54,159.49 502.58,159.51 C502.71,159.58 502.84,159.64 502.97,159.72 C503.17,159.83 503.37,159.96 503.58,160.09 C503.59,160.09 503.61,160.11 503.61,160.11 C504.8,160.9 505.82,161.96 506.62,163.2 C507.95,165.25 508.54,167.71 508.27,170.07 C508.26,170.19 508.25,170.32 508.23,170.45 C508.12,171.24 507.95,172.6 507.74,174.32 L504.77,201.9 C504.73,202.58 504.71,203.04 504.71,203.04 C504.5,203.77 503.99,204.36 503.35,204.7 C502.73,204.99 501.97,205.12 501.23,204.91 Z" id="Path" fill="#EA5042"></path>
            <path d="M415.25,36.5 C415.23,36.36 415.21,36.21 415.2,36.07 C415.19,36.03 415.19,35.99 415.19,35.95 L415.18,35.95 C415.17,35.77 415.14,35.6 415.12,35.44 C414.98,34.64 414.77,33.3 414.52,31.59 L410.73,4.1 C410.67,3.42 410.64,2.96 410.64,2.96 C410.41,2.24 409.89,1.66 409.23,1.34 C408.6,0.998659101 407.83,0.89 407.09,1.12 C407.09,1.12 406.7,1.37 406.11,1.72 L381.51,14.5 C379.97,15.28 378.74,15.88 378.02,16.23 C377.9,16.29 377.8,16.35 377.68,16.41 C375.57,17.48 373.85,19.34 372.87,21.59 C372.27,22.93 371.98,24.37 371.98,25.8 C371.97,25.82 371.98,25.83 371.98,25.84 C371.97,26.07 371.99,26.32 372.01,26.54 C372.01,26.68 372.03,26.83 372.05,26.98 C372.05,27.01 372.05,27.05 372.06,27.1 L372.07,27.1 C372.08,27.27 372.1,27.45 372.13,27.61 C372.26,28.4 372.47,29.76 372.73,31.46 L376.03,55.42 L366.25,74.34 L344.78,85.5 C343.23,86.28 342.01,86.89 341.29,87.25 C341.18,87.29 341.08,87.36 340.96,87.42 C339.28,88.27 337.87,89.62 336.87,91.26 C336.32,91.97 335.83,92.72 335.47,93.56 C334.88,94.9 334.59,96.34 334.58,97.78 C334.57,97.8 334.58,97.81 334.57,97.82 C334.58,98.05 334.59,98.29 334.6,98.53 C334.61,98.67 334.63,98.83 334.64,98.96 C334.64,99 334.64,99.04 334.65,99.08 C334.67,99.25 334.7,99.43 334.72,99.6 C334.85,100.39 335.06,101.74 335.33,103.45 L338.63,127.41 L328.84,146.34 L307.38,157.48 C305.84,158.26 304.61,158.87 303.89,159.23 C303.77,159.28 303.67,159.34 303.55,159.4 C301.44,160.46 299.72,162.33 298.75,164.58 C298.15,165.92 297.85,167.36 297.85,168.79 C297.84,168.81 297.85,168.82 297.85,168.83 C297.85,169.08 297.86,169.31 297.87,169.55 C297.89,169.69 297.9,169.83 297.91,169.99 C297.91,170.02 297.91,170.06 297.92,170.11 L297.93,170.11 C297.95,170.27 297.95,170.45 297.99,170.62 C298.12,171.42 298.33,172.77 298.59,174.48 L302.39,201.95 C302.45,202.63 302.47,203.1 302.47,203.1 C302.7,203.83 303.24,204.4 303.88,204.73 C304.53,205.06 305.28,205.16 306.02,204.92 C306.02,204.92 306.41,204.69 307.01,204.35 L331.61,191.56 C333.16,190.79 334.38,190.17 335.1,189.82 C335.22,189.77 335.32,189.71 335.44,189.66 C337.56,188.58 339.28,186.72 340.26,184.47 C340.85,183.14 341.15,181.7 341.14,180.26 C341.14,180.25 341.15,180.22 341.14,180.22 C341.14,179.98 341.13,179.74 341.12,179.51 C341.1,179.36 341.09,179.22 341.07,179.08 C341.06,179.03 341.06,179 341.07,178.96 L341.06,178.97 C341.04,178.78 341.02,178.62 341,178.44 C340.86,177.65 340.65,176.3 340.39,174.59 L337.09,150.62 L346.87,131.71 L368.33,120.55 C369.87,119.78 371.1,119.16 371.82,118.82 C371.93,118.77 372.04,118.71 372.15,118.66 C373.83,117.81 375.24,116.45 376.25,114.81 C376.79,114.1 377.29,113.35 377.64,112.51 C378.24,111.17 378.55,109.73 378.54,108.3 C378.53,108.29 378.53,108.28 378.54,108.26 C378.54,108.02 378.54,107.79 378.51,107.56 C378.5,107.4 378.49,107.27 378.48,107.13 C378.48,107.09 378.46,107.04 378.46,107.01 L378.46,107 C378.43,106.83 378.43,106.66 378.39,106.49 C378.26,105.69 378.04,104.34 377.79,102.64 L374.48,78.68 L384.27,59.76 L405.72,48.61 C407.27,47.83 408.49,47.22 409.22,46.88 C409.32,46.82 409.43,46.77 409.54,46.71 C411.66,45.64 413.38,43.78 414.36,41.53 C414.95,40.19 415.25,38.75 415.24,37.32 C415.25,37.3 415.25,37.29 415.25,37.27 C415.26,36.96 415.25,36.73 415.25,36.5 Z" id="Path" fill="#EA5042"></path>
            <path d="M412.8,175.95 C411.4,176.98 410.32,177.79 409.68,178.28 C409.55,178.38 409.4,178.49 409.25,178.58 L409.25,178.58 C409.22,178.6 409.19,178.62 409.15,178.65 C409.03,178.73 408.92,178.81 408.79,178.9 C408.58,179.02 408.38,179.13 408.17,179.24 C408.16,179.26 408.13,179.26 408.12,179.27 C406.86,179.94 405.45,180.34 403.99,180.45 C401.54,180.63 399.09,179.98 397.16,178.6 C397.07,178.53 396.95,178.47 396.86,178.39 C396.21,177.91 395.1,177.12 393.69,176.12 L370.9,160.32 C370.32,159.96 369.92,159.73 369.92,159.73 C369.37,159.19 369.1,158.47 369.1097,157.74 C369.1,157.01 369.34,156.29 369.89,155.73 C369.89,155.73 370.28,155.5 370.86,155.12 L393.38,138.94 C394.77,137.92 395.88,137.1 396.51,136.61 C396.64,136.5 396.79,136.41 396.93,136.32 L396.92,136.31 C396.97,136.28 396.99,136.26 397.03,136.24 C397.15,136.16 397.27,136.08 397.39,136.01 C397.59,135.88 397.79,135.75 398.01,135.65 C398.03,135.64 398.03,135.64 398.04,135.63 C399.31,134.96 400.72,134.55 402.18,134.46 C404.64,134.26 407.08,134.93 409.01,136.29 C409.12,136.36 409.22,136.43 409.32,136.5 C409.96,136.97 411.08,137.78 412.49,138.77 L435.29,154.56 C435.87,154.92 436.26,155.16 436.26,155.16 C436.8,155.7 437.08,156.43 437.07,157.15 C437.09,157.87 436.82,158.61 436.29,159.14 C436.29,159.14 435.9,159.39 435.32,159.77 L412.8,175.95 Z" id="Path" fill="#EA5042"></path>
        </g>
    </g>
</svg>