<?xml version="1.0" encoding="UTF-8"?>
<svg width="432px" height="753px" viewBox="0 0 432 753" version="1.1" xmlns="http://www.w3.org/2000/svg" xmlns:xlink="http://www.w3.org/1999/xlink">
    <!-- Generator: Sketch 59.1 (86144) - https://sketch.com -->
    <title>Group</title>
    <desc>Created with Sketch.</desc>
    <g id="Pages" stroke="none" stroke-width="1" fill="none" fill-rule="evenodd" opacity="0.5">
        <g id="Landing-Page_v4" transform="translate(-1008.000000, -1789.000000)" stroke="#3BD4AE" stroke-width="1.5">
            <g id="3---Etapa-Classificatória" transform="translate(-437.000000, 1042.000000)">
                <g id="Group" transform="translate(1979.500000, 1040.079888) rotate(-90.000000) translate(-1979.500000, -1040.079888) translate(939.500000, 507.079888)">
                    <path d="M2079.57989,474.744744 C1962.97743,461.648186 1844.5866,431.89798 1727.62646,445.31791 C1704.13906,448.06657 1680.77088,452.43209 1656.92579,459.384583 C1614.60077,475.229802 1572.27575,491.560078 1529.23537,501.099546 C1312.36435,533.275041 1203.63077,237.389839 1049.35308,66.8112112 C837.012618,-168.765149 716.118048,281.53009 588.427629,446.449711 C512.838716,543.461253 428.546348,633.843673 321.481926,645 C280.349158,641.927968 238.262587,632.550185 195.579888,622.849031" id="Path"></path>
                    <path d="M2029.57989,565.034019 C1955.34162,551.627008 1880.26922,529.012772 1805.31598,516.574943 C1780.29185,512.375156 1755.26771,509.467611 1730.36274,508.3369 C1695.8056,505.429355 1661.36763,507.206188 1628.00212,517.221064 C1583.91197,531.920317 1539.82183,546.942631 1494.65923,550.173236 C1289.34217,552.91925 1183.16834,283.971376 1049.3488,103.542081 C980.949503,10.1775936 881.567942,6.46239771 810.070416,95.1425076 C649.439307,295.763084 534.80494,627.061637 291.832513,629 C253.223849,627.061637 214.019372,616.23911 174.457407,606.062704 C134.895443,595.886298 94.9759906,587.325194 54.5798883,581.025514" id="Path"></path>
                    <path d="M1998.07989,658.5 C1926.41653,647.169045 1856.18405,617.222948 1785.7131,595.694133 C1762.22278,588.571818 1738.73246,582.258857 1715.1229,577.888346 C1682.21261,571.089772 1648.94459,567.204873 1616.6305,575.298413 C1575.37339,585.334402 1534.23553,595.856003 1492.73994,598.284065 C1286.69288,602.330835 1179.13822,332.654096 1050.00109,145.53146 C975.237486,39.0204787 869.709913,37.4017708 791.488344,141.322819 C620.020942,368.26567 454.873271,716.611614 187.894472,607.186959 C142.940918,593.427942 97.510403,580.80202 52.0798883,570.442289" id="Path"></path>
                    <path d="M1989.57989,745.963333 C1897.99003,755.652165 1813.43637,695.258445 1725.30499,655.211272 C1706.34303,646.329843 1687.26181,640.193583 1667.94207,636.156569 C1623.33972,627.113659 1577.66405,629.374387 1533.8965,639.870622 C1302.89448,695.742886 1184.82943,384.408416 1036.94997,190.147333 C841.009693,-68.3830024 674.764563,345.007166 531.893927,493.892218 C423.727261,605.152307 291.232038,653.919428 163.149348,598.208644 C123.317301,585.290201 83.0082234,573.179161 42.5798883,563.167368" id="Path"></path>
                    <path d="M2046.57989,814.586331 C1994.84219,834.130206 1941.79317,841.883149 1889.81704,823.79295 C1832.47642,802.795398 1780.26187,771.945149 1726.736,739.802742 C1708.85431,728.980927 1690.8534,718.159112 1672.49487,707.337296 C1641.85757,688.924059 1608.71683,680.686557 1576.17215,685.532146 C1532.77924,691.508373 1489.26712,696.677001 1445.51657,690.539255 C1245.36082,652.097583 1154.40261,397.381126 1023.3894,206.141884 C937.199642,84.0330433 823.352862,144.602905 742.169975,242.64532 C581.353948,438.407112 410.762594,694.415726 181.042443,595.242673 C144.086943,582.159583 106.893021,570.20713 69.5798883,560.354433" id="Path"></path>
                    <path d="M1910.07989,901.80274 C1833.63218,909.082782 1769.23006,858.122488 1703.27752,806.51508 C1681.33309,789.366536 1659.15013,772.056214 1636.2516,756.849015 C1600.71117,735.332447 1561.47358,723.846159 1522.59378,728.214184 C1312.69057,763.643721 1180.90474,515.960516 1061.40302,310.177996 C1020.37649,240.936708 969.808892,165.709608 902.544453,172.989649 C750.245358,189.814635 651.972489,373.433472 530.443298,487.649241 C412.253476,598.952994 270.330279,633.735417 138.544453,569.832826 C92.5088611,553.493176 46.1154799,539.580207 0.0798882682,530.844157" id="Path"></path>
                    <path d="M2008.07989,935.972226 C1902.21711,988.190809 1785.26735,980.107437 1699.79032,877.125278 C1679.16615,852.551827 1657.23062,831.858395 1633.98372,815.206649 C1604.0608,794.189881 1572.23044,779.639812 1539.68479,771.233105 C1507.01992,762.988066 1473.52055,759.916384 1440.49804,759.269715 C1326.29023,745.366315 1237.35596,645.29417 1163.56197,524.366925 C1099.42439,419.444757 1054.59961,310.157568 972.222154,231.10219 C889.963915,154.471824 797.4532,223.50382 728.070164,292.859152 C550.082409,464.226638 359.219452,663.400923 138.075926,551.527055 C101.476971,541.180339 62.1360741,531.64196 22.0798883,525.660265" id="Path"></path>
                    <path d="M1979.07989,989.522878 C1918.41612,1011.67859 1861.20864,1031.24677 1797.6845,1016.20676 C1757.52008,1007.31214 1725.34087,982.892337 1695.90285,952.488879 C1666.46484,922.085421 1639.76801,885.698304 1610.21081,852.707318 C1570.40394,811.145145 1520.22821,795.458254 1470.52921,792.062123 C1276.02378,763.11415 1160.29781,546.893816 1044.92939,342.80252 C953.754964,183.184367 816.337827,223.452776 710.503986,322.425734 C547.581846,477.192272 367.020732,639.883114 168.343916,543.335964 C132.708422,530.721764 96.715382,520.533371 61.0798883,514.549712" id="Path"></path>
                    <path d="M1898.57989,1052.99065 C1840.88683,1069.81748 1784.14738,1073.53879 1729.91115,1044.57724 C1700.23022,1028.88299 1677.10531,1002.34839 1655.53002,972.901444 C1627.8755,921.935583 1592.35374,881.162894 1551.94476,853.010323 C1511.53579,824.695956 1466.35879,807.707336 1419.75138,798.970331 C1246.79142,748.975248 1156.31822,534.433243 1046.17694,363.414465 C877.508198,105.51103 668.072876,399.495059 499.404135,495.925704 C407.142929,548.994918 309.398499,565.821742 213.203676,529.579352 C169.099482,517.444623 124.160884,506.442469 79.5798883,503.368338" id="Path"></path>
                </g>
            </g>
        </g>
    </g>
</svg>