<?xml version="1.0" encoding="UTF-8"?>
<svg width="480px" height="166px" viewBox="0 0 480 166" version="1.1" xmlns="http://www.w3.org/2000/svg" xmlns:xlink="http://www.w3.org/1999/xlink">
    <!-- Generator: Sketch 59.1 (86144) - https://sketch.com -->
    <title>OIB colorida</title>
    <desc>Created with Sketch.</desc>
    <g id="Page-1" stroke="none" stroke-width="1" fill="none" fill-rule="evenodd">
        <g id="OIB-colorida" fill-rule="nonzero">
            <g id="Group" transform="translate(158.000000, 59.000000)" fill="#1E8F6E">
                <polygon id="Path" points="0.7 1.8 11.8 1.8 11.8 35 0.7 35"></polygon>
                <polygon id="Path" points="15.7 1.8 26.1 1.8 37.9 16.5 37.9 1.8 48.9 1.8 48.9 35 39 35 26.7 19.7 26.7 35 15.7 35"></polygon>
                <polygon id="Path" points="52.7 1.8 63.1 1.8 74.9 16.5 74.9 1.8 85.9 1.8 85.9 35 76 35 63.7 19.7 63.7 35 52.7 35"></polygon>
                <path d="M107.1,35.7 C104.5,35.7 102.2,35.3 100,34.4 C97.8,33.5 95.9,32.3 94.3,30.7 C92.7,29.2 91.4,27.3 90.5,25.2 C89.6,23.1 89.1,20.8 89.1,18.4 L89.1,18.3 C89.1,15.9 89.6,13.6 90.5,11.5 C91.4,9.4 92.7,7.6 94.3,6 C95.9,4.4 97.9,3.2 100.1,2.3 C102.3,1.4 104.7,0.9 107.3,0.9 C109.9,0.9 112.2,1.3 114.4,2.2 C116.6,3.1 118.5,4.3 120.1,5.9 C121.7,7.5 123,9.3 123.9,11.4 C124.8,13.5 125.3,15.8 125.3,18.2 L125.3,18.3 C125.3,20.7 124.8,23 123.9,25.1 C123,27.2 121.7,29 120.1,30.6 C118.5,32.2 116.5,33.4 114.3,34.3 C112,35.3 109.6,35.7 107.1,35.7 Z M107.2,25.9 C108.2,25.9 109.2,25.7 110,25.3 C110.9,24.9 111.6,24.3 112.2,23.7 C112.8,23 113.3,22.2 113.6,21.3 C113.9,20.4 114.1,19.5 114.1,18.5 L114.1,18.4 C114.1,17.4 113.9,16.5 113.6,15.6 C113.3,14.7 112.8,13.9 112.2,13.2 C111.6,12.5 110.9,12 110,11.5 C109.1,11.1 108.2,10.9 107.1,10.9 C106.1,10.9 105.1,11.1 104.3,11.5 C103.4,11.9 102.7,12.5 102.1,13.1 C101.5,13.8 101,14.6 100.7,15.4 C100.4,16.3 100.2,17.2 100.2,18.2 L100.2,18.3 C100.2,19.3 100.4,20.2 100.7,21.1 C101,22 101.5,22.8 102.1,23.5 C102.7,24.2 103.4,24.8 104.3,25.2 C105.1,25.7 106.1,25.9 107.2,25.9 Z" id="Shape"></path>
                <polygon id="Path" points="125.9 1.8 138.3 1.8 144.8 20.5 151.3 1.8 163.5 1.8 150 35.3 139.4 35.3"></polygon>
                <path d="M176.4,1.6 L187.4,1.6 L201.4,35.1 L189.3,35.1 L187.5,30.6 L176,30.6 L174.3,35.1 L162.4,35.1 L176.4,1.6 Z M184.9,22.7 L181.9,14.6 L178.9,22.7 L184.9,22.7 Z" id="Shape"></path>
                <polygon id="Path" points="211.3 11.2 201.5 11.2 201.5 1.8 232.2 1.8 232.2 11.2 222.4 11.2 222.4 35 211.3 35 211.3 11.2"></polygon>
                <polygon id="Path" points="234.8 1.8 245.9 1.8 245.9 35 234.8 35"></polygon>
                <path d="M267.2,35.7 C264.6,35.7 262.3,35.3 260.1,34.4 C257.9,33.5 256,32.3 254.4,30.7 C252.8,29.2 251.5,27.3 250.6,25.2 C249.7,23.1 249.2,20.8 249.2,18.4 L249.2,18.3 C249.2,15.9 249.7,13.6 250.6,11.5 C251.5,9.4 252.8,7.6 254.4,6 C256,4.4 258,3.2 260.2,2.3 C262.4,1.4 264.8,0.9 267.4,0.9 C270,0.9 272.3,1.3 274.5,2.2 C276.7,3.1 278.6,4.3 280.2,5.9 C281.8,7.5 283.1,9.3 284,11.4 C284.9,13.5 285.4,15.8 285.4,18.2 L285.4,18.3 C285.4,20.7 284.9,23 284,25.1 C283.1,27.2 281.8,29 280.2,30.6 C278.6,32.2 276.6,33.4 274.4,34.3 C272.1,35.3 269.7,35.7 267.2,35.7 Z M267.3,25.9 C268.3,25.9 269.3,25.7 270.1,25.3 C271,24.9 271.7,24.3 272.3,23.7 C272.9,23 273.4,22.2 273.7,21.3 C274,20.4 274.2,19.5 274.2,18.5 L274.2,18.4 C274.2,17.4 274,16.5 273.7,15.6 C273.4,14.7 272.9,13.9 272.3,13.2 C271.7,12.5 271,12 270.1,11.5 C269.2,11.1 268.3,10.9 267.2,10.9 C266.2,10.9 265.2,11.1 264.4,11.5 C263.5,11.9 262.8,12.5 262.2,13.1 C261.6,13.8 261.1,14.6 260.8,15.4 C260.5,16.3 260.3,17.2 260.3,18.2 L260.3,18.3 C260.3,19.3 260.5,20.2 260.8,21.1 C261.1,22 261.6,22.8 262.2,23.5 C262.8,24.2 263.5,24.8 264.4,25.2 C265.2,25.7 266.2,25.9 267.3,25.9 Z" id="Shape"></path>
                <polygon id="Path" points="288.4 1.8 298.8 1.8 310.6 16.5 310.6 1.8 321.6 1.8 321.6 35 311.7 35 299.4 19.7 299.4 35 288.4 35"></polygon>
            </g>
            <g id="Group">
                <path d="M30.1,85.4 C30.1,85.4 30.2,85.5 30.4,85.8 C33.2,89.4 54.4,118.9 25.1,153.2 C25.1,153.2 11.8,157.1 0.7,153.3 C0.7,153.3 19.7,141.2 16.9,113.5" id="Path" fill="#237689"></path>
                <path d="M62.4,159.4 C62.4,159.4 86.1,137.2 84.4,114.6 C84.4,114.6 89,86 65.3,45.6 C65.3,45.6 48.9,126.7 43.5,137.5 C43.5,137.5 53,155.8 62.4,159.4 Z" id="Path" fill="#1E8F6E"></path>
                <path d="M107.1,0 C107.1,0 136,38.6 136.2,106.4 C136.2,106.4 125.6,154 116.8,162.2 C116.8,162.2 95.1,155.1 92.8,134.2 C92.8,134.2 98.8,119.2 99.2,106.2 L107.1,0 Z" id="Path" fill="#278E4F"></path>
                <path d="M107.1,0 L77.6,29.5 C77.6,29.5 75.9,101.8 133.9,166 L178.9,165.9 C178.9,165.9 111.9,105.1 107.1,0 Z" id="Path" fill="#E1A12C"></path>
                <path d="M65.3,45.6 L40.1,71.2 C40.1,71.2 41,123 78.2,163.5 L116.7,162.2 C116.7,162.2 77.8,131.7 65.3,45.6 Z" id="Path" fill="#3C9B83"></path>
                <path d="M30.1,85.4 C30.1,85.4 36,138.4 62.3,159.5 L30,160.2 C30,160.2 8.9,134.1 9.5,106.4 L30.1,85.4 Z" id="Path" fill="#2593B0"></path>
            </g>
            <g id="Group" transform="translate(157.000000, 19.000000)" fill="#1E8F6E">
                <path d="M18.9,35.2 C16.3,35.2 14,34.8 11.8,33.9 C9.6,33 7.7,31.8 6.1,30.2 C4.5,28.7 3.2,26.8 2.3,24.7 C1.4,22.6 0.9,20.3 0.9,17.9 L0.9,17.8 C0.9,15.4 1.4,13.1 2.3,11 C3.2,8.9 4.5,7.1 6.1,5.5 C7.7,3.9 9.7,2.7 11.9,1.8 C14.1,0.9 16.5,0.4 19.1,0.4 C21.7,0.4 24,0.8 26.2,1.7 C28.4,2.6 30.3,3.8 31.9,5.4 C33.5,7 34.8,8.8 35.7,10.9 C36.6,13 37.1,15.3 37.1,17.7 L37.1,17.8 C37.1,20.2 36.6,22.5 35.7,24.6 C34.8,26.7 33.5,28.5 31.9,30.1 C30.3,31.7 28.3,32.9 26.1,33.8 C23.9,34.8 21.5,35.2 18.9,35.2 Z M19,25.4 C20,25.4 21,25.2 21.8,24.8 C22.7,24.4 23.4,23.8 24,23.2 C24.6,22.5 25.1,21.7 25.4,20.8 C25.7,19.9 25.9,19 25.9,18 L25.9,17.9 C25.9,16.9 25.7,16 25.4,15.1 C25.1,14.2 24.6,13.4 24,12.7 C23.4,12 22.7,11.5 21.8,11 C20.9,10.6 20,10.4 18.9,10.4 C17.9,10.4 16.9,10.6 16.1,11 C15.2,11.4 14.5,12 13.9,12.6 C13.3,13.3 12.8,14.1 12.5,14.9 C12.2,15.8 12,16.7 12,17.7 L12,17.8 C12,18.8 12.2,19.7 12.5,20.6 C12.8,21.5 13.3,22.3 13.9,23 C14.5,23.7 15.2,24.3 16.1,24.7 C17,25.2 17.9,25.4 19,25.4 Z" id="Shape"></path>
                <path d="M40.1,1.3 L55.1,1.3 C57.3,1.3 59.3,1.5 61.2,2 C63,2.5 64.6,3.2 65.9,4.2 C67.2,5.2 68.2,6.4 68.9,7.9 C69.6,9.4 70,11.1 70,13.1 L70,13.2 C70,15.2 69.6,17 68.9,18.5 C68.2,20 67.1,21.3 65.8,22.4 C64.5,23.4 62.9,24.2 61,24.8 C59.1,25.4 57.1,25.6 54.9,25.6 L51.3,25.6 L51.3,34.6 L40.2,34.6 L40.2,1.3 L40.1,1.3 Z M54.2,17.6 C55.6,17.6 56.8,17.3 57.6,16.7 C58.5,16.1 58.9,15.2 58.9,14 L58.9,13.9 C58.9,12.7 58.5,11.8 57.7,11.2 C56.9,10.6 55.7,10.3 54.2,10.3 L51.2,10.3 L51.2,17.7 L54.2,17.7 L54.2,17.6 Z" id="Shape"></path>
                <polygon id="Path" points="72.3 1.3 100.6 1.3 100.6 10.4 83.2 10.4 83.2 13.8 99.4 13.8 99.4 21.8 83.2 21.8 83.2 25.4 100.9 25.4 100.9 34.5 72.3 34.5 72.3 1.3"></polygon>
                <polygon id="Path" points="103.9 1.3 114.3 1.3 126.1 16 126.1 1.3 137.1 1.3 137.1 34.5 127.2 34.5 114.9 19.2 114.9 34.5 103.9 34.5"></polygon>
            </g>
            <g id="Group" transform="translate(159.000000, 101.000000)" fill="#E1A12C">
                <path d="M0,0.4 L15.4,0.4 C19.2,0.4 22.2,1.4 24.1,3.3 C25.6,4.8 26.4,6.7 26.4,9 L26.4,9.1 C26.4,12.9 24.4,14.9 22,16.3 C25.8,17.8 28.2,20 28.2,24.5 L28.2,24.6 C28.2,30.7 23.3,33.7 15.8,33.7 L0,33.7 L0,0.4 Z M13.8,13.9 C17,13.9 19.1,12.9 19.1,10.4 L19.1,10.3 C19.1,8.1 17.4,6.9 14.3,6.9 L7.1,6.9 L7.1,13.9 L13.8,13.9 Z M15.8,27.3 C19,27.3 21,26.2 21,23.7 L21,23.6 C21,21.4 19.3,20 15.6,20 L7.1,20 L7.1,27.3 L15.8,27.3 L15.8,27.3 Z" id="Shape"></path>
                <path d="M34.2,0.4 L49.4,0.4 C53.6,0.4 56.9,1.6 59.1,3.8 C61,5.7 61.9,8.3 61.9,11.4 L61.9,11.5 C61.9,16.9 59,20.2 54.8,21.8 L62.9,33.7 L54.4,33.7 L47.3,23.1 L47.2,23.1 L41.5,23.1 L41.5,33.7 L34.2,33.7 L34.2,0.4 Z M49,16.6 C52.6,16.6 54.6,14.7 54.6,11.9 L54.6,11.8 C54.6,8.7 52.4,7.1 48.9,7.1 L41.6,7.1 L41.6,16.6 L49,16.6 Z" id="Shape"></path>
                <path d="M80,0.2 L86.7,0.2 L100.9,33.7 L93.3,33.7 L90.3,26.2 L76.2,26.2 L73.2,33.7 L65.7,33.7 L80,0.2 Z M87.7,19.8 L83.3,9 L78.9,19.8 L87.7,19.8 Z" id="Shape"></path>
                <path d="M103.3,28.8 L107.6,23.6 C110.6,26.1 113.7,27.6 117.5,27.6 C120.5,27.6 122.3,26.4 122.3,24.5 L122.3,24.4 C122.3,22.5 121.2,21.6 115.6,20.2 C108.9,18.5 104.6,16.6 104.6,10 L104.6,10 C104.6,4 109.4,0 116.2,0 C121,0 125.2,1.5 128.5,4.2 L124.7,9.7 C121.8,7.7 118.9,6.4 116.1,6.4 C113.3,6.4 111.8,7.7 111.8,9.3 L111.8,9.4 C111.8,11.6 113.2,12.3 119,13.8 C125.7,15.6 129.5,18 129.5,23.8 L129.5,23.9 C129.5,30.5 124.5,34.2 117.3,34.2 C112.4,34.1 107.3,32.4 103.3,28.8 Z" id="Path"></path>
                <polygon id="Path" points="136.3 0.4 143.6 0.4 143.6 33.6 136.3 33.6"></polygon>
                <polygon id="Path" points="151.9 0.4 159.2 0.4 159.2 27 175.8 27 175.8 33.6 151.9 33.6 151.9 0.4"></polygon>
            </g>
        </g>
    </g>
</svg>