<?xml version="1.0" encoding="UTF-8"?>
<svg width="260px" height="94px" viewBox="0 0 260 94" version="1.1" xmlns="http://www.w3.org/2000/svg" xmlns:xlink="http://www.w3.org/1999/xlink">
    <!-- Generator: Sketch 59.1 (86144) - https://sketch.com -->
    <title>Logo-PRINCIPAL-RGB-CentralComm-horizontal</title>
    <desc>Created with Sketch.</desc>
    <g id="Page-1" stroke="none" stroke-width="1" fill="none" fill-rule="evenodd">
        <g id="Logo-PRINCIPAL-RGB-CentralComm-horizontal" fill-rule="nonzero">
            <g id="Group" transform="translate(153.000000, 10.000000)" fill="#2B2B2B">
                <g>
                    <path d="M15.9,27.5 C14.3,28.4 12.3,28.8 10.5,28.8 C4.7,28.8 0.6,24.8 0.6,19.4 C0.6,13.8 5,9.8 10.7,9.8 C12.6,9.8 14.3,10.3 15.6,10.9 L15.6,14.3 C14.1,13.3 12.3,12.7 10.5,12.7 C6.5,12.7 3.9,15.6 3.9,19.3 C3.9,23 6.7,25.7 10.6,25.7 C12.7,25.7 14.5,25 15.9,23.9 L15.9,27.5 Z" id="Path"></path>
                    <path d="M21.6,20.2 C22.1,23.8 24.7,25.8 28.3,25.8 C30.8,25.8 32.9,24.8 34.6,23.5 L34.6,27 C33,28 30.5,28.7 28.1,28.7 C22.5,28.7 18.3,24.9 18.3,19.2 C18.3,13.5 22.5,9.7 27.4,9.7 C31.8,9.7 35.7,12.8 35.7,18.5 C35.7,19.1 35.7,19.7 35.6,20.2 L21.6,20.2 Z M21.6,17.6 L32.3,17.6 C32,14 29.3,12.8 27.2,12.8 C24.8,12.7 22.2,14.2 21.6,17.6 Z" id="Shape"></path>
                    <path d="M39.2,10.1 L42.5,10.1 L42.5,12.4 L42.6,12.4 C44.2,10.8 46.4,9.7 49,9.7 C51,9.7 52.7,10.4 53.8,11.7 C54.8,12.8 55.3,14.3 55.3,17.1 L55.3,28.4 L52,28.4 L52,17.7 C52,15.8 51.7,14.7 51.1,14 C50.4,13.1 49.2,12.8 48.2,12.8 C46.1,12.8 43.8,14.1 42.5,15.8 L42.5,28.3 L39.2,28.3 L39.2,10.1 Z" id="Path"></path>
                    <path d="M61.4,22 L61.4,13.1 L58,13.1 L58,10.1 L61.4,10.1 L61.4,5.1 L64.7,4.5 L64.7,10 L70.2,10 L70.2,13 L64.7,13 L64.7,21.3 C64.7,23.6 65,25.6 67.4,25.6 C68.4,25.6 69.4,25.3 70.1,24.8 L70.1,27.9 C69.4,28.3 68.1,28.6 66.8,28.6 C65.5,28.6 63.8,28.3 62.7,26.9 C61.9,26 61.4,24.6 61.4,22 Z" id="Path"></path>
                    <path d="M73.3,10.1 L76.6,10.1 L76.6,12.8 L76.7,12.8 C78,11 80,10 82.1,10 C82.5,10 82.9,10 83.3,10.1 L83.3,13.4 C82.9,13.3 82.4,13.3 82,13.3 C79.5,13.3 77.8,14.6 76.6,16.5 L76.6,28.3 L73.3,28.3 L73.3,10.1 Z" id="Path"></path>
                    <path d="M85.8,27.4 C84.6,26.5 83.9,25.1 83.9,23.4 C83.9,21.4 84.9,19.9 86.3,19 C87.7,18.1 89.5,17.8 91.4,17.8 C92.8,17.8 94.1,18 95.3,18.3 L95.3,16.8 C95.3,15.5 95,14.5 94.3,13.8 C93.6,13.2 92.5,12.8 90.9,12.8 C88.6,12.8 86.7,13.6 85.3,14.6 L85.3,11.3 C86.7,10.4 88.7,9.7 91.4,9.7 C93.6,9.7 95.5,10.2 96.8,11.4 C97.9,12.4 98.6,13.9 98.6,16.2 L98.6,23.9 C98.6,25 99,25.8 100,25.8 C100.4,25.8 100.8,25.7 101.1,25.5 L101.1,28.3 C100.7,28.5 100,28.6 99.3,28.6 C97.9,28.6 96.5,28 95.8,26.7 L95.7,26.7 C94.7,27.7 92.6,28.7 90.1,28.7 C88.7,28.7 87.1,28.4 85.8,27.4 Z M95.3,24.2 L95.3,20.8 C94.3,20.5 92.9,20.3 91.7,20.3 C89.4,20.3 87.2,21 87.2,23.1 C87.2,24.9 88.7,25.8 90.7,25.8 C92.5,25.8 94.2,25.1 95.3,24.2 Z" id="Shape"></path>
                    <polygon id="Path" points="103.7 0.1 107 0.1 107 28.4 103.7 28.4"></polygon>
                </g>
                <g transform="translate(1.000000, 62.000000)">
                    <path d="M3.6,5.4 C3.1,4.6 2.6,3.9 2.1,3.1 L2.1,3.1 C2.1,3.8 2.1,4.7 2.1,5.6 L2.1,12.1 L0.6,12.1 L0.6,0.5 L2.1,0.5 L6.2,6.4 L10.3,0.5 L11.8,0.5 L11.8,12.1 L10.3,12.1 L10.3,5.6 C10.3,4.7 10.3,3.8 10.3,3.1 L10.3,3.1 C9.8,3.9 9.3,4.6 8.8,5.4 L6.3,9 L3.6,5.4 Z" id="Path"></path>
                    <polygon id="Path" points="16.7 0.6 23.4 0.6 23.4 2 18.2 2 18.2 5.5 22.7 5.5 22.7 6.8 18.2 6.8 18.2 10.8 23.5 10.8 23.5 12.2 16.7 12.2"></polygon>
                    <path d="M27.9,0.6 L31.1,0.6 C32.6,0.6 34,0.8 35.2,1.5 C36.9,2.5 37.8,4.3 37.8,6.3 C37.8,8.2 37,9.9 35.5,11 C34.3,11.9 32.7,12.2 30.7,12.2 L27.9,12.2 L27.9,0.6 L27.9,0.6 Z M30.9,10.7 C32.3,10.7 33.4,10.5 34.3,9.9 C35.4,9.2 36.2,7.9 36.2,6.3 C36.2,4.6 35.4,3.4 34.3,2.7 C33.3,2 32.1,1.9 30.8,1.9 L29.3,1.9 L29.3,10.7 L30.9,10.7 L30.9,10.7 Z" id="Shape"></path>
                    <polygon id="Path" points="42 0.6 43.5 0.6 43.5 12.2 42 12.2"></polygon>
                    <path d="M52,0.6 L53.5,0.6 L58.3,12.2 L56.7,12.2 L55.4,9 L50.2,9 L48.9,12.2 L47.4,12.2 L52,0.6 Z M50.7,7.6 L54.9,7.6 L54,5.2 C53.6,4.3 53.2,3.3 52.9,2.3 L52.9,2.3 C52.5,3.2 52.2,4.2 51.8,5.2 L50.7,7.6 Z" id="Shape"></path>
                    <polygon id="Path" points="68.3 0.6 69.8 0.6 69.8 5.5 76.1 5.5 76.1 0.6 77.6 0.6 77.6 12.2 76.1 12.2 76.1 6.9 69.8 6.9 69.8 12.2 68.3 12.2"></polygon>
                    <path d="M82.5,6.7 L82.5,0.6 L84,0.6 L84,6.6 C84,8 84.1,8.9 84.4,9.6 C84.8,10.4 85.6,11 87.1,11 C88.5,11 89.4,10.5 89.8,9.6 C90.2,8.9 90.2,8 90.2,6.7 L90.2,0.7 L91.7,0.7 L91.7,6.6 C91.7,8.3 91.6,9.6 90.9,10.6 C90.2,11.7 88.8,12.4 87,12.4 C85.2,12.4 83.8,11.7 83.1,10.6 C82.6,9.5 82.5,8.1 82.5,6.7 Z" id="Path"></path>
                    <path d="M96.6,0.6 L99.7,0.6 C101.1,0.6 102,0.7 102.8,1.2 C103.7,1.7 104.2,2.5 104.2,3.6 C104.2,4.9 103.4,5.7 102.4,6 L102.4,6 C103.8,6.3 104.6,7.2 104.6,8.7 C104.6,9.8 104.1,10.8 103.3,11.4 C102.5,12 101.4,12.2 99.7,12.2 L96.6,12.2 L96.6,0.6 L96.6,0.6 Z M100.4,5.6 C101.6,5.6 102.6,5.1 102.6,3.8 C102.6,3.1 102.3,2.6 101.8,2.3 C101.3,2 100.6,1.9 99.5,1.9 L98.1,1.9 L98.1,5.6 L100.4,5.6 Z M99.8,10.7 C101.1,10.7 101.8,10.6 102.4,10.2 C102.8,9.9 103.2,9.5 103.2,8.7 C103.2,7.4 102.2,6.7 100.5,6.7 L98.3,6.7 L98.3,10.7 L99.8,10.7 Z" id="Shape"></path>
                </g>
                <g transform="translate(0.000000, 35.000000)">
                    <path d="M16.2,18.1 C14.5,19.1 12.3,19.5 10.2,19.5 C4.4,19.5 0.1,15.5 0.1,10 C0.1,4.3 4.8,0.5 10.5,0.5 C12.5,0.5 14.4,1 15.9,1.7 L15.9,6.9 C14.3,5.9 12.5,5.2 10.8,5.2 C7.8,5.2 5.7,7.2 5.7,10 C5.7,12.8 7.8,14.7 10.8,14.7 C12.6,14.7 14.6,14 16.1,12.9 L16.1,18.1 L16.2,18.1 Z" id="Path"></path>
                    <path d="M29.5,0.5 C35.3,0.5 39.6,4.6 39.6,10 C39.6,15.4 35.3,19.5 29.5,19.5 C23.7,19.5 19.4,15.4 19.4,10 C19.3,4.6 23.7,0.5 29.5,0.5 Z M29.5,14.7 C32.1,14.7 34,12.6 34,10 C34,7.4 32,5.3 29.5,5.3 C26.9,5.3 25,7.4 25,10 C25,12.6 26.9,14.7 29.5,14.7 Z" id="Shape"></path>
                    <path d="M67.1,8.6 C67.1,7.2 66.9,6.6 66.4,6.1 C65.9,5.5 65.2,5.3 64.5,5.3 C63.2,5.3 61.9,6 60.9,6.8 C60.9,7.1 60.9,7.4 60.9,7.6 L60.9,19 L55.3,19 L55.3,8.6 C55.3,7.4 55.1,6.6 54.6,6.1 C54.1,5.5 53.4,5.3 52.7,5.3 C51.4,5.3 50.1,6 49.1,6.8 L49.1,19.1 L43.5,19.1 L43.5,0.9 L49.1,0.9 L49.1,2.5 L49.2,2.5 C50.6,1.3 52.5,0.4 54.7,0.4 C56.7,0.4 58.9,1.2 60,3 C62,1.3 64.1,0.4 66.4,0.4 C68.4,0.4 70,1.1 71.1,2.2 C72.2,3.4 72.8,5 72.8,7.6 L72.8,19 L67.2,19 L67.2,8.6 L67.1,8.6 Z" id="Path"></path>
                    <path d="M101.3,8.6 C101.3,7.2 101.1,6.6 100.6,6.1 C100.1,5.5 99.4,5.3 98.7,5.3 C97.4,5.3 96.1,6 95.1,6.8 C95.1,7.1 95.1,7.4 95.1,7.6 L95.1,19 L89.5,19 L89.5,8.6 C89.5,7.4 89.3,6.6 88.8,6.1 C88.3,5.5 87.6,5.3 86.9,5.3 C85.6,5.3 84.3,6 83.3,6.8 L83.3,19.1 L77.7,19.1 L77.7,0.9 L83.3,0.9 L83.3,2.5 L83.4,2.5 C84.8,1.3 86.7,0.4 88.9,0.4 C90.9,0.4 93.1,1.2 94.2,3 C96.2,1.3 98.3,0.4 100.6,0.4 C102.6,0.4 104.2,1.1 105.3,2.2 C106.4,3.4 107,5 107,7.6 L107,19 L101.4,19 L101.4,8.6 L101.3,8.6 Z" id="Path"></path>
                </g>
            </g>
            <g id="SVGID_1_-link" fill="#FBBA07">
                <path d="M67.8,58.4 C63.7,65.6 56,70.5 47.1,70.5 C34,70.5 23.4,59.9 23.4,46.8 C23.4,33.7 34,23.1 47.1,23.1 C56,23.1 63.7,28 67.8,35.2 C71.6,28.3 78.8,23.6 87.1,23.1 C79,9.5 64.1,0.3 47.1,0.3 C21.4,0.3 0.7,21.1 0.7,46.7 C0.7,72.4 21.5,93.1 47.1,93.1 C64.1,93.1 79,83.9 87.1,70.3 C78.8,70 71.7,65.3 67.8,58.4 Z" id="SVGID_1_"></path>
            </g>
            <path d="M106.8,61.8 C102.5,67.1 95.8,70.6 88.4,70.6 C75.3,70.6 64.7,60 64.7,46.9 C64.7,33.8 75.3,23.2 88.4,23.2 C95.8,23.2 102.4,26.6 106.7,31.9 L124.3,17.5 C115.8,7.1 102.9,0.5 88.4,0.5 C62.7,0.5 42,21.3 42,46.9 C42,72.6 62.8,93.3 88.4,93.3 C103,93.3 115.9,86.6 124.5,76.1 L106.8,61.8 Z" id="Path" fill="#4FFF82"></path>
            <g id="Group" transform="translate(48.000000, 5.000000)" fill="#579B7C">
                <path d="M19.8,53.5 C15.9,60.3 8.8,65 0.5,65.5 C5.1,73.2 11.8,79.5 19.9,83.5 C27.9,79.5 34.7,73.2 39.2,65.5 C30.8,65 23.6,60.3 19.8,53.5 Z" id="Path"></path>
                <path d="M19.8,30.2 C23.7,23.4 30.8,18.6 39.1,18.2 C34.5,10.5 27.8,4.2 19.8,0.2 C11.7,4.2 5,10.5 0.4,18.2 C8.7,18.6 15.9,23.3 19.8,30.2 Z" id="Path"></path>
            </g>
            <circle id="Oval" fill="#FBBA07" cx="123.5" cy="46.8" r="9.4"></circle>
        </g>
    </g>
</svg>