<?xml version="1.0" encoding="UTF-8"?>
<svg width="564px" height="452px" viewBox="0 0 564 452" version="1.1" xmlns="http://www.w3.org/2000/svg" xmlns:xlink="http://www.w3.org/1999/xlink">
    <!-- Generator: Sketch 59.1 (86144) - https://sketch.com -->
    <title>img-logo-antonio</title>
    <desc>Created with Sketch.</desc>
    <g id="Page-1" stroke="none" stroke-width="1" fill="none" fill-rule="evenodd">
        <g id="img-logo-antonio" fill-rule="nonzero">
            <path d="M540.5,26.1 C542.3,25.5 544.5,24.9 539.7,18.1 C525.3,-58.2 338.3,136.8 208.5,217.9 C208.6,217.9 187.2,230.2 179.3,234.6 C138.1,255.6 88.4,271.7 79.2,186.7 C77.8,190.7 75.8,214.8 76,239.7 C77.9,250.1 81.8,261.1 88.5,271.6 C104.6,296.8 167.9,286.3 226,249.9 C320.7,190.4 491.4,22 540.5,26.1" id="Path" fill="#005693"></path>
            <path d="M499.3,336.3 C496.3,336.3 493.8,333.8 493.8,330.8 C493.8,327.8 496.3,325.3 499.3,325.3 C502.3,325.3 504.9,327.8 504.9,330.8 C504.9,333.8 502.3,336.3 499.3,336.3" id="Path" fill="#636362"></path>
            <path d="M48,367.9 C48,370.9 47.4,373.6 46.3,376.1 C45.1,378.6 43.5,380.7 41.3,382.4 C39.1,384.1 36.6,385.4 33.7,386.3 C30.8,387.2 27.6,387.6 24.1,387.6 C19,387.6 14.6,386.9 10.8,385.5 C7,384.1 3.6,381.9 0.4,378.7 L7.2,372 C8.7,373.5 10.3,374.8 12.1,375.8 C13.9,376.8 15.8,377.5 17.8,377.9 C19.8,378.3 22,378.5 24.3,378.5 C28.6,378.5 32,377.6 34.4,375.8 C36.9,374 38.1,371.5 38.1,368.2 C38.1,365.2 37.2,362.9 35.4,361.3 C34.6,360.5 33.7,359.9 32.6,359.5 C31.5,359.1 30,358.8 28.1,358.5 L20.2,357.4 C14.8,356.6 10.5,354.8 7.5,352 C4.3,349 2.6,344.7 2.6,339.2 C2.6,335.3 3.5,331.9 5.3,328.9 C7.1,325.9 9.7,323.6 13,322 C16.4,320.4 20.3,319.5 24.9,319.5 C29.4,319.5 33.3,320.1 36.5,321.3 C39.8,322.5 42.8,324.4 45.6,327.1 L39.1,333.5 C37.8,332.2 36.3,331.2 34.8,330.4 C33.3,329.6 31.7,329.1 30,328.8 C28.4,328.5 26.5,328.3 24.5,328.3 C22,328.3 19.8,328.7 17.9,329.6 C16.1,330.5 14.7,331.7 13.7,333.3 C12.7,334.9 12.3,336.7 12.3,338.7 C12.3,341.4 13.1,343.4 14.8,344.9 C15.6,345.6 16.7,346.2 18.1,346.8 C19.4,347.4 20.9,347.7 22.4,348 L30,349.1 C33.1,349.6 35.6,350.2 37.5,351 C39.4,351.8 41.1,352.8 42.5,354.1 C46.2,357.4 48,361.9 48,367.9" id="Path" fill="#636362"></path>
            <path d="M86.1,369.8 L86.1,369.8 L86.1,366 L74.9,366 C72.1,366 70,366.6 68.5,367.8 C67,369 66.3,370.7 66.3,372.9 C66.3,377.4 69.2,379.6 75,379.6 C77.1,379.6 78.8,379.4 80.2,379.1 C81.6,378.7 82.9,378 84,376.9 C85.4,375.5 86.1,373.1 86.1,369.8 M95.7,387 L86.3,387 L86.3,382.6 C84.6,384.4 82.7,385.6 80.8,386.4 C78.9,387.2 76.5,387.5 73.6,387.5 C70.7,387.5 68.2,387.1 66.1,386.4 C64,385.7 62.2,384.6 60.8,383.2 C58.3,380.6 57,377.2 57,373 C57,370.3 57.6,367.9 58.9,365.8 C60.2,363.7 62,362.1 64.5,361 C67,359.9 70,359.3 73.5,359.3 L86.1,359.3 L86.1,355.9 C86.1,352.9 85.3,350.6 83.6,349.2 C81.9,347.8 79.3,347.1 75.6,347.1 C72.9,347.1 70.9,347.4 69.4,348.1 C67.9,348.8 66.5,349.9 65.1,351.7 L58.8,345.8 C61,343.2 63.4,341.4 66,340.4 C68.6,339.4 71.9,338.9 76,338.9 C89.1,338.9 95.6,344.4 95.6,355.3 L95.6,387 L95.7,387 Z" id="Shape" fill="#636362"></path>
            <path d="M149,387 L139.4,387 L139.4,358 C139.4,355.6 139,353.6 138.1,352.1 C137.3,350.5 136.1,349.3 134.7,348.6 C133.3,347.9 131.6,347.5 129.8,347.5 C126.9,347.5 124.6,348.4 122.7,350.2 C120.8,352 119.9,354.6 119.9,358.1 L119.9,387.1 L110.3,387.1 L110.3,339.4 L119.7,339.4 L119.7,344.2 C121.3,342.4 123.2,341.1 125.4,340.2 C127.6,339.3 129.9,338.8 132.3,338.8 C137.2,338.8 141.1,340.3 144,343.2 C147.2,346.3 148.8,350.8 148.8,356.6 L148.8,387 L149,387 Z" id="Path" fill="#636362"></path>
            <path d="M183.7,387 L178,387 C175.2,387 172.8,386.4 170.8,385.2 C168.8,384 167.4,382.4 166.4,380.4 C165.4,378.4 164.9,376.2 164.9,373.8 L164.9,347.6 L159.5,347.6 L159.5,340.2 L164.9,340.2 L164.9,325.8 L174.5,325.8 L174.5,340.2 L183.7,340.2 L183.7,347.6 L174.5,347.6 L174.5,373.3 C174.5,377 176.3,378.8 179.8,378.8 L183.7,378.8 L183.7,387 L183.7,387 Z" id="Path" fill="#636362"></path>
            <path d="M223.9,363.2 L223.9,363.2 C223.9,360.1 223.7,357.5 223.3,355.4 C222.9,353.3 222,351.6 220.6,350.2 C218.8,348.4 216.5,347.5 213.6,347.5 C210.7,347.5 208.4,348.4 206.6,350.2 C205.3,351.5 204.4,353.3 204,355.4 C203.6,357.5 203.4,360.1 203.4,363.2 C203.4,366.3 203.6,368.9 204,371 C204.4,373.1 205.3,374.8 206.6,376.2 C208.5,378.1 210.8,379 213.6,379 C216.5,379 218.8,378.1 220.6,376.2 C222,374.9 222.8,373.1 223.3,371 C223.6,368.9 223.9,366.3 223.9,363.2 M233.4,363.2 C233.4,367.6 233,371.3 232.2,374.2 C231.4,377.1 229.9,379.7 227.8,382 C224.2,385.8 219.4,387.6 213.5,387.6 C207.7,387.6 202.9,385.7 199.3,382 C197.2,379.8 195.7,377.2 194.9,374.2 C194.1,371.2 193.7,367.6 193.7,363.2 C193.7,358.9 194.1,355.3 194.9,352.3 C195.7,349.3 197.2,346.7 199.3,344.5 C200.3,343.4 201.5,342.4 202.9,341.6 C204.3,340.8 205.9,340.1 207.7,339.6 C209.5,339.1 211.4,338.8 213.5,338.8 C216.7,338.8 219.4,339.3 221.8,340.4 C224.2,341.4 226.2,342.8 227.8,344.5 C229.9,346.7 231.4,349.3 232.2,352.3 C233,355.2 233.4,358.8 233.4,363.2" id="Shape" fill="#636362"></path>
            <path d="M278.4,365 L278.4,365 L268.3,335.3 L257.9,365 L278.4,365 Z M296.7,387 L285.9,387 L281.3,373.6 L254.9,373.6 L250.3,387 L239.5,387 L264,320.1 L272.1,320.1 L296.7,387 Z" id="Shape" fill="#636362"></path>
            <path d="M343.8,387 L334.2,387 L334.2,358 C334.2,355.6 333.8,353.6 332.9,352.1 C332.1,350.5 330.9,349.3 329.5,348.6 C328.1,347.9 326.4,347.5 324.6,347.5 C321.7,347.5 319.3,348.4 317.5,350.2 C315.6,352 314.7,354.6 314.7,358.1 L314.7,387.1 L305.1,387.1 L305.1,339.4 L314.5,339.4 L314.5,344.2 C316.1,342.4 318,341.1 320.2,340.2 C322.4,339.3 324.7,338.8 327.1,338.8 C332,338.8 335.9,340.3 338.9,343.2 C342.1,346.3 343.7,350.8 343.7,356.6 L343.7,387 L343.8,387 Z" id="Path" fill="#636362"></path>
            <path d="M378.5,387 L372.8,387 C370,387 367.6,386.4 365.6,385.2 C363.6,384 362.2,382.4 361.2,380.4 C360.2,378.4 359.7,376.2 359.7,373.8 L359.7,347.6 L354.3,347.6 L354.3,340.2 L359.7,340.2 L359.7,325.8 L369.3,325.8 L369.3,340.2 L378.5,340.2 L378.5,347.6 L369.3,347.6 L369.3,373.3 C369.3,377 371.1,378.8 374.6,378.8 L378.5,378.8 L378.5,387 L378.5,387 Z" id="Path" fill="#636362"></path>
            <path d="M418,371 L418,371 C417.6,373.1 416.7,374.8 415.3,376.2 C413.5,378.1 411.1,379 408.3,379 C405.5,379 403.2,378.1 401.3,376.2 C400,374.9 399.1,373.1 398.7,371 C398.3,368.9 398.1,366.3 398.1,363.2 C398.1,360.1 398.3,357.5 398.7,355.4 C399.1,353.3 400,351.6 401.3,350.2 C403.1,348.4 405.4,347.5 408.3,347.5 C411.2,347.5 413.6,348.4 415.3,350.2 C416.6,351.5 417.5,353.3 418,355.4 C418.4,357.5 418.6,360.1 418.6,363.2 C418.6,366.3 418.4,368.9 418,371 M426.9,352.2 C426.1,349.2 424.6,346.7 422.5,344.4 C420.9,342.7 418.9,341.4 416.5,340.3 C414.1,339.3 411.3,338.7 408.2,338.7 C406.2,338.7 404.3,339 402.4,339.5 C400.6,340 399,340.7 397.6,341.5 C396.2,342.3 395,343.3 394,344.4 C391.9,346.6 390.4,349.2 389.6,352.2 C388.8,355.2 388.4,358.8 388.4,363.1 C388.4,367.5 388.8,371.1 389.6,374.1 C390.4,377.1 391.9,379.6 394,381.9 C397.6,385.7 402.3,387.5 408.2,387.5 C414.1,387.5 418.9,385.6 422.5,381.9 C424.7,379.7 426.2,377.1 426.9,374.1 C427.7,371.2 428.1,367.5 428.1,363.1 C428.2,358.8 427.8,355.2 426.9,352.2" id="Shape" fill="#636362"></path>
            <path d="M479.8,387 L470.2,387 L470.2,358 C470.2,355.6 469.8,353.6 468.9,352.1 C468,350.5 466.9,349.3 465.5,348.6 C464.1,347.9 462.4,347.5 460.6,347.5 C457.7,347.5 455.4,348.4 453.5,350.2 C451.6,352 450.7,354.6 450.7,358.1 L450.7,387.1 L441.1,387.1 L441.1,339.4 L450.5,339.4 L450.5,344.2 C452.1,342.4 454,341.1 456.2,340.2 C458.4,339.3 460.7,338.8 463.1,338.8 C468,338.8 471.9,340.3 474.8,343.2 C478,346.3 479.6,350.8 479.6,356.6 L479.6,387 L479.8,387 Z" id="Path" fill="#636362"></path>
            <polygon id="Path" fill="#636362" points="404.5 335.9 408.2 331.8 411.9 335.9 420.4 335.9 412.3 325.8 404.2 325.8 396 335.9"></polygon>
            <rect id="Rectangle" fill="#636362" x="494.6" y="339.4" width="9.6" height="47.7"></rect>
            <path d="M547.3,363.2 L547.3,363.2 C547.3,360.1 547.1,357.5 546.7,355.4 C546.3,353.3 545.4,351.6 544,350.2 C542.3,348.4 539.9,347.5 537,347.5 C534.2,347.5 531.8,348.4 530,350.2 C528.7,351.5 527.8,353.3 527.4,355.4 C527,357.5 526.8,360.1 526.8,363.2 C526.8,366.3 527,368.9 527.4,371 C527.8,373.1 528.7,374.8 530,376.2 C531.9,378.1 534.2,379 537,379 C539.9,379 542.2,378.1 544,376.2 C545.4,374.9 546.2,373.1 546.7,371 C547.1,368.9 547.3,366.3 547.3,363.2 M556.9,363.2 C556.9,367.6 556.5,371.3 555.7,374.2 C554.9,377.1 553.4,379.7 551.2,382 C547.6,385.8 542.8,387.6 536.9,387.6 C531.1,387.6 526.3,385.7 522.7,382 C520.6,379.8 519.1,377.2 518.3,374.2 C517.5,371.2 517.1,367.6 517.1,363.2 C517.1,358.9 517.5,355.3 518.3,352.3 C519.1,349.3 520.6,346.7 522.7,344.5 C523.7,343.4 524.9,342.4 526.3,341.6 C527.7,340.8 529.3,340.1 531.1,339.6 C532.9,339.1 534.8,338.8 536.9,338.8 C540.1,338.8 542.8,339.3 545.2,340.4 C547.6,341.4 549.6,342.8 551.2,344.5 C553.3,346.7 554.8,349.3 555.6,352.3 C556.4,355.2 556.9,358.8 556.9,363.2" id="Shape" fill="#636362"></path>
            <polygon id="Path" fill="#5EB030" points="243.8 414.8 243.8 451 267.6 451 267.6 444.7 250.8 444.7 250.8 435.9 265.1 435.9 265.1 429.6 250.8 429.6 250.8 421.1 267.6 421.1 267.6 414.8"></polygon>
            <polygon id="Path" fill="#5EB030" points="312.5 414.8 312.5 437 298.2 414.8 291.8 414.8 291.8 451 298.9 451 298.9 428.8 313.3 451 319.6 451 319.6 414.8"></polygon>
            <polygon id="Path" fill="#5EB030" points="345.3 414.8 345.3 451 369.2 451 369.2 444.7 352.4 444.7 352.4 435.9 366.7 435.9 366.7 429.6 352.4 429.6 352.4 421.1 369.2 421.1 369.2 414.8"></polygon>
            <path d="M412.2,425.9 L412.2,425.9 C412.2,424.5 411.7,423.3 410.8,422.4 C409.9,421.5 408.6,421.1 407.1,421.1 L400.4,421.1 L400.4,430.7 L407.1,430.7 C408.7,430.7 409.9,430.3 410.8,429.4 C411.8,428.5 412.2,427.3 412.2,425.9 M412.6,451 L405.5,436.6 L400.4,436.6 L400.4,451 L393.3,451 L393.3,414.8 L407.5,414.8 C409.3,414.8 411,415.1 412.4,415.7 C413.9,416.3 415.1,417.1 416.1,418.1 C417.1,419.1 417.9,420.3 418.4,421.6 C418.9,422.9 419.2,424.4 419.2,425.9 C419.2,427.2 419,428.3 418.7,429.4 C418.3,430.4 417.9,431.3 417.2,432.1 C416.6,432.9 415.9,433.6 415.1,434.1 C414.3,434.7 413.5,435.1 412.6,435.4 L420.7,451 L412.6,451 L412.6,451 Z" id="Shape" fill="#5EB030"></path>
            <path d="M468.9,442.7 C468.4,444.4 467.5,445.9 466.2,447.3 C464.7,448.8 463.2,449.9 461.4,450.5 C459.7,451.1 457.9,451.4 455.9,451.4 C453.9,451.4 452.1,451.1 450.5,450.4 C448.9,449.7 447.4,448.7 446.1,447.5 C445.2,446.6 444.5,445.6 444,444.6 C443.5,443.6 443.2,442.5 443,441.3 C442.8,440.1 442.7,438.8 442.6,437.5 C442.6,436.1 442.6,434.7 442.6,433.1 C442.6,431.6 442.6,430.1 442.6,428.7 C442.6,427.3 442.8,426.1 443,424.9 C443.2,423.7 443.5,422.6 444,421.6 C444.5,420.6 445.2,419.6 446.1,418.7 C447.4,417.4 448.8,416.4 450.4,415.7 C452,415 453.8,414.7 455.8,414.7 C457.9,414.7 459.7,415 461.3,415.7 C462.9,416.3 464.3,417.2 465.4,418.3 C466.5,419.4 467.4,420.6 468.1,422 C468.8,423.4 469.2,424.9 469.4,426.4 L462.3,426.4 C461.9,424.7 461.2,423.3 460.1,422.4 C459,421.5 457.6,421.1 455.8,421.1 C454.8,421.1 453.9,421.3 453.2,421.6 C452.4,422 451.8,422.4 451.3,423 C451,423.4 450.7,423.8 450.5,424.3 C450.3,424.8 450.1,425.4 450,426.1 C449.9,426.9 449.8,427.8 449.7,428.9 C449.7,430 449.6,431.5 449.6,433.2 C449.6,434.9 449.6,436.4 449.7,437.5 C449.8,438.7 449.8,439.6 450,440.3 C450.1,441.1 450.3,441.7 450.5,442.1 C450.7,442.6 451,443 451.3,443.4 C451.8,444 452.4,444.4 453.2,444.8 C454,445.1 454.8,445.3 455.8,445.3 C456.9,445.3 457.8,445.1 458.7,444.8 C459.5,444.4 460.3,443.9 460.8,443.3 C461.4,442.6 461.8,441.9 462,441.1 C462.3,440.3 462.4,439.4 462.4,438.5 L462.4,437.1 L456,437.1 L456,431.2 L469.7,431.2 L469.7,436.5 C469.7,438.8 469.5,440.9 468.9,442.7" id="Path" fill="#5EB030"></path>
            <rect id="Rectangle" fill="#5EB030" x="494.2" y="414.8" width="7.1" height="36.2"></rect>
            <path d="M539.1,425.5 L543.5,438.7 L534.5,438.7 L539.1,425.5 Z M536.2,414.8 L523,451 L530.4,451 L532.6,444.6 L545.5,444.6 L547.6,451 L555,451 L541.8,414.8 L536.2,414.8 Z" id="Shape" fill="#5EB030"></path>
            <path d="M557.4,37.5 L535.9,8.2 C540.7,16 540.5,26.1 540.5,26.1 C540.8,33.6 539.8,42.9 537.7,54.3 C496.3,282.7 366.1,267.9 240.3,229 C239.3,228.7 239.5,229.5 240.3,229 C240.3,229 210.2,218.3 208.4,217.9 C122.7,186.2 51.2,147.6 88.1,224.2 C72.7,195.8 128.3,224.8 178.7,242.3 C178.7,242.3 212.9,254.3 212.9,254.3 C337.6,296.4 514.5,332.1 560.9,87.9 C565.6,63 564.2,44.9 557.4,37.5" id="Path" fill="#00A03A"></path>
        </g>
    </g>
</svg>