<?xml version="1.0" encoding="UTF-8"?>
<svg width="664px" height="217px" viewBox="0 0 664 217" version="1.1" xmlns="http://www.w3.org/2000/svg" xmlns:xlink="http://www.w3.org/1999/xlink">
    <!-- Generator: Sketch 59.1 (86144) - https://sketch.com -->
    <title>img-logo-energisa</title>
    <desc>Created with Sketch.</desc>
    <g id="Page-1" stroke="none" stroke-width="1" fill="none" fill-rule="evenodd">
        <g id="img-logo-energisa">
            <path d="M102.2,0.4 C53.5,0.4 12.4,0.4 12.4,0.4 C12.4,0.4 115.3,34.3 70.6,103.1 C70.6,103.1 146.7,49.8 102.2,0.4" id="Path" fill="#00ACCD"></path>
            <path d="M72.1,63 C21.4,84 -21.8,138.8 74.4,216.4 C108.3,216.4 156.2,216.4 156.2,216.4 C156.2,216.4 -8.7,119 72.1,63" id="Path" fill="#CBDB2A"></path>
            <path d="M5.1,135.9 C5.1,135.9 -10,174.6 13.2,216.4 L69.5,216.4 C41.4,203.7 4,168.4 5.1,135.9" id="Path" fill="#CBDB2A"></path>
            <path d="M156.3,120.4 C157.7,110.1 164.1,103.4 173.3,103.4 C182.9,103.4 188.9,110 188.6,120.4 L156.3,120.4 Z M173.9,91.3 C151.7,91.3 139.2,108.4 139.2,131.4 C139.2,158.2 152.2,170.4 175.9,170.4 C185.2,170.4 194.6,168.7 202.2,165.5 L200.7,152.5 C194.4,155.5 186.3,157.4 178.5,157.4 C163.4,157.4 155.6,149.4 156,131.8 L204.5,131.8 C204.8,128.9 205,126.3 205,124.2 C205,106.1 195.6,91.3 173.9,91.3 Z" id="Shape" fill="#00ACCD"></path>
            <path d="M260.8,91.3 C247.9,91.3 238.8,98 234.3,107.8 L234.1,107.6 C234.9,103.3 235.2,96.7 235.2,92.8 L219.6,92.8 L219.6,168.9 L236,168.9 L236,132.2 C236,117.1 244.4,105 255.9,105 C264.6,105 267.2,110.5 267.2,120 L267.2,169 L283.4,169 L283.4,115.7 C283.5,102.2 278.1,91.3 260.8,91.3" id="Path" fill="#00ACCD"></path>
            <path d="M314.5,120.4 C315.9,110.1 322.3,103.4 331.5,103.4 C341.1,103.4 347.1,110 346.8,120.4 L314.5,120.4 Z M332.2,91.3 C310,91.3 297.5,108.4 297.5,131.4 C297.5,158.2 310.5,170.4 334.2,170.4 C343.5,170.4 352.9,168.7 360.5,165.5 L359,152.5 C352.7,155.5 344.6,157.4 336.8,157.4 C321.7,157.4 313.9,149.4 314.3,131.8 L362.8,131.8 C363.1,128.9 363.3,126.3 363.3,124.2 C363.2,106.1 353.9,91.3 332.2,91.3 Z" id="Shape" fill="#00ACCD"></path>
            <path d="M392.3,109.7 L392,109.7 C393.1,103.9 393.5,97.1 393.5,92.9 L377.9,92.9 L377.9,169 L394.3,169 L394.3,138 C394.3,115.2 401.7,104.6 416.8,107.4 L417.6,91.3 C403.3,89.9 395.7,99.4 392.3,109.7" id="Path" fill="#00ACCD"></path>
            <path d="M475.2,155.1 C472,156 468,156.6 464,156.6 C449.7,156.6 439.8,147.6 439.8,131.2 C439.8,113.8 451.3,104.8 465.6,104.8 C473,104.8 479.9,106.3 486.7,108.9 L489.5,95.1 C481.5,92.7 473.6,91.6 465.5,91.6 C438.8,91.6 422.9,109.6 422.9,132.6 C422.9,157.7 439.6,170.6 462.5,170.6 C473,170.6 482.2,168.8 491.1,165.4 L491.1,129.3 L475.2,129.3 L475.2,155.1 L475.2,155.1 Z" id="Path" fill="#00ACCD"></path>
            <rect id="Rectangle" fill="#00ACCD" x="506.7" y="92.8" width="16.4" height="76.1"></rect>
            <path d="M646.6,132.6 C646.6,143.5 639.1,157.7 627.9,157.7 C625.2,157.7 623,157.3 621.4,156.4 C617.2,154.2 613,143.3 621.1,136.8 C623.2,135.1 626.2,133.8 629.7,133 C633.4,132.1 638.7,131.1 646.7,131.1 L646.7,132.6 L646.6,132.6 Z M663.5,169 C663.2,162.6 663,154.8 663,148.2 L663,117.1 C663,101.5 656.6,91.4 633.3,91.4 C623.5,91.4 614,93.5 606.5,96.4 L608,110.3 C614.4,106.3 623.6,104.2 630.7,104.2 C642.6,104.2 646.6,110.6 646.6,120.1 C630.8,120.1 615.3,124 607.3,132.1 C605.1,134.3 603.5,136.7 602.2,139.6 C598.4,148.2 600.9,156.1 604.4,161.2 C609.1,168.2 614.3,170.7 623,170.5 C635.1,170.3 644.6,163.8 648.2,154.7 L648.4,154.9 C647.8,159 647.6,164.1 647.6,169 L663.5,169 L663.5,169 Z" id="Shape" fill="#00ACCD"></path>
            <path d="M555.3,112.3 C555.3,106.5 563.1,103.9 572.2,103.9 C577.2,103.9 582.6,104.7 587.2,106.6 L587.9,94 C584.1,92.4 578,91.8 573.5,91.8 C552.6,91.8 538.199799,100.8 538.199799,113.8 C538.1,139.8 575.4,134 575.3,149.1 C575.3,155.3 569.7,156.4 560.7,156.4 C554.8,156.4 545.5,154.1 540.2,151.7 L539.7,166.2 C544.6,168.2 554,170 559.7,170 C580.3,170 592.6,161.7 592.6,147.6 C592.9,122.6 555.3,126.8 555.3,112.3" id="Path" fill="#00ACCD"></path>
            <path d="M157.4,66.1 C150.6,66.1 145.7,62.3 145.7,54.9 C145.7,48.1 150.4,42.8 158.3,42.8 C160.7,42.8 163.1,43.1 165.4,43.8 L164.6,47.9 C162.6,47.1 160.5,46.7 158.4,46.7 C154.2,46.7 150.8,49.4 150.8,54.5 C150.8,59.3 153.7,62 157.9,62 C159.1,62 160.3,61.8 161.2,61.6 L161.2,54 L165.9,54 L165.9,64.7 C163.3,65.5 160.5,66.1 157.4,66.1" id="Path" fill="#00ACCD"></path>
            <path d="M179.9,46.5 C179.1,46.5 178.5,46.5 177.9,46.6 L177.9,53.1 C178.6,53.1 179.3,53.2 180.1,53.2 C182.6,53.2 184.2,51.8 184.2,49.6 C184.1,47.6 182.5,46.5 179.9,46.5 M184.6,65.7 L178.1,56.4 L177.9,56.4 L177.9,65.7 L173.2,65.7 L173.2,43 C174.9,42.9 177.8,42.9 180.6,42.9 C186,42.9 189.1,45 189.1,49.2 C189.1,52.9 186.5,55.1 182.9,55.7 C183.4,56.3 184,57.2 184.7,58.1 L190.3,65.7 L184.6,65.7 L184.6,65.7 Z" id="Shape" fill="#00ACCD"></path>
            <path d="M205.4,66.1 C198.8,66.1 195.5,63 195.5,57.8 L195.5,43 L200.2,43 L200.2,56.8 C200.2,60.5 202.1,62.1 205.6,62.1 C209.5,62.1 211,59.9 211,56.4 L211,43 L215.7,43 L215.7,57 C215.7,62 212.7,66.1 205.4,66.1" id="Path" fill="#00ACCD"></path>
            <path d="M230.3,46.7 C229.4,46.7 228.6,46.7 228,46.7 L228,54.4 C228.5,54.5 229.4,54.6 230,54.6 C232.9,54.6 234.7,53.2 234.7,50.5 C234.7,48.3 233.2,46.7 230.3,46.7 M230,58.3 C229.4,58.3 228.6,58.3 228,58.2 L228,65.7 L223.3,65.7 L223.3,43 C225.2,43 228.1,42.9 230.7,42.9 C236.5,42.9 239.7,45.6 239.7,50.2 C239.7,55.2 235.7,58.3 230,58.3 Z" id="Shape" fill="#00ACCD"></path>
            <path d="M254.4,46.7 C251,46.7 247.9,49.3 247.9,54.2 C247.9,58.5 249.7,61.9 254.2,61.9 C257.8,61.9 260.8,59.5 260.8,54.4 C260.8,49.3 258.3,46.7 254.4,46.7 M254,66.1 C246.6,66.1 243,61.4 243,54.6 C243,47.1 248.5,42.7 254.8,42.7 C261.4,42.7 266,46.5 266,54.2 C265.9,61.7 260.5,66.1 254,66.1 Z" id="Shape" fill="#00ACCD"></path>
        </g>
    </g>
</svg>